<?xml version="1.0" encoding="utf-8" ?>
<svg xmlns="http://www.w3.org/2000/svg" xmlns:xlink="http://www.w3.org/1999/xlink" width="1024" height="1024">
	<path fill="#D09602" transform="scale(2 2)" d="M169.146 254.344C119.412 257.402 76.5933 219.612 73.4478 169.883C70.3023 120.155 108.018 77.27 157.741 74.0377C207.587 70.7973 250.601 108.627 253.754 158.478C256.908 208.33 219.003 251.278 169.146 254.344ZM160.51 93.2405C125.48 94.0353 95.4952 123.02 92.4424 157.712C90.5314 179.428 98.3411 197.234 112.559 213.573C124.369 192.86 144.16 181.829 167.649 182.531C188.099 184.552 204.399 196.137 214.531 213.573C241.783 185.471 241.658 140.923 213.402 113.492C200.126 100.604 179.432 90.7285 160.51 93.2405ZM162.812 201.86C147.711 202.777 134.262 211.64 128.357 225.651C139.439 231.522 152.28 235.056 164.876 234.497C176.553 234.418 188.607 231.417 198.817 225.651C192.706 210.965 178.649 201.659 162.812 201.86Z"/>
	<path fill="#D09602" transform="scale(2 2)" d="M314.438 250.787C293.437 250.847 272.837 249.814 272.499 222.8C272.215 200.159 272.48 177.48 272.484 154.835L272.487 135.134C272.485 119.905 273.524 105.766 291.994 100.834C299.335 98.8742 309.355 99.7374 317.059 99.7366L348.482 99.7261L389.914 99.7293C408.069 99.7263 433.178 96.7098 438.116 120.767C439.184 125.971 438.775 131.806 438.778 137.109L438.782 202.514C438.78 220.168 442.504 245.996 419.013 250.323C413.796 251.284 407.939 250.796 402.639 250.793L380.896 250.786C377.969 250.794 373.089 250.325 370.442 251.248C367.449 252.292 349.66 269.237 346.095 272.562C342.327 276.121 331.56 286.387 327.745 288.66C322.985 291.496 315.962 288.966 314.747 283.347C313.974 279.776 314.418 275.402 314.42 271.729L314.438 250.787ZM299.281 118.487C288.051 119.778 291.511 133.793 291.51 142.487L291.505 209.311C291.506 226.157 287.294 232.322 306.911 232.078L319.545 231.995C338.496 231.95 334.334 242.629 334.278 257.693C339.221 253.421 359.942 233.543 364.631 232.435C369.019 231.399 381.795 232.045 386.875 232.034L405.106 232.063C424.096 232.087 419.99 228.541 419.99 210.692L419.985 147.104C419.994 140.399 420.265 133.57 419.903 126.878C419.299 115.726 407.535 118.489 398.947 118.486L299.281 118.487Z"/>
	<path fill="#D09602" transform="scale(2 2)" d="M167.129 167.195C151.558 169.254 137.282 158.255 135.303 142.674C133.323 127.092 144.395 112.873 159.987 110.973C175.466 109.086 189.561 120.061 191.526 135.531C193.492 151 182.589 165.151 167.129 167.195ZM162.25 129.857C157.245 130.488 153.711 135.072 154.374 140.072C155.037 145.073 159.644 148.578 164.64 147.882C169.591 147.193 173.057 142.637 172.4 137.682C171.743 132.727 167.209 129.232 162.25 129.857Z"/>
	<path fill="#D09602" transform="scale(2 2)" d="M369.41 206.779C365.271 208.926 360.475 214.183 355.983 214.698C351.836 215.175 343.368 207.072 340.279 204.718C329.406 196.433 315.531 189.582 313.722 174.541C311.728 157.956 322.898 143.965 339.387 142.094C345.36 141.278 350.711 142.889 355.936 145.608C373.265 134.086 399.026 149.116 398.635 171.471C398.259 192.975 381.479 194.873 369.695 206.495L369.41 206.779ZM340.796 160.785C333.953 162.525 328.774 170 334.07 176.173C337.554 180.234 350.931 189.489 355.936 192.669C360.514 189.58 365.539 186.489 369.41 182.531C380.879 178.513 384.406 165.513 373.638 161.263C365.246 157.951 361.042 170.01 352.986 167.442C348.08 165.878 346.74 160.465 340.796 160.785Z"/>
	<path fill="#D09602" transform="scale(2 2)" d="M151.738 300.457C154.662 299.703 157.532 298.598 160.396 297.635L201.59 283.907C212.351 280.215 222.249 275.862 233.787 275.237C246.658 272.987 268.665 280.612 279.917 285.868C302.676 296.5 302.374 329.586 277.214 338.372C279.456 340.563 281.624 342.838 283.814 345.08C298.025 340.34 323.875 325.632 337.716 318.498C343.388 315.575 349.036 311.975 355.096 309.939C382.848 300.619 404.116 338.696 381.238 356.756C375.741 361.095 369.21 364.519 363.331 368.341C353.184 374.937 343.207 381.827 333.167 388.588L295.084 414.716C284.058 422.328 272.542 431.323 259.624 435.272C244.865 438.812 235.834 436.044 222.371 430.761L174.752 412.562C167.114 409.728 159.505 406.682 151.738 404.223C151.868 420.901 143.052 418.254 129.277 418.242L91.8363 418.227C73.1578 418.363 73.252 416.295 73.2577 397.98L73.2574 306.247C73.2129 288.296 75.668 289.471 94.2985 289.472L134.145 289.468C143.978 289.403 150.63 288.759 151.738 300.457ZM232.662 294.252C224.114 295.43 215.698 299.035 207.569 301.85L171.479 314.199C164.929 316.414 158.433 318.944 151.738 320.684L151.738 383.093C171.769 390.442 191.668 398.213 211.532 406.005L228.73 412.749C253.837 422.61 258.06 416.646 280.194 401.68L314.118 378.535C318.843 375.302 323.502 371.925 328.287 368.79C334.063 365.009 370.669 342.525 371.663 337.236C372.512 332.714 368.988 328.312 364.475 327.839C360.122 327.382 355.016 330.96 351.347 332.887L340.528 338.432C325.909 345.871 311.33 353.407 296.54 360.502C289.644 363.81 282.068 369.739 275.111 363.416C264.473 353.748 255.165 342.767 244.861 332.766C241.533 329.536 238.176 326.872 238.656 321.647C239.142 316.344 243.688 311.67 249.237 312.605C255.271 313.622 258.812 320.856 267.142 321.263C278.308 321.808 281.094 308.433 271.764 303.239C262.643 298.16 243.848 293.035 232.662 294.252ZM92.3683 308.323L92.3683 398.952L131.974 398.952L132.548 398.778C133.233 396.776 132.77 379.749 132.772 376.347L132.781 308.323L92.3683 308.323Z"/>
</svg>
