<svg xmlns="http://www.w3.org/2000/svg" width="1024" height="1024"><path fill="#D09602" d="M611.046 240.504c2.342-6.828 3.618-13.99 5.882-20.856 18.212-55.229 70.538-94.54 128.734-96.823 67.69-4.829 130.622 48.576 143.66 113.801 15.114 75.606-37.876 149.38-112.692 163.594-41.634 7.912-78.39-2.738-112.734-26.24-11.502 8.446-29.492 27.486-39.048 38.172 55.634 60.92 59.932 138.414 11.29 205.65 6.192 7.208 13.13 13.818 19.708 20.682l30.968 32.888c5.114 5.462 11.462 10.798 15.756 16.89 5.384 7.634-.854 18.91-10.082 19.216-11.56.386-62.288-60.47-73.87-71.168-5.162 3.654-10.008 7.76-15.188 11.4-42.33 29.742-100.336 37.946-149.288 21.7-10.842 9.442-21.77 20.408-31.442 31.02-.392 6.238-.04 12.676-.032 18.938l.032 38.196 261.942.022c10.974.002 22.984.934 33.8-.974 35.7-6.3 41.098-36.292 41.078-65.446l-.03-180.236c-6.096 6.06-25.778 28.604-32.034 30.898-9.504 3.484-19.814-8.676-14.824-17.536 3.132-5.558 45.264-48.056 51.256-52.856 14.42-11.55 27.548 9.066 36.668 18.14 6.72 6.686 34.112 30.264 35.25 38.608 1.338 9.788-9.666 18.054-18.472 12.552-9.69-6.054-22.97-22.926-32.436-31.326-.434 16.362-.008 32.864-.004 49.24l.014 130.04c-.01 35.464-2.782 60.132-35.368 82.154l.182 12.45c.186 22.358-6.952 41.034-22.79 56.968-23.126 23.272-44.218 22.802-74.71 22.806l-43.372-.02c-.91 19.338-5.546 40.566-32.102 37.422-9.128-1.082-16.574-7.518-24.108-12.21-16.964-10.568-38.52-18.812-35.49-42.818 2.456-19.458 42.814-42.216 57.584-46.448 24.142-6.916 36.55 17.082 32.412 39.194l38.74.036c42.534.01 77.574-5.022 78.878-56.722-11.322 2.146-23.618 1.196-35.13 1.182L422.7 782.65c-1.556 30.614 11.16 82.57-30.136 92.54-12.016 2.9-29.826 1.496-42.48 1.498l-68.328-.016-74.086-.006c-39.046.03-73.592 1.128-73.99-49.546l-.011-162.72c.021-27.09 1.328-54.92 35.275-62.198 11.135-2.388 30.242-1.006 42.258-1.004l81.492-.026c19.43-21.284 41.354-40.25 61.186-61.154 1.836-48.934 1.814-83.428 38.54-123.836-15.368-19.102-40.246-41.072-57.788-58.926-7.4-7.532-27.5-22.14-14.97-33.97 9.654-9.116 18.764 1.928 25.244 8.356l20.63 20.864c15.174 15.456 30.882 30.304 45.654 46.172 57.958-50.548 134.01-45.046 194.18-3.404 12.8-13.646 26.552-26.52 39.898-39.64-21.638-26.586-35.86-55.408-34.222-90.612l-269.04-.018c-12.256 0-25.442-.948-37.526 1.182-36.858 6.498-39.844 39.13-39.846 68.342l.02 169.178c7.828-8.234 23.734-24.974 32.474-31.948 10.728-8.56 25.23 6.328 17.338 17.288-6.258 8.692-45.022 47.198-54.648 54.608-10.416 8.018-18.68-3.926-25.622-10.664-10.926-10.606-34.52-32.22-43.19-43.724-5.663-7.514-.302-19.866 9.354-20.238 8.176-.314 32.852 27.99 39.794 34.678l-.018-170.772c-.03-27.98 4.798-70.642 36.948-81.244-3.082-25.562.4-47.256 19.704-66.548 21.944-21.927 46.476-20.498 74.998-20.483l43.8.038c-1.6-20.477 9.92-39.603 33.39-35.659 7.96 1.338 40.044 21.955 47.14 27.559 8.402 6.633 12.406 15.13 10.408 26.048-3.134 17.135-21.48 24.137-34.846 31.983-6.85 4.022-13.9 9.77-21.51 12.098-23.336 7.138-37.698-14.572-32.764-37.172l-45.708-.032c-10.744-.003-22.256-.785-32.836 1.241-24.64 4.718-41.94 26.397-36.97 51.539 13.982-2.838 29.002-1.816 43.224-1.812zm141.196-92.606c-63.652-.914-115.932 50.064-116.624 113.72-.69 63.654 50.472 115.756 114.13 116.224 63.34.464 115.128-50.388 115.816-113.728.686-63.34-49.984-115.306-113.322-116.216m-310.456 5.283c-3.042 9.055 5.52 16.412 5.314 25.365-.166 7.18-6.79 16.897-5.256 23.702l.74.486c5.702-1.414 15.934-9.092 20.276-13.18 7.102-2.79 13.758-6.643 19.248-11.991-7.872-5.234-33.16-22.478-40.322-24.382m61.784 234.827c-79.536 2.542-125.72 69.61-124.88 145.244 33.07-8.378 30.104 8.648 29.984 34.614-.036 7.99.188 16.012-.004 23.996 13.872-25.574 30.232-42.456 57.074-54.234-55.31-52.024-7.342-137.1 62.034-118.32 36.746 11.684 57.246 49.892 45.35 86.92-4.05 12.606-11.756 21.912-20.686 31.4 30.852 9.978 50.884 37.15 63.306 65.724 45.42-61.15 35.212-143.354-26.634-189.198-21.9-16.232-57.858-30.878-85.544-26.146m3.492 54.416c-23.536.966-41.816 20.856-40.796 44.39 1.02 23.532 20.952 41.766 44.484 40.692 23.452-1.072 41.612-20.926 40.596-44.38-1.016-23.456-20.826-41.662-44.284-40.702m-5.466 111.568c-35.022 3.584-63.966 26.398-75.148 59.588 17.888-.074 49.346-7.006 49.528 19.718.04 5.984-2.296 9.97-5.892 14.47 15.228 3.344 30.694 5.198 46.308 4.154 27.852-3.08 58.526-11.086 79.604-30.698-10.956-45.266-49.792-68.454-94.4-67.232m-124.638 4.694c-9.45.636-14.754 8.826-21.052 15.078l-33.124 32.73c-5.872 5.82-13.992 15.53-20.892 19.538-29.4.308-58.834.016-88.238.022-16.094.004-51.235-6.618-54.466 16.982-.986 7.202-.454 15.092-.46 22.368l-.01 40.16c-.007 41.804-.571 83.69.013 125.486.206 14.768 8.681 20.34 22.855 20.746-.691-40.518 22.188-70.21 56.214-88.756-25.036-26.468-25.12-67.244 5.954-89.396 57.8-38.658 126.994 37.336 72.382 91.094 34.394 14.96 57.17 49.708 57.464 87.058 31.05-.542 23.716-19.55 23.654-43.098l-.012-74.806c0-9.164-2.242-35.816 1.296-43.27 2.526-5.322 42.88-44.71 50.444-52.03-11.074.03-22.34.508-33.394 0-7.798-3.958-28.6-24.518-30.604-30.398-2.028-5.948-.892-41.404-.884-49.508zM272.984 688.87c-17.92 2.602-30.352 19.22-27.792 37.146s19.148 30.398 37.082 27.88c17.992-2.528 30.514-19.182 27.944-37.168s-19.254-30.47-37.234-27.858m1.752 92.632c-39.532-.008-66.578 32.308-67.524 70.294h140.324c-.218-39.69-32.208-72.798-72.8-70.294m305.83 41.852c-11.308 5.73-33.696 17.278-40.246 28.442 7.454 3.444 14.42 7.918 21.398 12.226 38.194 24.178 15.704 2.772 15.716-14.244.004-5.034 10.24-25.066 3.132-26.424"/><path fill="#D09602" d="M738.576 237.05c.104-26.918 5.784-53.01 38.736-54.516 35.258-6.348 57.986 33.604 39.088 66.538 14.716 18.508 14.378 44.354-5.3 59.91-9.256 7.318-65.532 31.24-77.974 36.702-13.514 4.122-24.188-1.87-30.928-13.812-5.386-9.546-19.854-35.544-21.502-45.38-3.632-21.672 17.632-27.014 32.56-34.802 4.968-11.944 13.024-13.482 23.928-7.844.876-2.01.832-4.616 1.392-6.796m40.632-30.262c-9.71.916-16.864 9.488-16.028 19.202.836 9.716 9.35 16.94 19.072 16.182 9.834-.766 17.158-9.398 16.312-19.226-.844-9.826-9.536-17.082-19.356-16.158m-19.718 54.018c-11.244 10.63-15.158 29.726-32.28 11.358-7.286 3.714-14.544 7.926-22.18 10.858 7.51 12.094 14.288 25.394 19.734 38.54 4.24-1.628 8.316-3.494 12.42-5.428l36.056-16.922c11.032-5.156 43.944-17.99 22.438-34.19-12.948 1.88-24.51 2.85-36.188-4.216"/></svg>