<svg xmlns="http://www.w3.org/2000/svg" width="1024" height="1024"><path fill="#D09602" d="M312.482 172.265c-.18-10.912-1.536-19.767 10.102-24.701 17.118-.978 17.474 10.961 16.95 24.7 21.702 3.622 41.602 15.275 52.978 34.488 4.422 7.466 4.198 16.47-4.538 20.528-13.662 6.348-17.758-8.562-24.82-16.186-24.334-26.274-76.35-14.602-87.474 19.272-10.834 32.994 12.604 50.14 40.986 59.554 11.866 5.432 29.966 11.04 29.976 27.062.012 19.484-31.528 35.782-29.976-.696-33.33-11.042-65.074-24.024-69.212-63.54-4.058-38.744 26.014-76.592 65.028-80.481"/><path fill="#D09602" d="m590.458 228.468-.058-38.244c-.024-12.142-3.942-28.303 12.426-30.165 17.89-.29 35.84-.002 53.738-.003l179.916-.011c7.34 0 42.26-2.137 47.494 1.823 8.738 6.614 4.984 51.366 4.986 62.708v162.532c.006 37.844 8.93 41.574-31.66 41.542l-51.752-.034c-7.668 8.944-16.376 17.104-24.742 25.386l-62.702 61.746c-4.742 4.654-15.912 18.19-22.484 19.618-11.386 2.476-29.52-23.318-41.394-31.116l-.654-.424c-16.398 11.756-48.1 52.448-63.114 56.966-9.56-2.584-18.482-12.784-26.252-19.022l-43.466 41.522c14.512 16.454 37.72 34.88 54.104 50.448 11.734-10.846 64.528-66.538 75.89-70.516 32.784 7.372 3.048 30.038-7.568 40.444l-34.77 33.922c-33.562 32.25-26.71 39.894-60.748 6.944l-36.626-34.424c-31.79-29.852-28.05-25.05-.168-53.028l28.292-28.088c29.252-28.676 20.444-22.296 51.312.284 3.66-4.95 8.252-8.982 12.588-13.316l24.52-24.084c21.832-21.414 19.86-30.168 45.554-6.208 6.596 6.152 13.246 12.248 20.058 18.156 12.656-13.374 26.25-25.99 39.59-38.682l38.288-36.528-147.928.018c-29.798-.006-33.152 4.384-32.67-26.124-25.364 16.868-50.976 44.202-75.814 63.554 12.576.142 25.168-.022 37.746-.052 10.14-.024 28.27-2.94 29.92 11.51.956 8.37-6.136 14.074-13.728 14.414-18.858.842-38.092.102-56.986.09-15.99-.012-46.226 6.916-46.942-14.494-.586-17.53-.116-35.23-.118-52.778l.052-157.832c-.02-13.702-5.922-36.784 11.99-38.336 11.69-1.014 25.422-.142 37.282-.14zm46.778-42.962c8.258 8.03 17.904 15.034 26.84 22.302l52.334 43.188c7.426 6.228 15.43 12.192 22.47 18.834 17.15-16.608 36.814-30.77 54.942-46.32l31.198-25.151c5.188-4.222 10.646-8.321 15.56-12.853zm225.074 15.988c-30.376 21.638-62.212 51.892-91.706 75.776-11.982 9.702-26.332 29.276-40.596 18.794-38.554-28.328-73.424-62.948-112.724-91.794l.002 131.908c-.002 22.076-.526 44.272-.002 66.332h225.89c-15.842-13.432-32.002-26.526-48.17-39.564-7.012-5.654-29.916-20.084-30.726-29.432-.924-10.646 9.91-19.396 19.716-13.212 24.2 15.26 54.204 45.52 78.316 64.04-.002-17.116.538-181.74 0-182.848M535.754 254.13h-21.11c12.918 15.568 47.514 40.712 64.026 54.968 3.872 3.272 7.688 6.698 11.788 9.682v-64.65zm-45.242 15.7v181.864c16.944-11.168 37.768-31.81 54.298-45.206 11.422-9.268 36.73-28.948 45.648-39.244-.084-4.6-.204-9.19 0-13.788-19.734-17.714-40.444-34.332-60.784-51.348l-26.894-22.312c-4.026-3.294-8.018-6.994-12.268-9.966"/><path fill="#D09602" d="M280.514 372.592c-10.412-7.578-34.056-32.872-11.684-40.952 11.534-4.166 14.62 6.684 20.312 13.488 31.726 37.912 104.082 1.25 86.306-46.706-13.192-35.588-61.948-28.798-69.418-51.038-3.822-11.384 3.064-22.342 13.89-25.786 12.538-1.164 14.134 7.564 14.09 17.988 11.35 4.128 23.332 7.852 33.81 13.912 62.138 35.932 40.898 113.306-28.286 130.844.084 6.846 1.55 17.198-3.702 22.412-5.228 5.19-14.79 5.142-19.842-.304-4.812-5.186-3.55-15.502-3.508-22.108-11.946-1.73-21.968-4.89-31.968-11.75"/><path fill="#D09602" d="M336.746 666.808c-59.436 5.286-111.904-38.612-117.19-98.048s38.612-111.904 98.048-117.188c59.436-5.286 111.902 38.61 117.188 98.046s-38.61 111.904-98.046 117.19m-17.472-189.094c-44.968 4.534-77.788 44.598-73.384 89.58 4.404 44.98 44.372 77.918 89.364 73.644 45.18-4.29 78.282-44.46 73.86-89.626s-44.688-78.152-89.84-73.598"/><path fill="#D09602" d="m474.926 876.536-272.768-.014c-53.07.014-67.54.328-67.294-53.962.15-33.018-.153-58.746 15.422-89.244 18.549-36.32 48.977-64.024 88.108-76.728 13.364-1.032 13.912 8.002 19.052 17.9 26.358 50.75 103.766 54.662 135.494 5.018 11.966-18.726 9.68-30.018 35.814-17.572 53.806 25.628 89.33 75.48 89.774 136.56l.052 25.226c-.012 33.13-6.17 53.136-43.654 52.816m-241.34-190.032c-59.128 31.696-72.51 73.314-72.62 135.242-.02 10.556-2.777 21.234 6.241 28.914 10.57.7 21.551.008 32.167.002l275.552-.002c7.222-.052 14.884-.434 16.774-8.818 1.78-7.894.832-35.71.732-45.592-.476-46.462-30.508-92.218-73.804-109.746-39.798 67.084-130.866 73.882-177.172 11.868-2.136-2.862-5.392-10.136-7.87-11.868"/></svg>