<?xml version="1.0" encoding="utf-8" ?>
<svg xmlns="http://www.w3.org/2000/svg" xmlns:xlink="http://www.w3.org/1999/xlink" width="1024" height="1024">
	<path fill="#D09602" transform="scale(2 2)" d="M249.198 119.225C212.643 111.074 215.7 57.5292 255.142 54.3534C274.799 52.6586 290.263 71.1861 288.97 90.4139C308.849 92.3357 328.648 102.01 345.686 112.2C346.259 84.8698 377.194 67.9898 398.907 84.8452C424.163 104.45 412.652 140.947 379.065 145.178C380.598 147.812 382.922 150.059 384.843 152.421C400.577 171.762 412.195 195.85 417.159 220.227C429.017 219.649 439.429 221.548 448.053 230.706C460.851 244.296 459.217 265.43 445.622 277.805C437.082 285.578 428.184 286.566 417.159 286.002C415.879 289.342 415.316 292.775 414.542 296.248C409.678 318.064 399.606 337.886 386.571 355.951C407.08 375.845 398.687 408.919 371.187 414.286C340.54 420.268 321.184 386.903 339.588 360.489C328.724 348.949 317.223 338.002 306.254 326.562C282.343 344.925 253.613 345.682 226.047 337.366C222.879 340.454 219.863 343.714 216.746 346.854L188.35 375.262C190.895 381.015 191.771 385.97 191.788 392.214C203.613 397.588 214.371 400.742 226.928 403.824C244.091 375.82 293.715 392.969 286.332 429.883C282.467 449.204 264.096 459.177 245.464 455.339C227.847 450.044 218.804 434.751 221.252 416.646C209.787 414.147 199.223 410.599 188.35 406.183C169.377 434.17 130.308 425.27 126.43 394.545C125.107 384.065 128.561 375.79 134.867 367.645C115.539 346.961 95.8218 315.118 93.202 286.002C82.2375 286.172 72.5709 284.29 64.5581 275.959C42.9985 253.544 59.2792 218.906 93.202 220.227C96.5205 195.253 115.344 162.397 132.72 145.178C112.989 115.907 144.199 81.9472 174.086 96.2854C211.811 114.384 185.346 176.052 143.333 154.468C125.651 174.468 110.144 198.735 106.59 225.687C115.219 233.141 119.197 236.296 121.509 248.73L169.444 248.73C175.002 204.689 204.149 173.896 249.198 169.205L249.199 135.512C249.196 130.122 248.822 124.588 249.198 119.225ZM254.472 68.4108Q254.01 68.4505 253.551 68.5128Q253.091 68.5752 252.635 68.6601Q252.179 68.745 251.728 68.8522Q251.277 68.9595 250.832 69.0888Q250.387 69.2181 249.948 69.3692Q249.51 69.5203 249.079 69.6928Q248.649 69.8652 248.228 70.0587Q247.806 70.2522 247.395 70.4662Q246.983 70.6801 246.583 70.9141Q246.183 71.1481 245.794 71.4015Q245.406 71.6549 245.031 71.9271Q244.655 72.1993 244.294 72.4896Q243.932 72.78 243.585 73.0878Q243.239 73.3956 242.907 73.7201Q242.576 74.0446 242.261 74.385Q241.947 74.7254 241.649 75.0809Q241.351 75.4364 241.071 75.8062Q240.791 76.1759 240.53 76.5589Q240.269 76.942 240.027 77.3374Q239.785 77.7329 239.562 78.1398Q239.34 78.5467 239.138 78.9641Q238.936 79.3814 238.754 79.8082Q238.573 80.235 238.413 80.6702Q238.253 81.1054 238.115 81.5479Q237.976 81.9905 237.86 82.4393Q237.743 82.8881 237.649 83.3421Q237.555 83.7961 237.483 84.2542Q237.411 84.7123 237.362 85.1734Q237.313 85.6345 237.287 86.0975Q237.26 86.5604 237.257 87.0241Q237.253 87.4877 237.273 87.951Q237.292 88.4143 237.334 88.8761Q237.376 89.3379 237.441 89.797Q237.506 90.2561 237.593 90.7115Q237.68 91.1669 237.79 91.6175Q237.899 92.068 238.031 92.5126Q238.163 92.9572 238.316 93.3948Q238.469 93.8324 238.644 94.2619Q238.819 94.6914 239.014 95.1118Q239.21 95.5321 239.426 95.9424Q239.642 96.3526 239.878 96.7517Q240.115 97.1508 240.37 97.5378Q240.625 97.9248 240.899 98.2987Q241.174 98.6727 241.466 99.0327Q241.758 99.3927 242.068 99.7379Q242.377 100.083 242.703 100.413Q243.03 100.742 243.372 101.055Q243.714 101.368 244.071 101.664Q244.428 101.96 244.799 102.238Q245.17 102.516 245.555 102.775Q245.939 103.034 246.336 103.274Q246.732 103.514 247.14 103.735Q247.549 103.955 247.967 104.155Q248.385 104.355 248.813 104.534Q249.241 104.713 249.677 104.871Q250.113 105.028 250.556 105.164Q250.999 105.301 251.449 105.415Q251.898 105.529 252.353 105.621Q252.807 105.712 253.266 105.782Q253.724 105.851 254.185 105.898Q254.647 105.945 255.11 105.969Q255.573 105.993 256.036 105.994Q256.5 105.995 256.963 105.973Q257.426 105.951 257.888 105.907Q258.346 105.863 258.802 105.796Q259.258 105.73 259.71 105.641Q260.162 105.552 260.609 105.441Q261.056 105.331 261.497 105.198Q261.938 105.066 262.373 104.912Q262.807 104.758 263.233 104.583Q263.659 104.408 264.076 104.212Q264.493 104.017 264.9 103.801Q265.307 103.585 265.703 103.35Q266.099 103.114 266.483 102.86Q266.867 102.605 267.238 102.332Q267.609 102.059 267.966 101.769Q268.323 101.478 268.666 101.17Q269.008 100.862 269.335 100.538Q269.663 100.214 269.973 99.8737Q270.284 99.5338 270.578 99.1791Q270.872 98.8244 271.148 98.4558Q271.424 98.0871 271.682 97.7054Q271.94 97.3237 272.179 96.9299Q272.418 96.536 272.637 96.131Q272.856 95.7259 273.056 95.3106Q273.255 94.8953 273.433 94.4708Q273.612 94.0462 273.77 93.6135Q273.928 93.1807 274.064 92.7407Q274.2 92.3008 274.315 91.8546Q274.43 91.4085 274.522 90.9573Q274.615 90.5062 274.686 90.051Q274.756 89.5958 274.804 89.1377Q274.853 88.6796 274.878 88.2197Q274.904 87.7598 274.907 87.2992Q274.91 86.8386 274.891 86.3784Q274.872 85.9182 274.83 85.4595Q274.788 85.0008 274.724 84.5447Q274.66 84.0886 274.573 83.6362Q274.487 83.1837 274.379 82.7361Q274.27 82.2884 274.14 81.8466Q274.01 81.4048 273.858 80.9698Q273.707 80.5349 273.534 80.1079Q273.361 79.6809 273.168 79.2629Q272.974 78.8449 272.761 78.4368Q272.547 78.0287 272.314 77.6316Q272.08 77.2345 271.828 76.8492Q271.575 76.4639 271.304 76.0915Q271.033 75.7191 270.745 75.3603Q270.456 75.0016 270.15 74.6574Q269.844 74.3132 269.521 73.9844Q269.198 73.6556 268.86 73.3429Q268.522 73.0303 268.169 72.7345Q267.816 72.4388 267.448 72.1607Q267.081 71.8826 266.701 71.6228Q266.321 71.363 265.928 71.1221Q265.535 70.8812 265.132 70.6597Q264.728 70.4383 264.313 70.2369Q263.899 70.0355 263.476 69.8546Q263.052 69.6737 262.62 69.5137Q262.188 69.3538 261.749 69.2151Q261.31 69.0765 260.864 68.9595Q260.419 68.8424 259.968 68.7474Q259.517 68.6523 259.063 68.5793Q258.608 68.5064 258.15 68.4558Q257.692 68.4052 257.232 68.3771Q256.773 68.3489 256.312 68.3433Q255.852 68.3376 255.391 68.3545Q254.931 68.3714 254.472 68.4108ZM378.24 92.5733Q377.771 92.5887 377.304 92.6271Q376.836 92.6655 376.371 92.7269Q375.906 92.7882 375.444 92.8724Q374.983 92.9565 374.526 93.0633Q374.069 93.17 373.618 93.2991Q373.167 93.4282 372.723 93.5793Q372.279 93.7304 371.843 93.9032Q371.406 94.076 370.979 94.27Q370.552 94.464 370.135 94.6788Q369.718 94.8936 369.312 95.1286Q368.906 95.3637 368.512 95.6184Q368.118 95.8731 367.737 96.1469Q367.356 96.4207 366.989 96.7129Q366.622 97.0051 366.27 97.315Q365.918 97.6249 365.581 97.9517Q365.244 98.2785 364.924 98.6216Q364.604 98.9645 364.301 99.3229Q363.999 99.6812 363.714 100.054Q363.429 100.427 363.163 100.813Q362.897 101.199 362.65 101.598Q362.403 101.997 362.176 102.408Q361.949 102.819 361.743 103.24Q361.536 103.661 361.351 104.092Q361.165 104.523 361.001 104.962Q360.837 105.402 360.695 105.849Q360.553 106.296 360.433 106.75Q360.313 107.203 360.215 107.662Q360.117 108.121 360.042 108.584Q359.967 109.047 359.915 109.513Q359.863 109.979 359.834 110.448Q359.805 110.916 359.799 111.385Q359.793 111.854 359.81 112.323Q359.827 112.792 359.867 113.259Q359.907 113.727 359.97 114.192Q360.033 114.656 360.119 115.118Q360.205 115.579 360.313 116.035Q360.421 116.492 360.552 116.942Q360.683 117.393 360.836 117.836Q360.988 118.28 361.163 118.716Q361.337 119.151 361.532 119.577Q361.728 120.004 361.944 120.42Q362.16 120.837 362.397 121.242Q362.633 121.647 362.889 122.04Q363.146 122.433 363.421 122.813Q363.696 123.193 363.989 123.559Q364.283 123.925 364.594 124.276Q364.905 124.627 365.233 124.963Q365.561 125.298 365.905 125.617Q366.249 125.936 366.608 126.237Q366.968 126.539 367.342 126.822Q367.715 127.106 368.103 127.371Q368.49 127.635 368.89 127.881Q369.29 128.126 369.701 128.352Q370.112 128.577 370.534 128.782Q370.956 128.987 371.388 129.171Q371.819 129.355 372.259 129.517Q372.7 129.68 373.147 129.821Q373.595 129.961 374.049 130.08Q374.502 130.198 374.962 130.294Q375.421 130.39 375.884 130.464Q376.348 130.537 376.814 130.588Q377.28 130.638 377.749 130.665Q378.217 130.693 378.686 130.697Q379.155 130.702 379.624 130.683Q380.091 130.664 380.556 130.623Q381.021 130.582 381.484 130.517Q381.946 130.453 382.405 130.366Q382.864 130.28 383.318 130.171Q383.772 130.062 384.221 129.93Q384.669 129.799 385.11 129.646Q385.551 129.493 385.984 129.319Q386.418 129.144 386.842 128.949Q387.266 128.754 387.68 128.538Q388.094 128.322 388.497 128.086Q388.9 127.85 389.291 127.594Q389.682 127.339 390.06 127.065Q390.439 126.791 390.803 126.498Q391.167 126.206 391.516 125.896Q391.866 125.586 392.199 125.259Q392.533 124.933 392.851 124.59Q393.168 124.248 393.468 123.89Q393.769 123.532 394.051 123.16Q394.333 122.788 394.597 122.403Q394.861 122.017 395.106 121.62Q395.35 121.222 395.575 120.812Q395.8 120.403 396.005 119.983Q396.209 119.564 396.393 119.134Q396.577 118.705 396.74 118.267Q396.902 117.829 397.043 117.384Q397.184 116.939 397.303 116.487Q397.422 116.035 397.518 115.578Q397.615 115.122 397.689 114.66Q397.764 114.199 397.815 113.735Q397.867 113.271 397.895 112.805Q397.924 112.339 397.93 111.872Q397.936 111.405 397.919 110.938Q397.902 110.471 397.862 110.006Q397.822 109.541 397.76 109.078Q397.697 108.615 397.612 108.156Q397.527 107.697 397.42 107.242Q397.312 106.788 397.183 106.339Q397.053 105.89 396.902 105.449Q396.75 105.007 396.577 104.573Q396.405 104.139 396.211 103.714Q396.017 103.289 395.802 102.875Q395.588 102.46 395.353 102.056Q395.119 101.652 394.865 101.26Q394.611 100.868 394.338 100.489Q394.065 100.11 393.774 99.745Q393.483 99.3798 393.174 99.0293Q392.866 98.6788 392.54 98.3439Q392.215 98.0089 391.873 97.6903Q391.532 97.3716 391.175 97.0701Q390.819 96.7686 390.448 96.4849Q390.077 96.2012 389.692 95.936Q389.308 95.6707 388.911 95.4247Q388.514 95.1786 388.106 94.9523Q387.697 94.7259 387.278 94.5198Q386.859 94.3138 386.43 94.1284Q386.002 93.9431 385.564 93.779Q385.127 93.6149 384.682 93.4724Q384.238 93.3299 383.786 93.2094Q383.335 93.0888 382.879 92.9905Q382.422 92.8922 381.961 92.8163Q381.501 92.7404 381.037 92.6872Q380.573 92.634 380.107 92.6036Q379.641 92.5732 379.174 92.5656Q378.707 92.558 378.24 92.5733ZM284.74 103.67C279.387 111.491 272.748 117.357 263.182 119.225C262.948 135.862 263.088 152.564 263.182 169.205C275.119 171.295 281.27 173.239 292.599 177.304C296.333 173.035 301.969 166.743 306.254 163.202C317.444 150.451 330.572 139.358 341.801 126.637C324.973 115.242 304.996 106.583 284.74 103.67ZM158.252 107.394Q157.795 107.426 157.34 107.481Q156.886 107.536 156.434 107.613Q155.983 107.69 155.536 107.789Q155.089 107.889 154.647 108.01Q154.205 108.131 153.77 108.274Q153.335 108.416 152.907 108.58Q152.479 108.744 152.06 108.929Q151.641 109.114 151.232 109.319Q150.822 109.524 150.424 109.75Q150.025 109.975 149.637 110.219Q149.25 110.464 148.875 110.727Q148.501 110.99 148.139 111.272Q147.778 111.553 147.431 111.852Q147.084 112.151 146.752 112.467Q146.42 112.782 146.104 113.114Q145.788 113.445 145.489 113.792Q145.189 114.139 144.908 114.5Q144.626 114.861 144.362 115.235Q144.098 115.61 143.853 115.997Q143.608 116.384 143.383 116.782Q143.157 117.181 142.951 117.59Q142.746 117.999 142.56 118.418Q142.375 118.837 142.211 119.264Q142.046 119.692 141.903 120.127Q141.76 120.562 141.638 121.004Q141.516 121.445 141.417 121.892Q141.317 122.339 141.239 122.79Q141.162 123.242 141.106 123.697Q141.051 124.151 141.018 124.608Q140.985 125.065 140.975 125.523Q140.965 125.981 140.977 126.438Q140.989 126.896 141.024 127.353Q141.059 127.81 141.116 128.264Q141.173 128.719 141.253 129.17Q141.332 129.621 141.434 130.067Q141.535 130.514 141.659 130.955Q141.782 131.396 141.928 131.83Q142.073 132.265 142.239 132.692Q142.405 133.118 142.592 133.536Q142.779 133.954 142.987 134.363Q143.194 134.771 143.421 135.169Q143.649 135.566 143.895 135.952Q144.142 136.338 144.407 136.712Q144.672 137.085 144.956 137.445Q145.239 137.805 145.54 138.15Q145.841 138.496 146.158 138.826Q146.475 139.156 146.809 139.47Q147.142 139.785 147.49 140.082Q147.839 140.379 148.201 140.659Q148.564 140.939 148.939 141.201Q149.315 141.463 149.704 141.706Q150.092 141.948 150.492 142.172Q150.891 142.395 151.302 142.599Q151.712 142.802 152.132 142.985Q152.552 143.169 152.98 143.331Q153.408 143.493 153.844 143.634Q154.28 143.775 154.722 143.894Q155.164 144.013 155.612 144.111Q156.06 144.208 156.511 144.283Q156.963 144.358 157.418 144.411Q157.873 144.464 158.33 144.494Q158.787 144.525 159.245 144.533Q159.703 144.541 160.161 144.526Q160.618 144.511 161.075 144.474Q161.528 144.437 161.979 144.378Q162.431 144.319 162.878 144.238Q163.326 144.157 163.769 144.054Q164.212 143.951 164.65 143.827Q165.087 143.702 165.518 143.557Q165.949 143.411 166.372 143.244Q166.796 143.078 167.21 142.891Q167.625 142.704 168.03 142.497Q168.435 142.29 168.83 142.063Q169.224 141.836 169.607 141.591Q169.99 141.345 170.36 141.081Q170.73 140.817 171.087 140.535Q171.444 140.253 171.787 139.954Q172.13 139.655 172.458 139.339Q172.786 139.024 173.098 138.693Q173.41 138.362 173.705 138.016Q174 137.67 174.279 137.31Q174.557 136.95 174.817 136.577Q175.077 136.204 175.319 135.818Q175.56 135.433 175.783 135.036Q176.005 134.639 176.208 134.232Q176.411 133.825 176.594 133.408Q176.776 132.992 176.938 132.566Q177.1 132.141 177.242 131.709Q177.383 131.276 177.502 130.838Q177.622 130.399 177.72 129.955Q177.819 129.51 177.895 129.062Q177.971 128.614 178.026 128.162Q178.08 127.71 178.112 127.256Q178.144 126.803 178.154 126.348Q178.164 125.893 178.152 125.438Q178.14 124.984 178.105 124.53Q178.07 124.076 178.014 123.625Q177.957 123.174 177.878 122.726Q177.8 122.278 177.699 121.834Q177.599 121.39 177.477 120.952Q177.355 120.514 177.211 120.082Q177.068 119.65 176.904 119.226Q176.739 118.802 176.555 118.386Q176.37 117.971 176.165 117.565Q175.96 117.158 175.735 116.763Q175.511 116.367 175.267 115.983Q175.023 115.599 174.761 115.227Q174.499 114.855 174.219 114.497Q173.939 114.138 173.642 113.794Q173.345 113.449 173.031 113.12Q172.717 112.79 172.388 112.477Q172.059 112.163 171.714 111.866Q171.37 111.569 171.011 111.289Q170.653 111.008 170.281 110.746Q169.909 110.484 169.525 110.24Q169.141 109.997 168.745 109.772Q168.35 109.548 167.944 109.343Q167.538 109.138 167.122 108.953Q166.706 108.768 166.282 108.603Q165.858 108.439 165.426 108.296Q164.995 108.152 164.556 108.03Q164.118 107.908 163.674 107.807Q163.231 107.707 162.783 107.628Q162.335 107.549 161.883 107.493Q161.432 107.436 160.978 107.401Q160.525 107.367 160.07 107.354Q159.615 107.342 159.161 107.352Q158.706 107.362 158.252 107.394ZM354.243 134.458C344.47 143.198 335.679 153.005 326.533 162.385C319.349 169.754 311.514 176.82 304.765 184.585C308.587 187.205 311.715 190.288 315.256 193.212L315.714 193.057C331.84 177.167 350.13 159.251 365.273 142.426C360.335 139.545 358.299 137.331 354.243 134.458ZM370.19 157.425C359.414 168.037 348.956 179.047 338.448 189.926C334.038 194.492 329.05 198.749 324.956 203.584C333.72 219.2 341.25 228.869 341.801 248.73C347.533 248.919 353.295 248.711 359.032 248.73L379.619 248.716C383.155 248.709 386.725 248.522 390.254 248.73C392.015 238.048 395.983 232.485 404.184 225.687C400.237 208.234 384.819 168.73 370.19 157.425ZM249.311 183.594Q247.536 183.755 245.772 184.003Q244.007 184.251 242.257 184.585Q240.507 184.919 238.775 185.339Q237.043 185.759 235.334 186.263Q233.625 186.767 231.942 187.354Q230.26 187.941 228.609 188.61Q226.957 189.28 225.34 190.029Q223.724 190.778 222.146 191.606Q220.568 192.434 219.032 193.338Q217.497 194.242 216.008 195.22Q214.518 196.199 213.079 197.249Q211.639 198.299 210.253 199.419Q208.867 200.539 207.537 201.725Q206.207 202.911 204.938 204.161Q203.668 205.411 202.461 206.722Q201.254 208.033 200.112 209.401Q198.971 210.77 197.898 212.193Q196.826 213.615 195.824 215.089Q194.822 216.563 193.894 218.084Q192.966 219.605 192.114 221.17Q191.261 222.735 190.487 224.339Q189.712 225.944 189.017 227.585Q188.322 229.226 187.708 230.899Q187.095 232.572 186.564 234.272Q186.033 235.973 185.586 237.698Q185.139 239.423 184.778 241.168Q184.416 242.913 184.14 244.674Q183.865 246.434 183.676 248.206Q183.487 249.978 183.385 251.757Q183.283 253.536 183.269 255.318Q183.255 257.099 183.328 258.88Q183.401 260.66 183.561 262.435Q183.721 264.21 183.968 265.974Q184.216 267.739 184.549 269.49Q184.882 271.24 185.301 272.972Q185.72 274.704 186.224 276.413Q186.727 278.123 187.313 279.805Q187.9 281.488 188.568 283.14Q189.237 284.791 189.986 286.409Q190.734 288.026 191.561 289.604Q192.388 291.182 193.292 292.718Q194.195 294.254 195.173 295.744Q196.151 297.233 197.2 298.673Q198.25 300.113 199.369 301.5Q200.488 302.887 201.674 304.217Q202.86 305.547 204.109 306.817Q205.359 308.088 206.669 309.295Q207.979 310.503 209.347 311.645Q210.715 312.787 212.138 313.86Q213.56 314.933 215.033 315.936Q216.507 316.938 218.027 317.867Q219.548 318.796 221.112 319.649Q222.677 320.502 224.281 321.277Q225.886 322.053 227.526 322.748Q229.167 323.444 230.839 324.058Q232.512 324.673 234.213 325.204Q235.913 325.736 237.638 326.183Q239.363 326.631 241.108 326.993Q242.852 327.356 244.613 327.632Q246.373 327.908 248.145 328.098Q249.917 328.288 251.696 328.39Q253.475 328.493 255.256 328.508Q257.038 328.523 258.819 328.451Q260.599 328.379 262.374 328.219Q264.15 328.059 265.915 327.813Q267.681 327.566 269.433 327.233Q271.184 326.9 272.917 326.482Q274.65 326.063 276.361 325.56Q278.071 325.057 279.755 324.471Q281.439 323.884 283.092 323.216Q284.745 322.548 286.363 321.799Q287.981 321.05 289.56 320.223Q291.139 319.396 292.676 318.492Q294.213 317.589 295.704 316.611Q297.195 315.633 298.635 314.582Q300.076 313.532 301.464 312.413Q302.852 311.293 304.183 310.107Q305.514 308.921 306.785 307.671Q308.056 306.421 309.264 305.11Q310.472 303.799 311.615 302.43Q312.757 301.061 313.831 299.638Q314.905 298.215 315.908 296.741Q316.911 295.266 317.84 293.745Q318.769 292.223 319.622 290.658Q320.476 289.092 321.251 287.487Q322.027 285.882 322.723 284.24Q323.419 282.599 324.033 280.925Q324.647 279.251 325.179 277.549Q325.71 275.848 326.158 274.122Q326.605 272.396 326.967 270.65Q327.329 268.905 327.605 267.143Q327.881 265.382 328.07 263.609Q328.26 261.836 328.362 260.056Q328.464 258.276 328.478 256.493Q328.492 254.71 328.419 252.929Q328.346 251.148 328.186 249.372Q328.026 247.596 327.778 245.831Q327.531 244.065 327.197 242.314Q326.864 240.562 326.444 238.829Q326.025 237.097 325.521 235.386Q325.017 233.676 324.43 231.993Q323.843 230.309 323.174 228.657Q322.505 227.004 321.756 225.386Q321.006 223.769 320.178 222.19Q319.351 220.611 318.446 219.074Q317.542 217.538 316.563 216.047Q315.585 214.557 314.534 213.117Q313.483 211.676 312.363 210.289Q311.243 208.902 310.056 207.571Q308.869 206.241 307.619 204.97Q306.368 203.7 305.057 202.492Q303.745 201.284 302.376 200.142Q301.007 199.001 299.583 197.927Q298.159 196.854 296.685 195.852Q295.21 194.85 293.688 193.921Q292.166 192.993 290.6 192.14Q289.035 191.287 287.429 190.512Q285.823 189.738 284.181 189.042Q282.54 188.347 280.866 187.734Q279.192 187.12 277.49 186.589Q275.788 186.058 274.062 185.612Q272.336 185.165 270.59 184.804Q268.844 184.442 267.082 184.167Q265.321 183.892 263.548 183.703Q261.775 183.515 259.995 183.414Q258.215 183.313 256.432 183.299Q254.649 183.285 252.868 183.359Q251.087 183.433 249.311 183.594ZM419.66 234.291Q419.199 234.379 418.742 234.49Q418.286 234.602 417.835 234.735Q417.385 234.868 416.941 235.023Q416.498 235.179 416.063 235.355Q415.627 235.532 415.201 235.73Q414.775 235.928 414.36 236.147Q413.944 236.365 413.539 236.604Q413.135 236.843 412.742 237.101Q412.35 237.36 411.971 237.637Q411.592 237.915 411.226 238.21Q410.861 238.506 410.511 238.819Q410.161 239.132 409.827 239.462Q409.492 239.792 409.174 240.138Q408.857 240.484 408.556 240.845Q408.256 241.206 407.974 241.582Q407.691 241.957 407.428 242.346Q407.164 242.735 406.92 243.137Q406.676 243.538 406.452 243.951Q406.228 244.364 406.024 244.787Q405.821 245.211 405.638 245.643Q405.455 246.076 405.294 246.518Q405.133 246.959 404.994 247.408Q404.855 247.856 404.738 248.311Q404.621 248.766 404.526 249.226Q404.432 249.687 404.36 250.151Q404.288 250.615 404.239 251.082Q404.19 251.549 404.164 252.019Q404.138 252.488 404.135 252.957Q404.132 253.427 404.152 253.897Q404.173 254.366 404.216 254.834Q404.259 255.301 404.325 255.767Q404.391 256.232 404.48 256.693Q404.569 257.154 404.68 257.611Q404.792 258.067 404.925 258.517Q405.059 258.968 405.215 259.411Q405.37 259.854 405.547 260.289Q405.725 260.725 405.923 261.15Q406.121 261.576 406.34 261.992Q406.559 262.408 406.799 262.812Q407.038 263.216 407.296 263.608Q407.555 264.001 407.833 264.379Q408.11 264.758 408.406 265.123Q408.702 265.488 409.016 265.838Q409.329 266.188 409.659 266.522Q409.99 266.856 410.336 267.174Q410.682 267.491 411.044 267.791Q411.405 268.091 411.781 268.373Q412.157 268.655 412.546 268.918Q412.935 269.182 413.336 269.426Q413.738 269.669 414.151 269.893Q414.564 270.117 414.988 270.32Q415.411 270.523 415.844 270.705Q416.277 270.888 416.719 271.048Q417.16 271.209 417.609 271.348Q418.058 271.487 418.513 271.603Q418.968 271.72 419.428 271.814Q419.889 271.908 420.353 271.98Q420.817 272.051 421.284 272.1Q421.752 272.148 422.221 272.174Q422.69 272.199 423.16 272.202Q423.629 272.205 424.099 272.184Q424.568 272.163 425.036 272.12Q425.504 272.076 425.969 272.01Q426.434 271.943 426.895 271.854Q427.356 271.765 427.812 271.653Q428.267 271.542 428.717 271.408Q429.167 271.274 429.61 271.118Q430.052 270.962 430.487 270.785Q430.921 270.608 431.347 270.41Q431.772 270.211 432.187 269.992Q432.602 269.773 433.006 269.534Q433.41 269.295 433.802 269.036Q434.193 268.778 434.572 268.5Q434.95 268.223 435.315 267.927Q435.679 267.632 436.028 267.318Q436.378 267.005 436.711 266.675Q437.045 266.345 437.362 265.999Q437.679 265.653 437.979 265.292Q438.279 264.931 438.561 264.556Q438.842 264.18 439.105 263.792Q439.368 263.403 439.612 263.002Q439.855 262.601 440.079 262.188Q440.302 261.775 440.505 261.352Q440.709 260.929 440.891 260.497Q441.073 260.064 441.233 259.623Q441.394 259.182 441.533 258.734Q441.672 258.286 441.788 257.831Q441.905 257.377 441.999 256.917Q442.094 256.457 442.165 255.993Q442.237 255.53 442.286 255.063Q442.334 254.596 442.36 254.128Q442.386 253.659 442.389 253.19Q442.392 252.72 442.371 252.252Q442.351 251.783 442.308 251.315Q442.265 250.848 442.199 250.383Q442.133 249.919 442.044 249.458Q441.955 248.997 441.844 248.541Q441.733 248.085 441.599 247.635Q441.466 247.186 441.31 246.743Q441.155 246.3 440.978 245.865Q440.801 245.431 440.603 245.005Q440.405 244.58 440.186 244.164Q439.968 243.749 439.729 243.345Q439.49 242.941 439.232 242.549Q438.974 242.157 438.697 241.779Q438.419 241.4 438.124 241.035Q437.829 240.671 437.516 240.321Q437.203 239.971 436.873 239.637Q436.543 239.303 436.198 238.986Q435.852 238.669 435.491 238.369Q435.13 238.069 434.755 237.787Q434.38 237.505 433.991 237.241Q433.603 236.978 433.202 236.734Q432.801 236.49 432.388 236.266Q431.976 236.042 431.553 235.839Q431.13 235.636 430.698 235.453Q430.265 235.271 429.825 235.11Q429.384 234.949 428.936 234.81Q428.487 234.67 428.033 234.553Q427.579 234.436 427.119 234.342Q426.659 234.247 426.195 234.175Q425.732 234.103 425.265 234.054Q424.798 234.005 424.33 233.979Q423.861 233.952 423.392 233.949Q422.923 233.946 422.454 233.966Q421.985 233.986 421.518 234.028Q421.05 234.071 420.586 234.137Q420.121 234.203 419.66 234.291ZM86.2672 234.572Q85.809 234.63 85.3543 234.71Q84.8995 234.79 84.4492 234.893Q83.9989 234.995 83.5543 235.12Q83.1096 235.244 82.6716 235.39Q82.2336 235.537 81.8033 235.704Q81.373 235.872 80.9515 236.061Q80.53 236.249 80.1183 236.458Q79.7065 236.667 79.3056 236.897Q78.9047 237.126 78.5156 237.374Q78.1264 237.623 77.75 237.89Q77.3735 238.158 77.0107 238.444Q76.6479 238.729 76.2995 239.032Q75.9512 239.336 75.6182 239.656Q75.2853 239.976 74.9685 240.312Q74.6516 240.648 74.3517 240.999Q74.0518 241.35 73.7696 241.715Q73.4873 242.081 73.2234 242.46Q72.9595 242.839 72.7146 243.23Q72.4696 243.622 72.2442 244.025Q72.0189 244.428 71.8136 244.841Q71.6083 245.255 71.4237 245.678Q71.239 246.102 71.0754 246.533Q70.9118 246.965 70.7697 247.405Q70.6276 247.844 70.5072 248.29Q70.3869 248.736 70.2886 249.187Q70.1904 249.638 70.1145 250.094Q70.0385 250.549 69.9851 251.008Q69.9317 251.467 69.901 251.927Q69.8702 252.388 69.8622 252.85Q69.8541 253.311 69.8688 253.773Q69.8835 254.235 69.9209 254.695Q69.9583 255.155 70.0183 255.613Q70.0783 256.071 70.1608 256.525Q70.2433 256.98 70.348 257.429Q70.4528 257.879 70.5795 258.323Q70.7063 258.767 70.8547 259.204Q71.0032 259.642 71.173 260.071Q71.3428 260.501 71.5335 260.921Q71.7243 261.342 71.9355 261.752Q72.1467 262.163 72.3779 262.563Q72.609 262.963 72.8596 263.35Q73.1102 263.738 73.3795 264.113Q73.6488 264.488 73.9363 264.85Q74.2238 265.211 74.5288 265.558Q74.8337 265.905 75.1553 266.236Q75.4769 266.568 75.8145 266.883Q76.152 267.198 76.5047 267.496Q76.8574 267.794 77.2243 268.075Q77.5912 268.355 77.9714 268.617Q78.3517 268.879 78.7444 269.122Q79.1371 269.365 79.5412 269.588Q79.9454 269.812 80.3601 270.015Q80.7748 270.218 81.199 270.4Q81.6232 270.583 82.0558 270.744Q82.4885 270.906 82.9285 271.046Q83.3686 271.186 83.815 271.304Q84.2615 271.422 84.7132 271.518Q85.1649 271.614 85.6207 271.688Q86.0766 271.761 86.5356 271.812Q86.9945 271.863 87.4554 271.892Q87.9163 271.92 88.3781 271.926Q88.8398 271.932 89.3013 271.915Q89.7628 271.898 90.2228 271.858Q90.6829 271.818 91.1405 271.756Q91.5952 271.694 92.0462 271.61Q92.4973 271.526 92.9437 271.42Q93.3901 271.314 93.8308 271.186Q94.2715 271.058 94.7055 270.909Q95.1394 270.76 95.5655 270.59Q95.9916 270.42 96.4089 270.229Q96.8262 270.038 97.2336 269.827Q97.6411 269.616 98.0377 269.385Q98.4343 269.155 98.8192 268.905Q99.2041 268.655 99.5763 268.387Q99.9485 268.119 100.307 267.832Q100.666 267.546 101.01 267.243Q101.354 266.939 101.683 266.619Q102.012 266.3 102.325 265.964Q102.638 265.628 102.934 265.278Q103.23 264.927 103.509 264.563Q103.787 264.198 104.048 263.82Q104.308 263.443 104.55 263.053Q104.792 262.663 105.014 262.261Q105.236 261.86 105.439 261.448Q105.641 261.036 105.823 260.615Q106.005 260.194 106.166 259.764Q106.328 259.335 106.468 258.898Q106.608 258.461 106.726 258.018Q106.845 257.574 106.941 257.126Q107.038 256.677 107.112 256.224Q107.187 255.772 107.239 255.316Q107.292 254.86 107.322 254.402Q107.352 253.944 107.359 253.486Q107.367 253.027 107.352 252.568Q107.337 252.11 107.3 251.652Q107.263 251.195 107.203 250.74Q107.143 250.285 107.062 249.834Q106.98 249.382 106.876 248.935Q106.772 248.488 106.647 248.047Q106.521 247.605 106.374 247.171Q106.227 246.736 106.059 246.309Q105.891 245.882 105.702 245.464Q105.514 245.046 105.305 244.637Q105.096 244.229 104.867 243.831Q104.638 243.433 104.391 243.047Q104.143 242.661 103.876 242.287Q103.61 241.914 103.325 241.553Q103.041 241.193 102.739 240.848Q102.437 240.502 102.119 240.171Q101.801 239.841 101.467 239.526Q101.133 239.212 100.784 238.914Q100.435 238.616 100.072 238.335Q99.7086 238.055 99.3322 237.793Q98.9557 237.53 98.5669 237.287Q98.178 237.043 97.7778 236.819Q97.3775 236.594 96.9667 236.39Q96.5559 236.185 96.1356 236.001Q95.7154 235.817 95.2866 235.654Q94.8578 235.49 94.4215 235.348Q93.9853 235.206 93.5426 235.085Q93.0999 234.965 92.6518 234.866Q92.2037 234.767 91.7513 234.69Q91.299 234.613 90.8434 234.558Q90.3878 234.504 89.9301 234.471Q89.4724 234.439 89.0136 234.429Q88.5549 234.419 88.0962 234.432Q87.6375 234.445 87.18 234.48Q86.7225 234.515 86.2672 234.572ZM342.332 262.707C341.592 263.462 341.188 270.783 340.921 272.327C337.88 289.884 329.004 304.233 317.185 317.365C328.338 328.711 339.295 340.269 350.559 351.507C355.019 349.993 359.584 348.432 364.355 348.426C366.34 348.423 373.434 349.754 374.231 349.539C376.708 345.729 379.503 342.156 381.894 338.284C394.689 317.558 398.879 302.549 403.351 279.651C397.703 275.239 393.412 269.637 391.313 262.707L358.101 262.698C352.932 262.695 347.455 262.273 342.332 262.707ZM120.381 262.707C117.17 271.752 114.165 275.529 106.59 281.423C112.82 312.159 123.252 337.267 147.057 359.405C159.65 355.25 168.643 357.54 179.364 364.032C182.307 361.36 185.14 358.277 188.35 355.951C193.817 348.918 205.678 337.273 212.679 331.079C188.006 314.03 171.716 294.583 169.444 262.707L120.381 262.707ZM361.814 362.95Q361.355 363.027 360.901 363.126Q360.447 363.226 359.998 363.347Q359.55 363.469 359.107 363.612Q358.665 363.756 358.23 363.92Q357.796 364.085 357.37 364.272Q356.944 364.458 356.527 364.664Q356.111 364.871 355.705 365.098Q355.299 365.325 354.905 365.572Q354.511 365.819 354.13 366.084Q353.748 366.35 353.38 366.634Q353.012 366.918 352.659 367.22Q352.305 367.522 351.967 367.841Q351.628 368.16 351.306 368.495Q350.984 368.83 350.678 369.181Q350.373 369.531 350.085 369.896Q349.797 370.261 349.528 370.64Q349.258 371.019 349.008 371.411Q348.757 371.802 348.526 372.206Q348.295 372.609 348.084 373.023Q347.873 373.438 347.682 373.862Q347.492 374.286 347.323 374.719Q347.153 375.152 347.005 375.593Q346.857 376.033 346.731 376.481Q346.605 376.928 346.501 377.382Q346.398 377.835 346.316 378.292Q346.234 378.75 346.175 379.211Q346.117 379.673 346.08 380.136Q346.044 380.6 346.031 381.064Q346.017 381.529 346.027 381.994Q346.036 382.459 346.068 382.922Q346.1 383.386 346.155 383.848Q346.21 384.31 346.288 384.768Q346.366 385.226 346.466 385.68Q346.566 386.135 346.688 386.583Q346.81 387.032 346.954 387.474Q347.098 387.916 347.264 388.35Q347.429 388.785 347.616 389.21Q347.803 389.636 348.01 390.052Q348.217 390.468 348.445 390.874Q348.673 391.279 348.92 391.673Q349.167 392.067 349.433 392.448Q349.7 392.829 349.984 393.197Q350.269 393.564 350.571 393.917Q350.874 394.271 351.193 394.608Q351.512 394.946 351.848 395.268Q352.184 395.59 352.534 395.895Q352.885 396.2 353.251 396.487Q353.617 396.774 353.996 397.043Q354.375 397.312 354.767 397.562Q355.159 397.812 355.562 398.043Q355.966 398.274 356.381 398.484Q356.795 398.694 357.22 398.884Q357.644 399.074 358.077 399.243Q358.511 399.411 358.952 399.559Q359.393 399.706 359.84 399.831Q360.288 399.957 360.741 400.06Q361.195 400.163 361.652 400.244Q362.11 400.325 362.572 400.383Q363.033 400.442 363.496 400.477Q363.96 400.513 364.425 400.526Q364.889 400.538 365.354 400.528Q365.819 400.518 366.283 400.485Q366.747 400.452 367.208 400.397Q367.67 400.341 368.128 400.263Q368.585 400.185 369.039 400.084Q369.492 399.984 369.939 399.862Q370.387 399.739 370.828 399.595Q371.269 399.45 371.703 399.285Q372.136 399.119 372.561 398.932Q372.986 398.745 373.401 398.538Q373.816 398.331 374.22 398.103Q374.625 397.876 375.018 397.629Q375.411 397.381 375.791 397.115Q376.171 396.849 376.538 396.565Q376.905 396.281 377.257 395.979Q377.609 395.677 377.947 395.358Q378.284 395.039 378.605 394.704Q378.926 394.369 379.23 394.018Q379.535 393.668 379.821 393.303Q380.108 392.938 380.377 392.56Q380.645 392.181 380.895 391.79Q381.145 391.399 381.375 390.996Q381.605 390.593 381.815 390.179Q382.025 389.765 382.215 389.342Q382.405 388.918 382.573 388.486Q382.742 388.054 382.889 387.613Q383.036 387.173 383.162 386.727Q383.287 386.28 383.391 385.827Q383.494 385.375 383.575 384.918Q383.656 384.461 383.715 384.001Q383.773 383.54 383.809 383.078Q383.845 382.615 383.859 382.151Q383.872 381.687 383.862 381.223Q383.853 380.759 383.82 380.296Q383.788 379.833 383.733 379.372Q383.678 378.912 383.601 378.454Q383.524 377.996 383.424 377.543Q383.324 377.09 383.202 376.642Q383.08 376.194 382.937 375.753Q382.793 375.312 382.628 374.878Q382.463 374.444 382.277 374.019Q382.09 373.594 381.884 373.179Q381.677 372.763 381.45 372.359Q381.223 371.954 380.976 371.56Q380.73 371.167 380.464 370.787Q380.199 370.406 379.915 370.039Q379.631 369.672 379.33 369.319Q379.028 368.966 378.71 368.628Q378.391 368.291 378.057 367.969Q377.722 367.648 377.372 367.343Q377.022 367.038 376.658 366.751Q376.293 366.463 375.915 366.194Q375.537 365.925 375.146 365.675Q374.756 365.425 374.353 365.194Q373.95 364.963 373.537 364.753Q373.123 364.542 372.7 364.352Q372.277 364.161 371.844 363.992Q371.412 363.823 370.972 363.675Q370.533 363.527 370.086 363.401Q369.639 363.275 369.187 363.171Q368.735 363.067 368.278 362.985Q367.821 362.903 367.361 362.844Q366.901 362.785 366.438 362.748Q365.975 362.712 365.511 362.698Q365.048 362.684 364.583 362.693Q364.12 362.702 363.657 362.733Q363.194 362.765 362.733 362.819Q362.272 362.873 361.814 362.95ZM156.842 371.591Q156.384 371.648 155.93 371.728Q155.475 371.807 155.025 371.909Q154.575 372.011 154.131 372.135Q153.686 372.259 153.248 372.404Q152.81 372.55 152.38 372.717Q151.95 372.884 151.529 373.072Q151.107 373.26 150.696 373.468Q150.284 373.677 149.883 373.905Q149.482 374.133 149.093 374.381Q148.704 374.629 148.327 374.896Q147.951 375.163 147.588 375.447Q147.225 375.732 146.876 376.035Q146.528 376.337 146.194 376.656Q145.861 376.976 145.544 377.311Q145.227 377.646 144.927 377.996Q144.627 378.347 144.344 378.711Q144.061 379.076 143.797 379.454Q143.533 379.832 143.287 380.223Q143.042 380.614 142.816 381.016Q142.59 381.419 142.384 381.832Q142.178 382.244 141.993 382.667Q141.808 383.09 141.643 383.521Q141.479 383.952 141.336 384.391Q141.193 384.829 141.072 385.275Q140.951 385.72 140.852 386.171Q140.753 386.621 140.676 387.076Q140.599 387.531 140.545 387.989Q140.491 388.448 140.459 388.908Q140.427 389.368 140.418 389.83Q140.409 390.291 140.423 390.752Q140.436 391.213 140.473 391.673Q140.509 392.133 140.568 392.591Q140.627 393.049 140.708 393.503Q140.79 393.957 140.893 394.407Q140.997 394.856 141.122 395.3Q141.248 395.744 141.395 396.181Q141.543 396.619 141.711 397.048Q141.88 397.478 142.069 397.898Q142.259 398.319 142.469 398.73Q142.679 399.141 142.909 399.541Q143.139 399.941 143.388 400.329Q143.637 400.717 143.905 401.093Q144.174 401.468 144.46 401.83Q144.746 402.192 145.05 402.539Q145.354 402.886 145.674 403.218Q145.994 403.55 146.331 403.866Q146.667 404.182 147.019 404.481Q147.37 404.78 147.736 405.061Q148.102 405.342 148.481 405.605Q148.86 405.868 149.252 406.112Q149.643 406.356 150.046 406.58Q150.45 406.805 150.863 407.009Q151.277 407.213 151.7 407.397Q152.124 407.58 152.555 407.743Q152.987 407.906 153.426 408.047Q153.866 408.188 154.311 408.308Q154.757 408.427 155.208 408.524Q155.659 408.622 156.114 408.697Q156.569 408.772 157.028 408.824Q157.486 408.877 157.947 408.907Q158.407 408.937 158.868 408.944Q159.33 408.952 159.791 408.936Q160.252 408.921 160.712 408.883Q161.172 408.845 161.629 408.784Q162.084 408.724 162.536 408.641Q162.988 408.559 163.435 408.454Q163.882 408.349 164.323 408.223Q164.765 408.097 165.199 407.949Q165.634 407.801 166.061 407.632Q166.488 407.464 166.906 407.274Q167.325 407.084 167.733 406.875Q168.142 406.665 168.539 406.435Q168.937 406.206 169.323 405.957Q169.709 405.708 170.082 405.441Q170.455 405.173 170.815 404.888Q171.175 404.603 171.52 404.3Q171.866 403.998 172.196 403.678Q172.526 403.359 172.84 403.024Q173.154 402.69 173.452 402.34Q173.749 401.99 174.029 401.626Q174.309 401.262 174.571 400.884Q174.833 400.507 175.076 400.118Q175.318 399.728 175.542 399.327Q175.766 398.926 175.969 398.514Q176.173 398.103 176.356 397.682Q176.54 397.261 176.702 396.831Q176.865 396.402 177.006 395.965Q177.147 395.528 177.267 395.085Q177.387 394.641 177.485 394.193Q177.582 393.744 177.658 393.291Q177.734 392.838 177.788 392.382Q177.841 391.926 177.872 391.468Q177.903 391.01 177.912 390.551Q177.921 390.092 177.907 389.633Q177.893 389.174 177.857 388.716Q177.821 388.258 177.762 387.803Q177.703 387.348 177.623 386.896Q177.542 386.444 177.439 385.996Q177.336 385.549 177.211 385.107Q177.087 384.665 176.941 384.229Q176.794 383.794 176.627 383.366Q176.46 382.939 176.272 382.52Q176.084 382.101 175.876 381.692Q175.667 381.283 175.439 380.884Q175.211 380.485 174.964 380.099Q174.717 379.712 174.451 379.337Q174.185 378.963 173.901 378.602Q173.617 378.241 173.315 377.895Q173.014 377.548 172.696 377.217Q172.378 376.885 172.045 376.57Q171.711 376.255 171.362 375.956Q171.014 375.657 170.651 375.376Q170.288 375.095 169.911 374.832Q169.535 374.568 169.146 374.324Q168.758 374.079 168.357 373.854Q167.957 373.629 167.546 373.424Q167.136 373.219 166.715 373.034Q166.295 372.849 165.866 372.685Q165.437 372.521 165.001 372.378Q164.565 372.235 164.122 372.114Q163.679 371.992 163.231 371.893Q162.782 371.793 162.33 371.716Q161.877 371.638 161.421 371.583Q160.966 371.528 160.508 371.495Q160.05 371.462 159.59 371.451Q159.131 371.441 158.672 371.453Q158.213 371.465 157.756 371.5Q157.298 371.534 156.842 371.591ZM252.669 403.995Q252.2 404.022 251.733 404.072Q251.267 404.123 250.803 404.196Q250.339 404.269 249.879 404.364Q249.419 404.46 248.965 404.578Q248.511 404.696 248.062 404.836Q247.614 404.977 247.174 405.139Q246.733 405.301 246.301 405.484Q245.869 405.668 245.446 405.872Q245.023 406.077 244.611 406.302Q244.199 406.527 243.798 406.772Q243.398 407.017 243.01 407.281Q242.622 407.545 242.247 407.828Q241.872 408.111 241.512 408.412Q241.152 408.713 240.806 409.032Q240.461 409.35 240.132 409.685Q239.803 410.02 239.491 410.37Q239.178 410.721 238.884 411.087Q238.589 411.452 238.313 411.832Q238.036 412.211 237.779 412.604Q237.521 412.997 237.283 413.401Q237.046 413.806 236.828 414.222Q236.61 414.638 236.413 415.064Q236.216 415.491 236.04 415.926Q235.864 416.361 235.71 416.805Q235.555 417.248 235.423 417.699Q235.29 418.149 235.18 418.605Q235.07 419.062 234.983 419.523Q234.895 419.984 234.83 420.45Q234.765 420.915 234.723 421.382Q234.681 421.85 234.662 422.319Q234.643 422.788 234.647 423.258Q234.651 423.727 234.678 424.196Q234.705 424.665 234.755 425.132Q234.805 425.599 234.878 426.062Q234.951 426.526 235.046 426.986Q235.142 427.446 235.26 427.9Q235.378 428.355 235.518 428.803Q235.658 429.251 235.82 429.692Q235.982 430.133 236.165 430.565Q236.348 430.997 236.553 431.42Q236.757 431.843 236.982 432.255Q237.207 432.667 237.451 433.068Q237.696 433.469 237.96 433.857Q238.224 434.245 238.507 434.62Q238.79 434.995 239.091 435.355Q239.392 435.716 239.71 436.061Q240.028 436.406 240.363 436.735Q240.698 437.065 241.049 437.377Q241.399 437.69 241.765 437.984Q242.13 438.279 242.509 438.556Q242.889 438.832 243.281 439.09Q243.674 439.348 244.079 439.586Q244.484 439.824 244.9 440.042Q245.315 440.26 245.742 440.457Q246.168 440.654 246.603 440.83Q247.038 441.006 247.482 441.161Q247.925 441.315 248.376 441.448Q248.826 441.58 249.282 441.691Q249.739 441.801 250.2 441.889Q250.661 441.977 251.126 442.042Q251.591 442.107 252.059 442.149Q252.527 442.191 252.996 442.21Q253.465 442.23 253.935 442.226Q254.404 442.222 254.873 442.195Q255.342 442.168 255.809 442.118Q256.276 442.068 256.74 441.996Q257.204 441.923 257.664 441.827Q258.124 441.732 258.579 441.614Q259.034 441.496 259.482 441.356Q259.93 441.216 260.371 441.054Q260.812 440.892 261.245 440.709Q261.677 440.526 262.1 440.321Q262.523 440.117 262.936 439.892Q263.348 439.667 263.749 439.422Q264.15 439.177 264.538 438.913Q264.927 438.649 265.302 438.366Q265.677 438.083 266.037 437.782Q266.398 437.481 266.743 437.163Q267.089 436.844 267.418 436.509Q267.747 436.174 268.06 435.824Q268.372 435.473 268.667 435.107Q268.962 434.742 269.239 434.362Q269.516 433.982 269.773 433.59Q270.031 433.197 270.269 432.792Q270.507 432.387 270.725 431.971Q270.943 431.555 271.14 431.128Q271.338 430.702 271.514 430.267Q271.69 429.831 271.844 429.388Q271.999 428.944 272.131 428.493Q272.264 428.043 272.374 427.586Q272.484 427.129 272.572 426.668Q272.66 426.206 272.725 425.741Q272.79 425.276 272.832 424.808Q272.874 424.34 272.893 423.871Q272.912 423.401 272.908 422.932Q272.904 422.462 272.877 421.993Q272.85 421.524 272.8 421.057Q272.75 420.59 272.677 420.126Q272.604 419.662 272.509 419.202Q272.413 418.742 272.295 418.287Q272.177 417.832 272.037 417.384Q271.896 416.936 271.734 416.495Q271.572 416.054 271.389 415.621Q271.205 415.189 271.001 414.766Q270.796 414.343 270.571 413.931Q270.346 413.518 270.101 413.118Q269.857 412.717 269.592 412.328Q269.328 411.94 269.045 411.565Q268.762 411.19 268.461 410.83Q268.159 410.469 267.841 410.124Q267.522 409.779 267.187 409.449Q266.852 409.12 266.501 408.808Q266.151 408.495 265.785 408.2Q265.419 407.906 265.04 407.629Q264.66 407.353 264.267 407.095Q263.874 406.837 263.469 406.599Q263.064 406.361 262.648 406.144Q262.232 405.926 261.805 405.729Q261.379 405.532 260.943 405.356Q260.508 405.18 260.064 405.025Q259.62 404.871 259.17 404.739Q258.719 404.606 258.262 404.496Q257.806 404.386 257.344 404.298Q256.883 404.211 256.417 404.146Q255.952 404.081 255.484 404.039Q255.016 403.997 254.547 403.978Q254.077 403.959 253.608 403.964Q253.138 403.968 252.669 403.995Z"/>
	<path fill="#D09602" transform="scale(2 2)" d="M249.198 208.6C248.607 203.615 248.366 199.578 253.596 197.312L253.783 197.292C261.889 196.515 262.819 201.723 263.182 208.6C295.772 208.109 296.842 247.952 280.625 239.673C274.779 236.689 279.305 225.576 268.502 222.971C265.656 222.284 248.847 222.407 245.278 222.616C234.767 223.233 229.562 234.817 236.336 243.212C246.204 255.441 267.24 242.171 282.118 255.18C301.136 271.809 291.494 301.267 263.182 302.571C263.276 307.548 263.165 311.597 258.202 314.058C250.05 315.833 248.885 308.801 249.198 302.571C218.267 301.793 214.644 271.083 227.323 271.147C241.711 271.219 224.458 288.739 252.755 288.529L262.638 288.55C280.551 288.438 281.818 269.901 271.59 264.419C260.975 258.729 241.971 268.634 227.528 254.585C209.506 237.055 221.171 208.518 249.198 208.6Z"/>
</svg>
