<svg xmlns="http://www.w3.org/2000/svg" width="1024" height="1024"><path fill="#D09602" d="M687.988 384.46c-17.838-21.224-18.12-39.432-18.106-65.394l-.04-74.94c-.176-43.512 10.97-76.207 59.56-82.681l1.298-.022c23.472-.336 46.992.028 70.47.008l27.478-.016c8.856-.002 17.858-.445 26.55 1.556 63.08 14.525 50.288 86.101 50.342 135.111.036 31.542 5.06 63.236-19.198 87.64-20.922 21.05-43.582 18.374-70.74 18.31L782.5 438.088c-6.916 7.076-20.08 26.648-31.154 15.482-5.772-5.818-6.19-40.37-6.106-49.538-10.524.694-20.534.588-30.54-3.114-10.534 4.464-26.152 10.41-34.13 18.498 30.264 59.138 35.38 108.976 12.338 172.854 14.13 3.664 28.166 7.168 41.644 12.844 12.994-20.344 53.058-20.3 72.654-10.194 49.452 25.502 44.532 101.164-8.452 117.72 11.464 17.916 29.32 21.784 30.084 47.686.372 12.652-4.788 23.018-13.236 32.07-10.224 8.03-17.046 18.786-30.21 22.5-27.112 7.65-41.898-12.266-58.576-29.268l-43.536-44.856c-6.818-7.1-31.342-28.82-33.386-37.122-1.598-6.498 2.876-14.75 9.748-15.894 11.072-1.844 24.942 18.576 33.266 24.884 10.11-7.928 19.772-20.086 32.15-24.13-12.854-18.584-14.818-40.808-6.606-61.99-11.914-5.214-25.282-7.78-37.882-10.93l-.316.596c-9.886 18.37-45.022 56.656-64.238 62.544-4.884-1.09-9.312-2.98-11.764-7.708-7.158-13.802 14.594-23.81 22.706-30.834 53.816-46.588 68.114-126.75 39.472-190.926-4.65-10.42-10.666-19.786-16.148-29.75-10.408-18.918 22.986-27.63 37.706-35.052m43.87-197.433c-33.146 4.486-36.466 28.565-36.47 54.975l-.004 76.012c-.024 18.904-2.026 39.464 15.08 52.332 19.964 15.018 46.472 4.374 55.554 11.836 5.842 4.8 4.328 23.304 5.246 30.222 9.878-10.382 25.772-32.812 40.232-33.23l.724-.018 19.414.048c51.752.024 48.906-31.864 48.888-72.866l-.002-54.704c-.028-48.204-4.928-64.643-56.282-64.633l-71.51-.015c-6.93-.024-13.954-.509-20.87.041m40.344 426.507c-21.168 2.892-35.972 22.412-33.05 43.576 2.92 21.164 22.46 35.942 43.62 32.992 21.118-2.946 35.862-22.44 32.946-43.562-2.916-21.124-22.39-35.894-43.516-33.006m-37.65 99.106c-5.578.394-19.628 15.136-23.606 19.774 12.696 11.888 24.826 24.62 36.808 37.23 8.192 8.62 17.074 25.18 30.916 20.258 8.636-4.82 29.828-22.372 23.336-34.36-3.58-6.612-33.946-36.092-41.23-42.902z"/><path fill="#D09602" d="M463.008 327.724c-14.658-14.642-26.156-29.402-29.504-50.47-7.44-46.832 25.41-85.72 70.95-92.742 76.672-8.887 121.226 94.182 55.812 143.212 14.532 3.61 80.572 28.432 79.346 47.71-.542 8.536-8.628 14.278-16.872 11.418-7.408-2.566-13.572-9.756-20.21-13.938-25.538-16.09-53.992-23.952-83.906-25.878-36.186-1.07-74.55 9.176-103.684 31.278-4.164 3.158-8.644 8.354-13.666 9.854-11.14 3.33-21.048-8.73-14.958-19.06 9.676-16.412 59.326-37.164 76.692-41.384m43.214-116.982c-29.578 3.428-50.766 30.206-47.3 59.78 3.466 29.576 30.268 50.73 59.84 47.228 29.52-3.496 50.628-30.242 47.168-59.766s-30.18-50.666-59.708-47.242"/><path fill="#D09602" d="M773.54 229.884c-.336-8.906.66-15.262 9.546-19.224 12.792-1.018 15.848 8.24 15.668 19.224 26.668-3.056 25.142 21.1 10.944 24.39-8.138 1.886-22.002-.096-31.028.358-21.212 21.478 18.614 16.724 26.772 20.8 30.422 15.202 25.192 54.998-6.688 65.284-1.752 8.824-5.54 13.144-14.734 14.792-8.392-1.456-12.182-6.322-12.756-14.792-12.172.65-33.068-3.684-21.68-19.952 8.958-12.798 56.986 4.592 50.054-16.666-2.83-8.678-15.17-5.73-22.1-6.376-36.968-3.444-40.726-57.5-3.998-67.838"/><path fill="#D09602" d="m231.532 419.416-34.98.024c-37.545.034-75.603-5.214-78.933-53.986-1.183-17.334-1.65-71.244 1.558-85.082 6.046-26.09 28.385-43.534 54.98-45.19l2.825-.048 112.874.028c33.244-.008 62.002 6.478 71.19 45.102 3.082 12.95 1.634 27.868 1.61 41.194l.12 40.992c-.128 39.272-31.006 57.418-67.192 56.966-1.144 12.474 1.426 25.018 0 37.438-.792 11.112-12.658 17.464-21.788 9.562-8.112-7.02-37.82-39.876-42.264-47M176.515 260.69c-38.912 2.55-33.356 37.754-33.402 64.702-.092 52.894-3.86 68.042 51.636 68.068l27.345-.008c26.308-.182 29.934 8.506 47.038 30.792.234-10.08-3.084-22.77 6.668-29.326 17.804-5.738 56.306 6.502 60.53-27.814 1.198-9.732 1.394-74.708-1.034-82.858-9.218-30.948-51.278-23.572-75.94-23.576z"/><path fill="#D09602" d="m275.8 339.498-44.888.02c-8.212.002-23.43 2.502-30.488-2.776-10.459-7.82-4.475-22.172 7.332-23.53 11.594-.358 65.902-1.55 72.944 1.884 11.376 5.55 5.878 21.878-4.9 24.402"/><path fill="#D09602" d="M330.324 587.596c-15.228-53.364-19.63-95.628 4.7-149.21 4.96-10.924 10.022-26.232 22.17-30.798 29.906-2.016 9.214 26.66 4.422 35.886-35.222 67.79-15.486 155.346 42.728 203.828 8.174 6.806 22.28 14.596 14.836 27.49-3.85 6.668-13.478 7.844-19.014 13.706-12.104 12.814-24.596 25.116-36.93 37.69l-61.058 62.558c-20.45 20.9-39.25 36.486-70.646 17.92-24.892-16.008-33.333-53.494-12.726-76.41 4.554-5.064 9.79-9.434 13.878-14.91l.586-.796c-48.073-10.512-62.512-72.474-30.544-106.832 24.454-26.28 65.748-26.764 91.78-2.604zm11.702 24.384c-11.006 4.09-21.204 9.7-31.868 14.54 5.374 21.92 4.872 42.528-7.642 61.99 15.486 1.23 26.508 15.256 36.422 26.04l3.088-4.214c13.8-15.108 31.154-29.796 43.888-45.194-15.222-13.662-35.072-33.522-43.27-52.334-.294-.674-.102-.434-.618-.828m-95.56 1.88c-20.978 1.774-36.56 20.202-34.82 41.182 1.738 20.982 20.138 36.594 41.122 34.89 21.036-1.706 36.692-20.16 34.95-41.192-1.744-21.032-20.224-36.658-41.252-34.88m26.754 100.69c-8.97 7.204-31.802 28.934-37.304 37.956-9.19 15.066 14.632 49.66 37.304 28.076 15.356-16.382 31.02-32.724 47.314-48.168-6.046-5.724-12.806-11.384-18.018-17.864z"/><path fill="#D09602" d="m599.556 595.702-154.65.034c-42.422.048-52.726-8.294-52.654-52.372l-.054-56.472c-.148-26.196 5.232-45.29 34.33-49.984 13.014-.52 26.228-.026 39.264-.01l113.958-.02c15.532-.002 29.408-1.652 41.708 9.844 17.79 16.626 11.528 63.204 11.52 86.656-.01 25.48 4.47 61.248-33.422 62.324M426.528 462.48c-14.152 5.352-8.8 39.726-8.822 53.096-.02 11.894-5.042 49.128 7.06 53.94 5.51 2.192 62.28 1.008 73.4 1.01l101.39.006c13.754-4.85 8.398-32.034 8.418-44.966.026-16.464.802-33.356-.162-49.78-.526-8.942-3.332-13.072-12.246-13.356-19.758-.632-39.73.058-59.516.056z"/><path fill="#D09602" d="M472.124 506.962c-8.514.044-26.012 1.948-32.246-4.144-4.638-4.534-4.006-13.65.526-18.022 5.862-5.656 36.248-2.92 44.656-2.92l73.19.014c7.98.068 21.446-2.462 27.724 2.886 6.75 5.752 4.748 20.314-4.7 21.902-8.054 1.354-24.198.302-33.222.296z"/><path fill="#D09602" d="M516.7 551.21c-11.644.06-65.412 1.352-72.562-1.438-12.21-4.766-8.368-20.268 2.498-24.284 12.14-.938 67.04-1.176 73.262 2.008 10.784 5.522 7.614 20.702-3.198 23.714"/><path fill="#D09602" d="M463.008 724.444c-29.376-40.112.278-92.584 49.174-97.924 52.508-2.318 82.846 51.794 57.76 97.924 31.914 13.692 44.336 37.226 45.022 71.932.192 9.636 1.25 40.272-.864 48.374-5.268 20.192-27.876 17.526-44.048 17.508l-51.428-.036-50.008.022c-17.528 0-46.07 4.702-52.212-17.276-2.398-8.586-1.602-56.77-.064-65.974 4.306-25.744 21.018-47.042 46.668-54.55m51.214-71.114c-20.83.96-36.89 18.704-35.776 39.526s18.974 36.752 39.788 35.486c20.598-1.254 36.328-18.89 35.226-39.498-1.102-20.606-18.624-36.464-39.238-35.514m-33.976 93.852c-35.48 3.302-38.748 32.764-38.738 62.29l.02 26.852h147.426l.042-28.606c.018-18.1.596-34.926-13.074-48.838-15.706-15.982-25.666-11.614-43.19-6.416-26.162 7.76-35.612-4.874-52.486-5.282"/></svg>