<?xml version="1.0" encoding="utf-8" ?>
<svg xmlns="http://www.w3.org/2000/svg" xmlns:xlink="http://www.w3.org/1999/xlink" width="1024" height="1024">
	<path fill="#D09602" transform="scale(2 2)" d="M381.127 215.589C346.408 216.993 317.134 189.966 315.767 155.245C314.4 120.524 341.459 91.2794 376.181 89.9499C410.85 88.6225 440.041 115.631 441.406 150.299C442.771 184.967 415.794 214.186 381.127 215.589ZM373.356 100.888C344.672 103.772 323.766 129.376 326.676 158.057C329.586 186.738 355.209 207.62 383.887 204.684C412.528 201.751 433.378 176.169 430.472 147.525C427.565 118.881 402.002 98.0081 373.356 100.888Z"/>
	<path fill="#D09602" transform="scale(2 2)" d="M138.912 215.234C104.364 218.4 73.7928 192.955 70.6361 158.406C67.4795 123.857 92.933 93.2933 127.483 90.146C162.019 86.9998 192.569 112.442 195.724 146.977C198.88 181.513 173.447 212.07 138.912 215.234ZM130.588 100.611C101.748 102.063 79.5724 126.664 81.1114 155.5C82.6503 184.335 107.319 206.436 136.149 204.81C164.857 203.191 186.843 178.651 185.311 149.938C183.778 121.226 159.305 99.1658 130.588 100.611Z"/>
	<path fill="#D09602" transform="scale(2 2)" d="M383.32 189.5C362.99 192.108 344.39 177.759 341.753 157.433C339.116 137.107 353.439 118.486 373.761 115.821C394.124 113.15 412.791 127.508 415.433 147.875C418.075 168.241 403.69 186.887 383.32 189.5ZM377.143 126.36C362.494 127.143 351.29 139.715 352.194 154.358C353.098 169 365.762 180.099 380.397 179.074C394.861 178.061 405.803 165.575 404.909 151.104C404.016 136.632 391.621 125.587 377.143 126.36Z"/>
	<path fill="#D09602" transform="scale(2 2)" d="M145.925 177.653C141.583 180.936 135.338 190.681 129.266 185.333C124.972 181.552 97.3691 155.176 96.4418 152.319C95.5736 149.644 98.3695 134.69 99.8867 132.175C101.333 129.777 117.955 122.258 121 121.538C126.271 121.156 130.058 127.003 133.517 130.16C136.135 127.623 140.769 121.949 144.504 121.718C147.29 121.546 163.613 129.021 165.977 131.086C168.501 133.291 170.853 146.28 171.006 149.754C171.314 156.684 151.296 171.725 145.925 177.653ZM121 133.066C116.866 134.591 113.073 136.852 108.977 138.428C108.516 142.122 107.64 145.729 107.141 149.409C116.274 157.402 124.591 166.374 133.517 174.614C137.181 170.937 140.947 167.38 144.731 163.827C149.764 159.072 155.133 154.435 159.885 149.409C159.424 145.717 158.52 142.104 157.957 138.428C153.809 136.97 149.967 134.775 145.925 133.066C142.687 135.935 137.634 142.882 133.067 142.491C128.148 142.07 124.873 135.674 121 133.066Z"/>
	<path fill="#D09602" transform="scale(2 2)" d="M369.199 172.578C366.569 170.738 364.718 169.163 364.465 165.858C364.185 162.22 364.033 140.332 364.976 137.885C365.69 136.035 367.56 135.121 369.199 134.233C373.063 135.686 396.355 147.432 398.072 149.506C399.418 151.13 398.88 153.953 398.688 155.871C395.253 158.426 389.29 161.483 385.369 163.827C380.409 166.531 374.354 170.813 369.199 172.578ZM374.789 148.252L374.789 157.309C376.496 156.393 378.18 155.481 379.798 154.413L383.189 152.567C380.304 151.278 377.454 149.965 374.789 148.252Z"/>
	<path fill="#D09602" transform="scale(2 2)" d="M108.977 325.967C86.4445 325.708 84.2669 312.339 84.2886 292.605L84.2658 260.425C84.1925 241.759 90.6112 234.421 110.38 234.399L156.534 234.388C176.881 234.353 175.292 233.356 195.13 225.237C211.084 218.708 227.126 212.435 243.172 206.138C250.635 203.209 260.432 198.681 267.982 196.8C281.684 194.822 279.526 212.236 279.527 220.127L279.514 249.88C316.823 252.315 315.31 303.07 279.514 305.239L279.516 337.459C279.521 345.983 281.971 365.835 266.775 362.538C263.082 361.736 259.391 360.114 255.877 358.747L187.594 331.476C187.67 340.508 188.078 348.4 178.602 352.675C181.192 364.915 187.865 381.377 189.129 392.768C190.789 407.727 179.43 419.753 164.938 421.256C141.656 418.28 139.736 406.625 133.372 386.066L127.175 365.636C125.91 361.441 124.508 357.27 123.45 353.017C106.996 351.721 108.941 339.077 108.977 325.967ZM267.982 208.006C246.413 215.989 225.152 224.864 203.735 233.259C195.454 236.505 187.09 240.428 178.602 243.054L178.602 316.444C187.52 320.2 196.47 323.927 205.464 327.497C226.23 335.758 248.606 343.532 268.862 352.675L268.856 226.095C268.856 222.993 269.673 210.101 268.47 207.946L267.982 208.006ZM105.477 244.795C94.1358 245.998 94.6487 254.977 94.6392 264.141L94.6378 295.171C94.6633 319.47 101.601 315.321 122.579 315.319L157.957 315.304L168.174 315.304C168.543 291.825 168.172 268.281 168.174 244.795C147.284 244.795 126.363 244.553 105.477 244.795ZM279.514 260.526C279.672 264.648 279.528 268.77 279.517 272.893L279.514 294.24C284.321 294.094 287.672 292.755 291.231 289.561C301.605 278.189 294.885 262.219 279.514 260.526ZM164.059 325.967L119.442 325.967C119.022 342.129 116.277 342.603 132.171 342.547C137.818 342.55 174.054 343.208 176.346 341.827C177.389 338.884 176.819 330.97 176.763 327.497C172.604 325.111 168.653 325.793 164.059 325.967ZM135.812 353.017L135.043 353.184C134.178 355.126 146.577 394.521 148.514 399.559C152.342 409.519 165.341 414.923 173.907 407.051C180.994 399.376 178.351 391.505 175.916 382.617L170.917 364.169C169.936 360.504 168.741 356.768 168.174 353.017C157.412 353.009 146.564 352.698 135.812 353.017Z"/>
	<path fill="#D09602" transform="scale(2 2)" d="M305.151 219.812C300.955 220.509 297.257 217.045 298.853 212.823C299.957 209.903 310.158 200.548 313.023 199.263C316.934 199.094 321.257 201.596 319.506 206.221C318.473 208.947 307.946 218.647 305.151 219.812Z"/>
	<path fill="#D09602" transform="scale(2 2)" d="M314.576 247.357C310.019 247.857 307.027 243.204 308.997 239.202C310.171 236.819 331.564 225.411 335.172 224.279C340.312 224.381 343.917 230.216 339.061 233.881C335.018 236.933 318.729 245.848 314.576 247.357Z"/>
	<path fill="#D09602" transform="scale(2 2)" d="M351.526 283.957C347.005 284.323 328.988 284.536 326.334 283.033C321.733 280.426 323.839 274.116 328.406 273.002C336.398 272.594 344.761 272.807 352.76 273.002C357.188 276.438 356.895 282.082 351.526 283.957Z"/>
	<path fill="#D09602" transform="scale(2 2)" d="M382.864 421.176C347.963 423.55 317.725 397.227 315.268 362.331C312.811 327.435 339.063 297.135 373.953 294.596C408.959 292.049 439.383 318.407 441.848 353.42C444.313 388.432 417.882 418.794 382.864 421.176ZM376 305.327C347.063 306.795 324.777 331.413 326.188 360.353C327.599 389.293 352.173 411.628 381.115 410.274C410.139 408.917 432.55 384.259 431.136 355.238C429.721 326.217 405.019 303.855 376 305.327Z"/>
	<path fill="#D09602" transform="scale(2 2)" d="M302.884 310.018C306.092 308.327 308.282 306.544 310.27 303.48C312.925 305.662 318.596 308.201 318.468 312.291C318.345 316.227 314.693 317.89 311.281 317.823C307.894 316.64 305.03 312.757 302.884 310.018Z"/>
	<path fill="#D09602" transform="scale(2 2)" d="M364.443 342.547C359.448 329.423 362 315.445 378.505 313.592C394.534 313.547 399.148 329.34 393.386 342.547C402.095 347.665 403.695 357.83 402.099 367.134C408.568 371.729 411.662 378.465 412.198 386.334C412.811 395.352 403.129 393.464 397.083 393.463L379.798 393.446L360.584 393.462C355.616 393.462 344.969 395.448 345.298 387.873C345.755 377.394 349.91 372.734 357.309 365.947C356.973 356.097 356.409 350.09 364.443 342.547ZM378.041 325.015C374.474 325.572 372.04 328.923 372.614 332.488C373.188 336.052 376.551 338.47 380.112 337.879C383.65 337.292 386.048 333.957 385.478 330.417C384.908 326.877 381.584 324.463 378.041 325.015ZM377.806 347.815C359.431 351.636 373.093 367.712 370.359 371.765C368.273 374.855 361.435 374.305 357.309 382.588C366.641 382.356 376.029 382.593 385.369 382.588L401.033 382.588C397.597 371.433 386.366 376.083 384.606 370.34C383.341 366.213 388.694 364.358 391.683 363.66C392.028 355.015 387.503 347.073 377.806 347.815Z"/>
</svg>
