<svg xmlns="http://www.w3.org/2000/svg" width="1024" height="1024"><path fill="#D09602" d="M675.494 357.91c-66.768-78.146-4.714-205.671 102.412-204.879 25.448-1.759 55.848 9.672 75.836 24.992 56.252 43.117 70.708 123.305 26.406 180.465-48.852 63.032-126.872 67.018-187.38 19.53-12.65 10.664-25.396 24.634-37.626 36.116 3.012 6.046 6.842 11.704 10.044 17.662 30.522 56.808 25.316 123.564-10.044 176.442 8.552 10.306 27.31 28.388 37.626 37.898 10.95-14.874 36.17-25.12 53.746-29.608 68.702-17.538 138.494 27.288 155.254 95.258 16.494 66.9-26.996 137.772-93.89 153.728C703.768 890.35 616.39 785.582 660.3 688.816c3.876-8.54 8.884-16.438 13.844-24.372-6.99-8.606-26.618-28.896-35.562-34.998-4.198 2.958-7.722 6.942-11.452 10.468-70.418 66.592-174.872 54.992-242.428-10.468-11.534 11.844-23.088 24.336-35.714 34.998 44.962 51.018 29.882 135.866-21.222 177.858-19.432 15.968-50.996 29.668-76.516 27.224-30.454 8.364-77.736-18.018-98.232-39.288-79.354-82.346-14.763-220.08 99.982-216.902 25.978.72 61.586 13.738 79.586 32.8 9.22-13.722 24.904-25.042 35.68-37.898-33.514-53.204-38.37-116.808-10.378-173.702 3.51-7.136 7.268-14.248 12.342-20.402-10.508-13.56-27.562-23.546-37.644-36.116-19.756 14.944-35.014 24.076-59.724 28.912-113.84 22.286-195.253-105.096-132.573-197.726 38.883-57.462 118.303-74.529 176.137-34.798 62.514 42.946 75.466 123.304 32.562 185.088 11.78 8.096 27.456 22.68 37.832 32.57l1.906-1.95c70.762-71.068 179.76-66.238 249.856 3.672 13.088-11.182 23.954-24.704 36.912-35.876M239.11 179.249c-56.285 4.131-98.548 53.135-94.364 109.417 4.183 56.28 53.225 98.498 109.502 94.262 56.204-4.228 98.356-53.194 94.178-109.402s-53.104-98.403-109.316-94.277m530.244-.202c-56.502 4.47-98.694 53.879-94.258 110.383s53.82 98.726 110.328 94.322c56.554-4.406 98.816-53.84 94.378-110.392-4.44-56.552-53.9-98.786-110.448-94.313M503.752 365.072c-81.006 4.676-142.88 74.146-138.184 155.154 4.696 81.006 74.182 142.862 155.188 138.146 80.976-4.714 142.806-74.17 138.112-155.15-4.694-80.978-74.136-142.824-155.116-138.15m267.82 273.964c-56.44 3.15-99.616 51.496-96.39 107.932 3.228 56.434 51.632 99.546 108.062 96.242 56.324-3.296 99.334-51.588 96.114-107.916s-51.454-99.404-107.786-96.258m-532.826 1.066c-56.254 4.562-98.209 53.784-93.802 110.048 4.407 56.266 53.514 98.356 109.792 94.102 56.496-4.27 98.782-53.608 94.358-110.092-4.424-56.482-53.878-98.636-110.348-94.058"/><path fill="#D09602" d="M213.914 276.944c-24.367-32.064-10.9-73.002 30.18-77.259 36.672-5.072 65.41 44.213 34.718 77.259 20.914 13.014 33.452 36.054 34.154 60.648.646 22.54-16.09 22.016-32.82 21.96l-28.896-.058-35.638.048c-34.398.026-45.167-6.394-31.611-44.316 6.36-17.792 15.419-26.894 29.913-38.282m30.596-51.002c-10.636 1.242-18.228 10.902-16.92 21.53s11.016 18.16 21.634 16.786c10.528-1.362 17.98-10.966 16.684-21.502-1.296-10.534-10.856-18.046-21.398-16.814m-.416 67.702c-20.148 3.464-36.59 19.288-36.826 40.354h80.338c-6.306-19.382-19.312-43.352-43.512-40.354"/><path fill="#D09602" d="M718.448 351.656c.408-12.922-1.062-112.056.556-114.854l1.724-.222h122.754v77.372h-83.086c-14.606 11.736-27.622 25.578-41.948 37.704m55.374-89.876h-29.724v35.102c3.258-2.728 6.476-5.716 10.044-8.028h63.408V261.78z"/><path fill="#D09602" d="M472.726 608.238c-17.362 2.738-16.268-14.88-18.018-26.59-2.416-16.176-9.6-33.512-19.512-46.546-13.586-17.864-26.522-33.486-13.03-57.646 15.032-26.916 40.66-23.108 67.144-22.966 34.77.19 56.268-31.716 87.576-40.356 32.786-4.092 30.716 23.608 30.7 44.602l-.002 75.896c.006 20.13-1.882 50.772-32.734 43.584-6.476-1.508-12.44-5.402-18.292-8.452l-27.654-14.736c-8.644 10.298-47.824 49.364-56.178 53.21m109.296-167.25c-7.91 3.428-15.312 8.128-22.764 12.446l-36.186 21.178c-.02 15.602-.19 31.222 0 46.82 6.986 3.306 13.656 7.118 20.324 11.022 12.52 7.132 25.35 14.974 38.626 20.57-.352-9.58-.008-19.18.002-28.766l-.088-75.684c-.008-2.398.364-5.24.086-7.586m-120.084 39.018c-17.438 1.892-26.216 21.67-11.926 31.846 7.666 5.458 20.736 3.676 29.64 3.602h17.526v-35.448c-11.702.008-23.558-.428-35.24 0m7.002 60.63c3.8 9.154 6.632 18.92 10.712 27.89 3.906-4.792 8.128-9.184 12.552-13.498 4.686-4.702 9.624-9.33 13.916-14.392z"/><path fill="#D09602" d="M217.362 733.786c-27.47-28.5-14.016-70.704 24.44-78.176 43.984-4.66 65.876 42.08 37.01 78.176 22.356 10.048 33.872 34.636 35.012 58.164 1.268 26.154-9.428 26.012-31.916 25.962l-29.096-.056-34.994.05c-31.83.14-44.592.376-34.17-40.486 5.03-19.726 16.434-33.298 33.714-43.634m28.254-52.322c-10.474 1.194-17.968 10.696-16.688 21.162 1.28 10.464 10.844 17.88 21.296 16.514 10.334-1.35 17.648-10.78 16.382-21.124s-10.636-17.734-20.99-16.552m-1.522 69.69c-20.678 3.104-34.616 20.658-36.826 40.804h80.338c-.958-22.662-19.444-43.886-43.512-40.804"/><path fill="#D09602" d="m824.968 803.6-61.498.016c-25.866.014-62.632 3.956-64.926-33.838-.8-13.156-1.338-62.192.894-71.528 3.502-14.658 16.378-23.76 31.08-24.438 16.108-.76 86.564-2.47 101.296.572 30.714 6.338 23.748 46.072 23.83 69.04.09 24.65 5.058 59.604-30.676 60.176m-94.45-104.208c-10.856 6.392-6.052 29.67-6.032 41.59.064 39.176-5.392 37.024 32.548 37.068l43.29-.026c8.004-.032 16.728.904 24.644-.01 10.692-4.868 4.486-73.642 3.894-74.78-3.736-7.18-33.166-3.87-40.724-3.87-19.138-.004-38.508-.616-57.62.028"/><path fill="#D09602" d="M777.906 758.794c-22.078-.394-22.768-38.86-4.084-45.24 22.072-1.812 23.53 40.222 4.084 45.24"/></svg>