<?xml version="1.0" encoding="utf-8" ?>
<svg xmlns="http://www.w3.org/2000/svg" xmlns:xlink="http://www.w3.org/1999/xlink" width="1024" height="1024">
	<path fill="#D09602" transform="scale(2 2)" d="M366.351 118.461C344.361 96.1299 355.555 62.1032 385.311 61.5992C411.836 57.3929 432.476 96.9964 406.229 118.461C421.338 125.141 438.512 139.101 438.471 157.142C438.452 165.34 427.611 179.84 422.47 184.919C418.218 189.119 411.94 187.809 406.486 187.808L387.813 187.792C382.805 187.79 354.494 188.381 351.876 187.227C347.9 185.472 345.199 179.237 342.948 175.817C335.676 164.767 329.919 159.62 335.931 145.744C341.49 132.913 353.651 123.546 366.351 118.461ZM384.803 73.3896C373.882 74.3066 365.773 83.9061 366.695 94.8273C367.616 105.749 377.219 113.853 388.14 112.927C399.054 112.001 407.153 102.405 406.232 91.4908C405.311 80.5762 395.718 72.4732 384.803 73.3896ZM383.188 127.015C365.84 128.141 348.222 139.828 345.206 157.721C348.853 163.02 354.441 170.609 357.283 176.14L389.527 176.14L414.504 176.14C418.526 170.086 423.458 164.167 426.789 157.721C424.765 147.343 419.516 140.125 410.737 134.189C404.15 129.735 391.163 124.792 383.188 127.015Z"/>
	<path fill="#D09602" transform="scale(2 2)" d="M106.492 118.461C83.9405 98.9307 93.8652 64.9268 123.695 61.5992C150.735 59.6866 168.65 91.0161 151.341 112.949C149.879 114.801 148.139 116.331 146.611 118.103L146.305 118.461C160.74 124.357 178.201 139.182 178.343 155.969C178.414 164.404 168.438 178.538 163.201 183.771C158.027 188.94 150.841 187.81 144.142 187.809L127.815 187.792L107.516 187.811C90.5982 187.815 91.8254 189.073 82.1975 174.911C75.2905 164.751 69.2839 158.956 75.4231 145.716C80.7873 134.147 94.7307 122.727 106.492 118.461ZM123.829 73.7715C113.002 75.0032 105.208 84.7539 106.391 95.5854C107.575 106.417 117.29 114.255 128.127 113.12C139.033 111.978 146.931 102.187 145.74 91.287C144.55 80.3866 134.723 72.5319 123.829 73.7715ZM123.695 127.015C107.793 127.548 85.4842 140.396 85.2031 158.388C89.2554 164.09 93.5332 169.737 97.1906 175.703C107.393 175.843 117.61 175.698 127.815 175.703L154.439 175.703C158.428 169.804 162.866 163.911 166.379 157.721C166.109 139.274 139.833 125.16 123.695 127.015Z"/>
	<path fill="#D09602" transform="scale(2 2)" d="M250.13 157.721L250.125 130.523C250.115 123.972 247.516 112.756 255.658 111.331C260.984 111.134 266.387 111.322 271.721 111.321L323.755 111.321C327.6 111.323 331.588 111.112 335.413 111.533C340.436 112.086 342.463 117.903 338.852 121.607C336.128 124.402 330.252 123.325 326.754 123.293L261.969 123.266L261.969 157.721C278.663 157.252 300.885 166.929 314.164 176.785C339.945 195.92 349.284 219.52 353.74 249.552L388.772 249.552L388.772 218C388.768 213.749 388.31 208.055 388.831 203.991C389.461 199.085 395.301 197.019 398.979 200.488C402.832 204.121 400.988 231.136 400.987 237.445C400.985 259.498 405.298 261.318 381.629 261.296L353.74 261.283C347.786 312.81 313.747 346.224 261.969 352.588L261.969 390.518C267.483 390.252 273.098 390.503 278.625 390.518L312.762 390.513C318.129 390.514 324.772 390.061 329.98 390.695C334.77 391.278 337.311 396.967 333.972 400.616C330.95 403.919 316.931 402.5 312.562 402.501L264.882 402.492C246.375 402.477 250.093 398.767 250.112 382.225L250.13 352.588C245.503 351.349 240.545 351.067 235.838 350.022C194.249 340.784 160.942 304.527 158.634 261.283L122.622 261.283L122.614 294.908C122.616 299.39 123.07 305.152 122.638 309.461C122.152 314.305 116.289 317.003 112.531 313.45C108.862 309.981 110.633 280.359 110.623 274.133L110.607 261.712C110.6 245.853 115.79 249.532 130.343 249.534L158.634 249.552L158.642 249.129C159.172 226.544 171.349 200.959 187.594 185.401C203.025 170.623 228.002 157.257 250.13 157.721ZM255.476 169.354C208.228 169.661 170.177 208.217 170.494 255.465C170.811 302.713 209.376 340.755 256.624 340.427C303.857 340.1 341.885 301.55 341.568 254.317C341.251 207.084 302.709 169.048 255.476 169.354Z"/>
	<path fill="#D09602" transform="scale(2 2)" d="M240.791 208.105C240.752 202.788 239.428 196.623 245.542 194.471C249.797 194.413 254.055 194.427 258.312 194.425C271.37 194.418 271.629 195.43 271.57 208.105C278.449 210.45 284.622 213.692 289.783 218.888C294.8 216.276 299.485 211.908 303.92 217.595C305.687 219.86 312.435 232.102 313.411 234.831C315.614 240.984 309.25 242.665 305.197 245.594C304.889 248.852 305.002 260.663 305.197 264.159C308.716 267.318 315.592 269.09 313.829 275.28C313.088 277.88 306.273 289.234 304.471 291.509C299.574 297.69 294.888 292.841 289.043 291.094L288.645 290.977C282.264 295.057 278.825 297.531 271.57 300.613C271.4 305.579 272.056 309.168 268.032 313.007C264.064 313.525 259.66 313.029 255.642 313.035C242.425 313.056 239.578 314.734 239.729 300.613C233.883 297.921 228.552 294.811 223.391 290.977C220.227 292.488 217.151 294.055 213.733 294.912C209.845 293.857 207.948 290.991 205.919 287.741C197.342 273.998 193.925 272.67 207.937 264.159C206.347 257.385 206.984 251.454 207.937 244.65C202.593 241.009 196.652 238.838 200.203 231.545C201.847 228.171 207.083 219.318 209.444 216.679C213.795 211.817 218.653 215.511 223.391 217.915C228.967 213.492 233.949 210.289 240.791 208.105ZM256.592 206.451L251.752 206.451L251.752 217.915C241.121 219.782 232.452 224.187 225.99 233.034C222.807 231.252 219.629 229.377 216.364 227.754C214.971 229.684 213.59 231.619 212.232 233.573C215.485 235.678 218.803 237.779 221.646 240.431C217.948 249.729 217.319 259.607 221.646 268.788C218.525 270.951 214.949 272.824 212.232 275.485C213.222 278.03 214.567 279.872 216.364 281.915L225.99 276.348C233.416 285.416 240.279 288.904 251.752 290.977L251.752 301.354L255.658 301.354L260.298 301.354C260.157 297.891 260.314 294.44 260.298 290.977C270.969 289.147 279.635 284.757 286.667 276.348C290.152 277.96 293.478 279.943 296.769 281.915C297.987 279.76 299.201 277.605 300.48 275.485C297.352 273.16 294.159 270.959 290.922 268.788C294.538 257.711 294.027 251.49 290.922 240.431C294.062 238.447 297.188 236.443 300.48 234.715C299.086 232.448 297.78 230.227 296.769 227.754C293.322 229.321 289.891 231.044 286.667 233.034C279.635 224.407 271.387 219.367 260.298 217.915L260.298 206.451L256.592 206.451Z"/>
	<path fill="#D09602" transform="scale(2 2)" d="M371.496 380.085C349.632 358.771 363.541 323.673 391.022 324.347C391.993 324.016 393.183 323.899 394.212 323.892C411.154 323.772 424.625 339.418 424.706 355.763C424.759 366.284 420.188 374.011 412.955 381.247C425.891 386.821 445.557 403.329 445.585 418.063C445.6 425.518 431.034 446.521 423.852 448.794C417.953 450.662 401.782 449.851 394.766 449.838L375.902 449.849C353.861 449.864 355.121 450.086 343.045 430.661C339.674 425.239 338.008 420.91 339.548 414.5C344.035 395.832 357.126 388.816 371.496 380.085ZM390.687 335.946C379.701 336.975 371.626 346.71 372.644 357.697C373.662 368.684 383.388 376.77 394.376 375.764C405.381 374.756 413.481 365.012 412.462 354.008C411.442 343.004 401.69 334.914 390.687 335.946ZM391.022 389.14C374.182 389.202 353.995 402.244 350.552 419.654C352.112 423.153 359.504 434.945 362.201 437.279C367.292 438.149 372.56 438.031 377.707 438.03L393.875 438.013C399.421 438.023 418.022 439.726 421.63 436.015C423.036 434.569 432.731 420.196 433.653 418.154C428.845 404.257 406.806 385.001 391.022 389.14Z"/>
	<path fill="#D09602" transform="scale(2 2)" d="M99.8539 381.247C78.451 362.023 87.8509 327.506 117.856 324.347C134.945 322.658 150.948 336.253 152.246 353.331C153.188 365.729 148.314 372.402 140.636 381.247C155.402 385.989 179.905 407.604 173.205 424.445C171.637 428.385 162.422 442.922 159.445 445.853C154.116 451.1 146.858 449.871 140.004 449.86L123.695 449.838L104.806 449.855C83.9545 449.865 85.6466 451.919 73.702 434.158C69.1992 427.462 64.4872 422.008 67.3585 413.283C72.2625 398.382 86.4519 387.998 99.8539 381.247ZM116.797 336.378C105.771 338.231 98.32 348.651 100.13 359.684C101.94 370.716 112.33 378.208 123.37 376.442C134.471 374.665 142.014 364.204 140.194 353.11C138.374 342.016 127.884 334.514 116.797 336.378ZM121.171 389.14C107.93 389.451 97.1752 394.23 88.0127 403.895C75.1582 417.454 77.4005 417.845 85.5684 430.349C92.0057 440.204 89.9694 438.068 101.792 438.038L121.171 438.013L141.601 438.033C144.676 438.043 148.012 438.443 151.043 438.013C153.635 434.661 163.166 420.806 162.829 417.465C162.263 411.854 152.759 401.961 148.328 398.537C140.386 392.4 131.18 389.169 121.171 389.14Z"/>
</svg>
