<svg xmlns="http://www.w3.org/2000/svg" width="1024" height="1024"><path fill="#D09602" d="M252.41 387.214c-22.36-3.822-40.482-9.69-58.938-23.596-88.288-66.52-51.609-204.426 62.674-219.126 71.642-2.27 117.724 41.22 129.19 108.978 29.244-11.796 43.964-20.974 78.13-26.84-.268-24.77 4.69-45.559 34.094-45.725h21.022c36.512.125 43.188 10.855 43.358 45.725 28.394 9.966 45.436 11.568 75.316 26.84 12.002-95.417 118.27-143.55 194.216-83.643 88.218 69.587 46.894 208.209-59.6 219.845 12.648 22.706 20.352 47.404 25.716 72.788 33.25-.578 45.814 11.746 45.866 44.926.054 36.534-4.576 56.136-45.866 54.646-5.958 32.838-14.86 48.162-25.716 76.966 47.624 1.522 92.782 47.038 103.704 91.712 14.68 60.044-20.63 122.63-79 142.05-8.1 2.696-16.432 4.118-24.704 6.136-39.056.506-73.056-6.008-101.694-35.588-16.568-17.11-33.326-45.188-32.922-69.804-23.572 8.786-50.108 19.948-75.316 22.124l.19 7.35c.564 31.724-20.198 40.974-48.95 41-34.768.032-52.832-12.104-52.67-48.35-26.154-8.776-46.432-13.22-73.688-24.154-14.64 143.996-222.672 139.49-240.638 4.728-9.142-68.576 37.72-128.43 106.226-137.204-11.116-23.892-21.39-50.652-25.16-76.966-41.273.12-46.457-16.684-46.35-53.826.101-34.984 11.369-45.954 46.35-45.746 7.292-29.262 11.854-47.478 25.16-75.246m8.898-216.517c-75.554 6.323-117.913 92.529-70.367 152.253 7.679-18.87 19.983-28.636 36.309-39.778-28.725-34.7-.738-85.779 42.566-83.869 42.79 3.533 59.332 49.625 35.028 83.869 17.164 10.47 26.496 19.762 36.362 37.314 31.244-43.318 20.468-102.61-22.936-133.408-14.282-10.133-39.176-20.39-56.962-16.38m489.354 0c-79.996 7.405-112.702 92.231-66.316 156.381 5.542-15.616 18.518-28.216 33.568-34.74-37.42-44.598-6.014-99.47 47.7-94.763 48.834 8.479 60.126 57.207 31.974 94.763 16.678 8.17 26.258 18.764 35.412 34.74 16.804-25.632 24.716-48.268 18.41-79.274-8.804-43.284-55.82-84.806-100.748-77.107m-253.05 36.285c-20.972 5.152 4.414 37.1-17.516 43.26-9.218 2.59-20.934 3.584-30.984 6.044-22.32 5.46-43.684 15.99-63.776 26.886l-.264.694c-12.572 33.678-9.554 34.208-34.536 66.306 2.53 10.426 10.736 39.258 10.392 48.51-.35 9.458-11.37 14.308-19.614 11.7-21.488-6.794-37.132-27.716-59.284-23.168-17.152 28.174-28.894 68.538-31.802 101.296-8.616-.038-34.96-3.238-41.212 3.172-3.208 3.288-5.154 36.284.622 41.114 5.55 4.64 32.542 2.744 40.59 2.708.942 28.416 15.954 79.708 31.802 103.494 31.634 6.054 51.044 13.654 74.438 36.494 8.504-4.17 28.138-12.59 37.106-9.494 11.464 3.956 21.534 19.628 16.682 31.628-4.256 10.528-24.656 32.922-24.412 42.766 10.578 14.516 78.134 27.534 101.778 33.112l-.034 21.266c-.184 26.464 6.786 22.86 32.388 22.654 32.538-.192 2.538-37.774 25.674-45.252 8.656-2.796 18.712-2.65 27.652-4.776 21.46-5.104 41.332-13.002 61.566-21.648a59 59 0 0 1 2.388-11.668c-10.082-10.414-20.472-33.176-20.216-46.846.198-10.474 12.11-22.828 22.952-21.954 8.662.7 21.114 7.352 29.82 10.212 17.722-19.27 45.89-36.888 73.152-36.494 1.452-6.944 5.204-12.702 8.392-18.962 13.458-26.418 19.41-55.438 23.922-84.532 12.22-.044 39.436 5.018 41.268-8.244.714-5.16 2.076-32.986-2.188-36.998-3.53-3.322-32.946-1.772-39.08-1.752-3.088-26.896-14.882-76.55-32.314-98.838-12.518-4.146-13.95-2.804-25.674 2.996-25.332 12.532-62.788 38.072-49.98-12.53 2.258-8.926 4.628-17.822 6.49-26.842-27.074-30.796-24.72-36.73-36.544-70.124-21.13-13.356-46.158-22.524-70.35-28.55-9.586-2.388-23.242-1.552-29.862-9.968-2.248-9.52-1.396-22.702-1.094-32.61-6.982-9.134-28.082-5.114-38.338-5.062m258.208 16.216c-16.44.918-29.01 15.006-28.058 31.444.952 16.436 15.064 28.98 31.5 27.996 16.388-.982 28.89-15.046 27.94-31.438-.948-16.392-14.99-28.92-31.382-28.002m-494.58 3.564c-13.092 2.664-21.5 15.494-18.716 28.56 2.782 13.068 15.69 21.358 28.73 18.454 12.874-2.866 21.032-15.57 18.284-28.468-2.746-12.898-15.374-21.174-28.298-18.546m.068 73.926c-24.824 2.946-41.816 19.046-50.554 41.534 23.242 19.298 52.746 22.836 81.358 16.718 13.516-1.788 25.226 10.61 37.008 15.77-8.496-36.596-18.346-80.08-67.812-74.022m489.354 9.498c-40.108 4.722-47.898 29.346-54.474 64.524 8.458-4.448 20.67-12.922 28.954-15.77 7.56 1.494 15.068 3.602 22.69 4.684 22.856 2.226 45.642-2.452 64.31-16.338-8.014-28.288-33.578-39.984-61.48-37.1m-2.83 353.35c-20.612 2.738-38.75 10.344-54.304 24.05-4.574 4.03-13.628 16.094-19.436 16.454-9.914.616-20.844-7.724-30.572-10.374 4.496 11.94 19.564 31.054 20.66 36.356 1.094 5.286-2.038 12.616-2.698 18.06-3.684 30.45 5.192 49.464 22.864 72.29 7.602-18.542 18.624-34.914 37.282-43.77-19.032-27.902-19.976-61.536 13.57-78.086 52.54-22.362 94.934 36.172 62.39 80.056 18.116 12.146 25.282 20.846 35.412 39.946 3.834-6.558 8.174-12.896 11.418-19.77 31.522-66.798-26.778-144.266-96.586-135.212m-486.524 0c-31.056 6.724-55.75 14.67-74.426 43.572-22.838 35.344-20.737 79.566 6.767 111.41 10.495-20.202 17.339-30.102 37.075-41.916-41.777-44.778 17.15-109.772 65.964-73.11 24.47 20.936 25.746 49.024 5.12 73.11 25.402 15.218 23.758 24.728 39.398 41.916 15.008-22.894 22.338-40.852 19.926-68.714-2.812-32.516 2.36-26.546 20.218-56.138-33.956 12.93-24.322 16.022-49.514-5.576-15.476-13.266-35.694-22.078-56.068-23.498-4.568-.318-10.096.418-14.46-1.056m2.94 55.758a23.768 23.768 0 1 0 5.008 47.268c12.924-1.53 22.214-13.166 20.844-26.108-1.372-12.94-12.894-22.372-25.852-21.16m488.764.46c-13.078 2.834-21.448 15.654-18.78 28.766s15.38 21.644 28.526 19.144a24.45 24.45 0 0 0 13.674-40.294 24.45 24.45 0 0 0-23.42-7.616m5.032 74.466c-28.974-.316-45.786 18.134-52.394 44.71 16.734 9.21 34.848 14.37 54.012 13.932 20.186-1.174 34.982-6.136 52.48-16.06-11.494-22.582-23.082-44.324-54.098-42.582m-492.794 0c-26.908 1.414-42.27 18.818-51.292 42.582 16.23 10.256 34.394 16.572 53.774 16.06 18.348.276 35.942-5.862 51.112-16.06-11.532-23.756-25.454-42.618-53.594-42.582"/><path fill="#D09602" d="M523.756 687.578c-96.568 6.448-180.054-66.662-186.404-163.236s66.844-179.988 163.426-186.238c96.442-6.244 179.708 66.824 186.05 163.258 6.34 96.436-66.642 179.778-163.072 186.216M504.21 363.916c-82.44 4.338-145.684 74.808-141.108 157.238 4.578 82.428 75.232 145.466 157.646 140.65 82.078-4.794 144.802-75.098 140.244-157.188-4.556-82.092-74.678-145.02-156.782-140.7"/><path fill="#D09602" d="M480.458 417.986c.318-8.57-.388-16.138 8.956-19.622 8.992-.222 36.204-1.02 43.534.508 10.346 2.156 9.708 10.258 9.56 19.114 19.712 8.796 36.504 28.272 39.294 49.948 1.968 15.272-12.972 21.346-23.402 11.69-6.68-15.57-2.464-26.726-24.21-37.286-9.946-4.828-15.384-6.306-14.214-18.668-4.704-.136-9.434-.02-14.142 0-2.44 15.02-4.316 12.14-16.322 17.85-20.256 9.636-26.764 32.416-21.2 52.932 14.042 35.188 53.95 20.494 60.346 42.478 6.628 22.778-26.33 34.66-31.046 9.158-24.13-5.246-45.85-18.882-54.072-43.564-10.624-31.902 3.764-73.832 36.918-84.538"/><path fill="#D09602" d="M519.976 599.254c-.18-18.404 6.708-14.234 20.096-22.262 30.458-18.26 21.622-66.356-15.702-75.982-7.252-1.868-16.06-2.43-22.254-6.93-12.432-9.03-9.012-28.932 6.274-31.62 9.002-2.214 16.718 3.178 16.718 12.56 3.148.8 6.298 1.658 9.398 2.628 61.332 19.168 67.7 97.452 10.038 126.236-1.086 12.492-1.85 19.738-15.964 20.594-7.626.464-29.944.896-36.888-.222-11.298-1.818-11.288-10.576-11.234-20.372-14.352-5.764-25.808-17.358-32.318-31.248-4.686-10.496-10.314-27.918 5.59-31.202 16.016-3.308 14.244 19.21 24.152 29.954 12.368 13.412 23.784 4.964 27.952 27.866z"/></svg>