<svg xmlns="http://www.w3.org/2000/svg" width="1024" height="1024"><path fill="#D09602" d="M244.36 414.914c-162-60.548-112.577-270.877 29.374-274.528 73.006-4.972 123.01 41.445 144.048 106.826h188.986c22.178-89.453 118.872-133.764 202.042-90.045 108.704 57.141 91.524 221.487-29.122 257.747v194.22c52.926 7.528 97.408 70.418 101.474 121.15 6.442 80.356-50.58 147.682-130.704 153.714-68.74 2.326-127.832-38.702-143.69-107.228H417.782C400.96 863.656 297.2 909.452 217.48 868.46c-112.085-57.632-95.668-222.394 26.88-259.326zm36.08-246.443c-100.016-.088-147.353 126.287-69.538 195.787-.298-40.04 2.992-71.144 48.84-78.564-56.982-32.164-7.342-116.32 48.412-82.688l.752.462c29.92 20.744 29.324 65.58-4.91 82.226 51.376 7.962 53.632 40.068 53.498 83.878 5.69 2.152 17.388 11.956 22.378 11.738 1.912-8.522-17.304-18.896-14.452-31.256 1.76-7.628 10.916-15.316 14.84-22.512 38.002-69.668-20.08-163.52-99.82-159.071m456.27 0c-81.484 1.411-129.87 91.873-91.642 163.333 2.626 4.908 14.554 20.824 13.624 25.702-1.664 8.732-10.202 15.32-13.86 23.544 30.284-22.566 26.396-11.27 52.808.722 8.71 3.954 18.088 6.376 27.33 8.73 7.456.152 14.994.69 22.44.256 57.344-3.348 104.344-50.072 105.444-108.168 1.158-61.094-52.998-120.075-116.144-114.119m-455.062 55.717a19.516 19.516 0 0 0-15.474 30.208 19.52 19.52 0 0 0 17.576 8.76c10.67-.694 18.794-9.846 18.218-20.522-.574-10.678-9.636-18.904-20.32-18.446M421.88 275.7c-3.004 2.116-1.992 17.596-2.504 21.718-2.566 20.62-10.852 39.396-22.032 56.692 6.43 10.52 13.928 19.82 10.772 32.914-6.506 26.988-34.646 28.5-53.624 12.912-32.274 13.902-44.062 19.568-82.146 19.414l-.034 164.732c-.02 6.736-.5 13.784.034 20.482 32.024-.114 51.552 4.754 79.09 20.112 10.976-4.666 24.284-15.884 36.678-11.166 7.37 2.806 17.932 13.14 20.996 20.436 5.216 12.414-7.862 22.604-11.766 33.386.174 5.042 11 21.81 13.856 28.646 6.858 16.41 9.64 34.85 9.428 52.532h180.496l1.44-.238c1.744-3.5 1.378-12.156 1.768-16.528 2.032-22.776 9.498-46.352 23.818-64.412-4.468-6.766-16.77-22.364-15.022-30.534 2.06-9.618 18.754-26.502 30.174-23.69 8.932 2.198 18.69 7.162 26.754 11.568 23.534-18.132 51.836-21.774 80.402-21.718V419.35c-21.626 1.158-42.636-2.204-62.574-10.824-6.036-2.608-11.602-6.484-17.828-8.59-15.668 3.386-24.698 16.21-42.18 4.882-20.404-13.222-13.242-32.048-1.246-48.242-14.858-24.692-25.498-51.496-23.612-80.876-60.342-.716-120.786.004-181.138 0m-160.74 38.732c-31.296 5.606-20.558 45.458-22.078 67.996 23.238 7.804 42.134 10.69 66.47 5.908 8.056-1.616 15.528-4.456 23.214-7.286l-.004-23.124c.032-53.83-24.268-43.566-67.602-43.494m479.058 317.586c-15.382.262-30.186 3.596-44.014 10.464-22.454 11.148-24.076 18.276-51.352.244 21.896 29.008 10.84 28.054-1.172 53.522-27.594 58.5-.52 131.16 60.998 152.876 6.678 2.358 13.756 3.696 20.312 6.344 9.314.036 18.76.578 28.046-.204 93.298-7.854 132.742-125.786 67.13-191.416-20.126-20.132-51.168-33.858-79.948-31.83m-469.848 1.498c-87.03 11.896-131.012 113.32-74.596 180.306 4.173 4.956 8.93 9.376 13.35 14.102-.108-43.976 1.846-70.164 50.638-79.414-24.092-9.872-32.052-40.316-22.33-63.014 12.54-29.276 47.922-36.712 73.118-19.732 28.4 21.532 27.406 65.044-4.998 82.746 20.38 7.368 32.976 8.86 43.794 32.116 6.77 14.55 5.202 31.636 5.166 47.298 39.224-32.98 49.478-93.764 21.666-137.16-19.324-30.154-14.56-21.56 2.392-48.038-29.576 15.44-23.848 14.506-51.586 1.212-17-8.148-37.76-12.324-56.614-10.422m10.846 51.814a20.445 20.445 0 1 0 2.034 40.838c11.19-.672 19.752-10.228 19.194-21.424s-10.026-19.856-21.228-19.414m-21.454 91.44c-23.564 6.27-22.732 24.258-22.75 44.826-.01 8.958-.222 17.982.034 26.936h66.97c4.76-.002 16.26 1.25 19.802-2.196 1.85-5.984 1.356-41.582.218-48.108-5.38-30.856-45.212-18.338-64.274-21.458"/><path fill="#D09602" d="M746.266 284.884c-23.034 2.96-44.084-13.372-46.936-36.42-2.854-23.046 13.576-44.02 36.636-46.766 22.91-2.728 43.716 13.572 46.55 36.468s-13.368 43.778-36.25 46.718m-8.24-54.958c-7.13 1.564-11.702 8.538-10.292 15.7 1.408 7.162 8.284 11.884 15.474 10.628a13.42 13.42 0 1 0-5.182-26.328"/><path fill="#D09602" d="M703.042 312.658c-5.502 6.356-16.118 18.428-22.958 22.624-11.034 6.768-22.676-5.022-19-16.682 1.914-6.072 30.73-35.82 39.006-40.008 15.008-1.266 30.142 24.13 43.458 34.066 4.66-5.364 9.956-10.256 14.91-15.356 8.182-8.422 19.784-26.242 32.594-14.96 7.494 6.598 30.842 28.988 36.016 36.606 5.786 8.526-3.72 20.428-13.09 20.206-8.952-.214-21.204-15.908-27.204-22.23l-4.174-4.266c-6.82 7.21-30.74 35.884-41.264 34.888-6.798-.644-33.028-28.674-38.294-34.888"/><path fill="#D09602" d="M521.72 644.456c-74.022 4.99-138.048-51.032-142.93-125.06-4.882-74.03 51.232-137.974 125.27-142.746 73.882-4.764 137.664 51.21 142.536 125.086s-51.008 137.74-124.876 142.72m-15.232-238.924c-57.974 3.46-102.19 53.22-98.81 111.198s53.08 102.264 111.062 98.962c58.096-3.306 102.486-53.124 99.098-111.214-3.386-58.092-53.264-102.412-111.35-98.946"/><path fill="#D09602" d="M494.852 474.526c9.022-7.594 22.322-11.91 27.854-22.892 6.118-12.146 2.84-20.77 19.262-24.542 25.132-2.258 25.606 30.726 24.37 47.434 16.022 4.722 45.046 9.558 26.474 34.48 5.256 9.386 3.148 16.338-4.404 23.748 3.57 8.228-.494 15.29-5.8 21.604-3.674 25.498-14.008 21.99-35.358 21.126-22.766-.924-29.256.648-50.11-9.746l-.848-.164c-12.712 8.482-39.342 9.742-49.992.946-12.65-10.448-9.772-27.22-9.8-41.726-.04-20.528-5.192-52.512 23.894-55.428 11.756-1.178 24.888-2.636 34.458 5.16m45.378-2.662c-9.748 12.62-24.848 22.9-39.504 28.974v35.18c11.38 5.876 19.8 13.108 33.024 13.068 8.334.022 16.754.302 25.076 0-2.338-10.548-.77-16.908 7.512-23.566-5.3-8.54-3.478-15.12 2.998-22.17-9.618-2.154-20.978-4.3-26.614-13.366-5.274-8.486-.844-12.438-2.492-18.12m-75.182 26.466c-.036 14.556-.878 29.644.258 44.12 1.588 1.08 4.216.66 6.088.56v-44.68z"/><path fill="#D09602" d="M757.924 732.49c-10.276-9.44-50.792-40.162-21.214-51.91 15.59-1.036 29.05 20.076 39.58 30.792 10.084 10.26 39.256 30.328 26.736 45.546-9.308 11.312-43.466 46.684-55.584 55.766-10.536 7.898-35.62-3.178-10.732-29.182l21.214-21.888c-16.196-.39-32.482 0-48.686.026-12.22.018-35.218 3.844-35.412-14.76-.194-18.544 24.35-14.426 36.352-14.42z"/></svg>