<svg width="67" height="63" viewBox="0 0 67 63" fill="none" xmlns="http://www.w3.org/2000/svg">
<path d="M41.1906 21.902L41.1178 21.904C38.7986 21.9603 37.0516 19.5612 37.0319 17.4113L37.0317 6.60411C37.0353 2.28522 38.1497 1.02452 42.4505 1.02596L57.2256 1.02744L60.625 1.0254C63.7183 1.02268 66.3582 1.45097 66.3885 5.2432L66.39 16.4502C66.3925 18.8359 66.0496 21.1513 63.1849 21.8019C62.2281 22.0193 60.4901 21.9003 59.4478 21.9001L52.418 21.902C51.9764 22.1599 51.5791 22.5314 51.1888 22.8607L47.5067 26.0022C46.5309 26.8386 45.5681 27.6899 44.5742 28.5052C44.0194 28.9431 43.0074 30.099 42.3211 30.1436C40.7382 30.246 41.1873 27.8088 41.1877 26.8622L41.1906 21.902ZM40.9931 3.16887C38.7084 3.42207 39.1901 5.97591 39.1896 7.60478L39.1911 16.0477C39.1921 17.6125 39.0733 19.5625 41.2417 19.8038C43.8419 20.0934 43.3528 20.0838 43.3518 22.8797L43.3489 26.7096C44.5863 25.696 50.896 20.0645 51.6398 19.8378C52.3094 19.6337 54.733 19.7423 55.5685 19.7433L60.3785 19.7459C63.2932 19.7481 64.248 19.972 64.2512 16.4018L64.2503 5.56436C64.2372 2.82256 62.4636 3.16655 60.3131 3.16769L40.9931 3.16887Z" fill="#785B44"/>
<path d="M52.1703 17.9147C52.0632 17.9218 51.956 17.9261 51.8488 17.9278C51.7415 17.9295 51.6342 17.9286 51.5269 17.9251C51.4198 17.9215 51.3127 17.9153 51.2058 17.9066C51.0988 17.8978 50.9922 17.8864 50.8858 17.8724C50.7794 17.8584 50.6735 17.8417 50.5679 17.8225C50.4624 17.8033 50.3574 17.7816 50.2529 17.7572C50.1484 17.7329 50.0446 17.706 49.9414 17.6765C49.8382 17.6471 49.7358 17.6151 49.6343 17.5807C49.5327 17.5461 49.432 17.5092 49.3322 17.4699C49.2324 17.4305 49.1336 17.3886 49.0359 17.3443C48.9381 17.3001 48.8415 17.2535 48.7462 17.2045C48.6507 17.1555 48.5565 17.1043 48.4636 17.0507C48.3706 16.9971 48.279 16.9413 48.1888 16.8832C48.0985 16.8252 48.0098 16.7649 47.9226 16.7024C47.8353 16.6399 47.7497 16.5754 47.6656 16.5088C47.5815 16.4422 47.4991 16.3736 47.4184 16.3029C47.3376 16.2322 47.2587 16.1596 47.1815 16.085C47.1044 16.0105 47.0291 15.9341 46.9557 15.856C46.8823 15.7777 46.8108 15.6977 46.7413 15.616C46.6718 15.5343 46.6044 15.4508 46.5389 15.3657C46.4735 15.2808 46.4103 15.1942 46.3491 15.1061C46.2879 15.018 46.2289 14.9284 46.1722 14.8373C46.1153 14.7462 46.0608 14.6538 46.0086 14.5601C45.9563 14.4665 45.9064 14.3715 45.8589 14.2754C45.8113 14.1793 45.7661 14.082 45.7233 13.9836C45.6803 13.8853 45.6399 13.7859 45.6019 13.6856C45.564 13.5852 45.5285 13.484 45.4956 13.3819C45.4626 13.2798 45.4321 13.177 45.4041 13.0735C45.3762 12.9699 45.3507 12.8656 45.3278 12.7608C45.3051 12.6559 45.2848 12.5506 45.267 12.4448C45.2493 12.339 45.2343 12.2328 45.2218 12.1264C45.2094 12.0198 45.1995 11.9129 45.1922 11.8059C45.185 11.6988 45.1804 11.5917 45.1783 11.4844C45.1764 11.3771 45.1771 11.2699 45.1804 11.1627C45.1835 11.0555 45.1894 10.9483 45.198 10.8414C45.2065 10.7345 45.2176 10.6278 45.2313 10.5214C45.245 10.415 45.2614 10.3089 45.2803 10.2034C45.2993 10.0978 45.3208 9.99271 45.3448 9.88815C45.369 9.78359 45.3956 9.67971 45.4247 9.57651C45.4539 9.4732 45.4856 9.37074 45.5199 9.26912C45.5541 9.1674 45.5907 9.06658 45.6298 8.96666C45.669 8.86675 45.7106 8.76791 45.7545 8.67015C45.7986 8.57227 45.845 8.47553 45.8937 8.37992C45.9424 8.28431 45.9934 8.19001 46.0468 8.097C46.1001 8.00388 46.1557 7.91213 46.2135 7.82173C46.2714 7.73144 46.3314 7.64257 46.3936 7.55512C46.4558 7.46767 46.5201 7.38186 46.5866 7.29769C46.653 7.21341 46.7214 7.13083 46.7919 7.04994C46.8624 6.96895 46.9347 6.88982 47.0091 6.81256C47.0834 6.73519 47.1595 6.65969 47.2376 6.58606C47.3156 6.51242 47.3955 6.44077 47.477 6.3711C47.5586 6.30132 47.6418 6.23364 47.7266 6.16805C47.8115 6.10234 47.8979 6.03879 47.9859 5.9774C48.074 5.91611 48.1634 5.85692 48.2542 5.79983C48.3451 5.74285 48.4373 5.68813 48.5309 5.63568C48.6244 5.58312 48.7193 5.53294 48.8153 5.48513C48.9114 5.43733 49.0085 5.39185 49.1067 5.34869C49.205 5.30564 49.3042 5.26503 49.4044 5.22685C49.5047 5.18856 49.6059 5.15282 49.7079 5.11963C49.8099 5.08633 49.9126 5.05557 50.0162 5.02736C50.1196 4.99911 50.2237 4.97342 50.3285 4.9503C50.4333 4.92718 50.5386 4.90664 50.6444 4.88869C50.7502 4.87072 50.8563 4.85536 50.9628 4.84261C51.0693 4.82985 51.176 4.81971 51.2831 4.81219C51.3905 4.80465 51.498 4.79974 51.6056 4.79748C51.7132 4.79521 51.8208 4.79559 51.9285 4.79861C52.036 4.80165 52.1434 4.80733 52.2508 4.81564C52.3581 4.82395 52.4651 4.8349 52.572 4.84847C52.6787 4.86205 52.785 4.87825 52.8911 4.89705C52.9971 4.91587 53.1026 4.93727 53.2075 4.96126C53.3124 4.98528 53.4166 5.01184 53.5203 5.04096C53.6239 5.07007 53.7268 5.10173 53.8289 5.13594C53.9309 5.17004 54.0321 5.20669 54.1323 5.24588C54.2326 5.28508 54.3318 5.32671 54.43 5.37077C54.5283 5.41473 54.6253 5.46112 54.7213 5.50994C54.8172 5.55876 54.9119 5.60991 55.0052 5.66338C55.0987 5.71685 55.1908 5.77258 55.2815 5.83058C55.3722 5.88858 55.4613 5.94879 55.549 6.01121C55.6368 6.07352 55.7229 6.13797 55.8074 6.20458C55.8919 6.27119 55.9748 6.33984 56.056 6.41053C56.1373 6.48133 56.2167 6.554 56.2943 6.62854C56.3719 6.70319 56.4475 6.77965 56.5213 6.85793C56.5951 6.93621 56.667 7.0163 56.7369 7.0982C56.8068 7.17999 56.8747 7.26348 56.9405 7.34866C57.0063 7.43385 57.07 7.52063 57.1315 7.60899C57.193 7.69735 57.2523 7.78712 57.3094 7.87831C57.3665 7.96962 57.4213 8.06222 57.4739 8.15613C57.5264 8.25004 57.5767 8.3452 57.6246 8.4416C57.6725 8.53801 57.718 8.63554 57.761 8.73421C57.8041 8.83288 57.8447 8.93251 57.8829 9.0331C57.921 9.13369 57.9567 9.23519 57.9899 9.3376C58.0231 9.44001 58.0538 9.54315 58.082 9.64703C58.1101 9.75102 58.1357 9.85558 58.1586 9.96071C58.1815 10.0658 58.2019 10.1715 58.2196 10.2776C58.2374 10.3839 58.2526 10.4904 58.2652 10.5972C58.2778 10.7042 58.2877 10.8113 58.2949 10.9187C58.3022 11.0261 58.3068 11.1336 58.3089 11.2412C58.3108 11.3489 58.3101 11.4565 58.3068 11.5641C58.3035 11.6717 58.2976 11.7792 58.289 11.8864C58.2804 11.9937 58.2692 12.1007 58.2553 12.2074C58.2415 12.3142 58.225 12.4206 58.2059 12.5265C58.1869 12.6324 58.1652 12.7379 58.1408 12.8427C58.1166 12.9475 58.0898 13.0517 58.0604 13.1552C58.031 13.2588 57.999 13.3616 57.9646 13.4636C57.9302 13.5656 57.8932 13.6666 57.8538 13.7668C57.8144 13.8669 57.7725 13.966 57.7282 14.0641C57.6839 14.1623 57.6373 14.2592 57.5882 14.3551C57.5392 14.4509 57.4878 14.5454 57.4341 14.6387C57.3804 14.732 57.3244 14.8239 57.2662 14.9144C57.208 15.0049 57.1476 15.094 57.0849 15.1816C57.0223 15.2691 56.9575 15.3551 56.8907 15.4395C56.8239 15.5239 56.755 15.6066 56.6842 15.6876C56.6133 15.7686 56.5404 15.8478 56.4655 15.9251C56.3908 16.0025 56.3141 16.078 56.2356 16.1516C56.1571 16.2253 56.0769 16.2969 55.9949 16.3666C55.9128 16.4364 55.8291 16.504 55.7437 16.5695C55.6584 16.6351 55.5715 16.6985 55.4831 16.7598C55.3945 16.8212 55.3045 16.8803 55.2132 16.9372C55.1218 16.9941 55.0291 17.0486 54.9351 17.1008C54.8409 17.1532 54.7456 17.2032 54.6491 17.2509C54.5526 17.2984 54.4549 17.3436 54.3561 17.3865C54.2574 17.4293 54.1576 17.4697 54.0569 17.5076C53.9562 17.5456 53.8546 17.581 53.7521 17.6138C53.6497 17.6468 53.5465 17.6772 53.4425 17.7051C53.3385 17.7329 53.2339 17.7582 53.1286 17.7808C53.0234 17.8036 52.9177 17.8237 52.8115 17.8412C52.7053 17.8587 52.5987 17.8736 52.4918 17.8859C52.3848 17.8981 52.2777 17.9077 52.1703 17.9147ZM51.1239 6.97841C51.0523 6.98826 50.9809 6.99987 50.9098 7.01324C50.8388 7.02672 50.7681 7.04184 50.6979 7.05861C50.6275 7.07549 50.5576 7.09407 50.4882 7.11434C50.4189 7.13462 50.35 7.15654 50.2816 7.1801C50.2133 7.20378 50.1456 7.2291 50.0785 7.25606C50.0115 7.28302 49.9451 7.31157 49.8794 7.3417C49.8137 7.37195 49.7488 7.40372 49.6846 7.43703C49.6205 7.47044 49.5572 7.50539 49.4947 7.54187C49.4323 7.57834 49.3708 7.61629 49.3103 7.65571C49.2497 7.69525 49.1901 7.7362 49.1315 7.77857C49.073 7.82105 49.0155 7.86489 48.9591 7.91009C48.9027 7.95529 48.8474 8.00185 48.7932 8.04976C48.7391 8.09768 48.6861 8.1469 48.6344 8.19743C48.5827 8.24795 48.5322 8.29966 48.483 8.35256C48.4338 8.40558 48.3859 8.45973 48.3394 8.51501C48.2928 8.5704 48.2477 8.62687 48.2039 8.68442C48.1601 8.74197 48.1177 8.80053 48.0768 8.86012C48.0359 8.91971 47.9965 8.98026 47.9586 9.04177C47.9206 9.10328 47.8842 9.1657 47.8493 9.22902C47.8144 9.29235 47.7811 9.35652 47.7492 9.42154C47.7175 9.48645 47.6874 9.55216 47.6588 9.61865C47.6303 9.68503 47.6034 9.7521 47.5781 9.81984C47.5529 9.88758 47.5293 9.95589 47.5074 10.0248C47.4855 10.0936 47.4652 10.163 47.4468 10.2329C47.4282 10.3028 47.4114 10.3732 47.3963 10.444C47.3812 10.5146 47.3679 10.5857 47.3564 10.657C47.3448 10.7284 47.335 10.8 47.3268 10.8718C47.3188 10.9436 47.3124 11.0156 47.3078 11.0878C47.3032 11.16 47.3005 11.2322 47.2994 11.3044C47.2984 11.3768 47.2992 11.4491 47.3017 11.5213C47.3042 11.5935 47.3084 11.6657 47.3144 11.7377C47.3205 11.8098 47.3283 11.8817 47.3379 11.9534C47.3474 12.0251 47.3587 12.0965 47.3718 12.1675C47.3849 12.2386 47.3996 12.3094 47.4162 12.3799C47.4326 12.4502 47.4508 12.5201 47.4707 12.5896C47.4907 12.6591 47.5123 12.7281 47.5356 12.7965C47.559 12.865 47.584 12.9328 47.6106 13.0001C47.6372 13.0673 47.6655 13.1338 47.6954 13.1996C47.7253 13.2654 47.7568 13.3305 47.7898 13.3948C47.8229 13.4591 47.8575 13.5225 47.8937 13.5851C47.9299 13.6477 47.9676 13.7094 48.0068 13.7702C48.046 13.8309 48.0867 13.8907 48.1288 13.9495C48.171 14.0081 48.2145 14.0658 48.2593 14.1224C48.3043 14.1791 48.3506 14.2346 48.3983 14.289C48.446 14.3433 48.495 14.3965 48.5451 14.4485C48.5954 14.5005 48.647 14.5512 48.6998 14.6006C48.7526 14.65 48.8065 14.6981 48.8615 14.745C48.9166 14.7918 48.9728 14.8372 49.0303 14.8813C49.0876 14.9254 49.1459 14.968 49.2053 15.0091C49.2648 15.0503 49.3251 15.09 49.3864 15.1282C49.4478 15.1665 49.5101 15.2032 49.5733 15.2385C49.6364 15.2736 49.7004 15.3072 49.7652 15.3392C49.83 15.3713 49.8956 15.4018 49.962 15.4307C50.0282 15.4595 50.0952 15.4867 50.1628 15.5122C50.2304 15.5378 50.2986 15.5617 50.3674 15.5839C50.4361 15.6062 50.5055 15.6268 50.5754 15.6456C50.6452 15.6644 50.7153 15.6815 50.7859 15.6969C50.8566 15.7123 50.9276 15.726 50.9988 15.738C51.0702 15.7499 51.1418 15.7601 51.2136 15.7685C51.2854 15.777 51.3574 15.7836 51.4296 15.7885C51.5016 15.7934 51.5738 15.7965 51.646 15.7979C51.7184 15.7992 51.7907 15.7988 51.8629 15.7967C51.9351 15.7945 52.0074 15.7906 52.0795 15.7849C52.1516 15.7792 52.2234 15.7717 52.2952 15.7625C52.3673 15.7532 52.4392 15.7422 52.5108 15.7294C52.5824 15.7166 52.6536 15.702 52.7244 15.6857C52.7953 15.6694 52.8658 15.6513 52.9358 15.6315C53.0058 15.6117 53.0752 15.5902 53.1441 15.5669C53.2131 15.5437 53.2814 15.5189 53.349 15.4923C53.4167 15.4657 53.4838 15.4375 53.55 15.4077C53.6164 15.3778 53.6819 15.3463 53.7466 15.3132C53.8114 15.2801 53.8754 15.2453 53.9385 15.2091C54.0015 15.1728 54.0636 15.1351 54.1249 15.0957C54.186 15.0564 54.2462 15.0157 54.3053 14.9734C54.3646 14.9311 54.4227 14.8875 54.4797 14.8424C54.5368 14.7972 54.5927 14.7506 54.6474 14.7027C54.7021 14.6549 54.7556 14.6057 54.808 14.5552C54.8603 14.5047 54.9113 14.4529 54.9611 14.3999C55.0109 14.3468 55.0593 14.2925 55.1063 14.2371C55.1535 14.1817 55.1992 14.1252 55.2435 14.0675C55.2878 14.0099 55.3306 13.9511 55.3721 13.8913C55.4136 13.8315 55.4535 13.7707 55.4919 13.709C55.5303 13.6473 55.5672 13.5846 55.6025 13.5211C55.6379 13.4575 55.6716 13.3931 55.7038 13.3279C55.736 13.2626 55.7665 13.1966 55.7955 13.1299C55.8244 13.0632 55.8517 12.9958 55.8773 12.9277C55.9029 12.8596 55.9268 12.791 55.949 12.7218C55.9713 12.6524 55.9918 12.5827 56.0105 12.5124C56.0293 12.4422 56.0463 12.3715 56.0616 12.3004C56.077 12.2293 56.0906 12.1579 56.1024 12.0861C56.1142 12.0144 56.1242 11.9424 56.1325 11.8701C56.1407 11.7978 56.1471 11.7254 56.1519 11.6528C56.1565 11.5802 56.1594 11.5075 56.1605 11.4348C56.1616 11.362 56.1609 11.2894 56.1585 11.2168C56.156 11.144 56.1517 11.0714 56.1456 10.9989C56.1396 10.9264 56.1318 10.8542 56.1221 10.7821C56.1125 10.7101 56.1011 10.6382 56.088 10.5666C56.0748 10.4952 56.0599 10.424 56.0433 10.3532C56.0266 10.2824 56.0082 10.2121 55.9881 10.1422C55.968 10.0723 55.9462 10.0029 55.9226 9.93403C55.8991 9.86526 55.8739 9.79707 55.847 9.72944C55.8201 9.66192 55.7915 9.59503 55.7614 9.52876C55.7313 9.46261 55.6995 9.39724 55.6661 9.33267C55.6326 9.2681 55.5976 9.20433 55.561 9.14134C55.5246 9.07847 55.4865 9.01656 55.4469 8.95562C55.4073 8.89456 55.3663 8.83452 55.3237 8.7755C55.2811 8.71659 55.2371 8.65871 55.1918 8.60184C55.1464 8.54508 55.0996 8.48941 55.0515 8.43481C55.0033 8.38032 54.9539 8.32702 54.9031 8.27491C54.8524 8.2228 54.8003 8.17199 54.747 8.12249C54.6937 8.07299 54.6393 8.02484 54.5837 7.97806C54.528 7.93116 54.4713 7.88567 54.4134 7.84161C54.3555 7.79766 54.2966 7.75506 54.2365 7.71383C54.1766 7.67271 54.1156 7.63306 54.0537 7.59488C53.9918 7.55682 53.929 7.52023 53.8652 7.48511C53.8016 7.45011 53.737 7.41669 53.6715 7.38486C53.6062 7.35291 53.5401 7.32267 53.4732 7.29412C53.4064 7.26546 53.3389 7.2385 53.2707 7.21324C53.2025 7.18798 53.1337 7.16436 53.0644 7.14238C52.9949 7.12052 52.9251 7.10035 52.8547 7.08189C52.7844 7.06342 52.7136 7.04671 52.6425 7.03176C52.5713 7.01681 52.4999 7.00355 52.428 6.992C52.3562 6.98056 52.2841 6.97087 52.2117 6.96294C52.1394 6.95513 52.067 6.94901 51.9944 6.94459C51.9218 6.94029 51.8491 6.93774 51.7764 6.93694C51.7037 6.93627 51.631 6.93728 51.5584 6.94C51.4856 6.94284 51.4131 6.94748 51.3407 6.95394C51.2682 6.96028 51.1959 6.96844 51.1239 6.97841Z" fill="#785B44"/>
<path d="M14.1958 12.9884C14.1338 12.9941 14.0716 12.9983 14.0093 13.001C13.947 13.0037 13.8846 13.0048 13.8223 13.0044C13.76 13.0041 13.6977 13.0022 13.6354 12.9988C13.5732 12.9954 13.5112 12.9904 13.4492 12.9838C13.3871 12.9774 13.3253 12.9694 13.2636 12.96C13.202 12.9505 13.1407 12.9395 13.0796 12.9271C13.0186 12.9145 12.9578 12.9005 12.8975 12.8851C12.8371 12.8696 12.7771 12.8527 12.7175 12.8343C12.6579 12.8158 12.5988 12.796 12.5403 12.7747C12.4817 12.7534 12.4237 12.7307 12.3663 12.7065C12.3087 12.6824 12.2519 12.6569 12.1957 12.6301C12.1394 12.6031 12.0838 12.5748 12.029 12.5451C11.9742 12.5155 11.9201 12.4846 11.8667 12.4523C11.8134 12.42 11.7609 12.3864 11.7092 12.3516C11.6575 12.3168 11.6067 12.2807 11.5568 12.2433C11.5069 12.2059 11.458 12.1674 11.41 12.1278C11.3619 12.088 11.3149 12.0471 11.2688 12.0051C11.2228 11.9631 11.1778 11.9199 11.1338 11.8756C11.0899 11.8314 11.0471 11.7862 11.0054 11.7398C10.9637 11.6935 10.9231 11.6462 10.8837 11.5978C10.8444 11.5494 10.8062 11.5001 10.7692 11.4499C10.7323 11.3998 10.6965 11.3487 10.662 11.2968C10.6275 11.2449 10.5943 11.1921 10.5624 11.1387C10.5306 11.0851 10.5 11.0308 10.4708 10.9757C10.4416 10.9206 10.4137 10.8649 10.3872 10.8085C10.3607 10.7521 10.3355 10.695 10.3118 10.6374C10.2881 10.5797 10.2658 10.5215 10.245 10.4627C10.224 10.404 10.2046 10.3448 10.1867 10.2851C10.1687 10.2254 10.1521 10.1653 10.1371 10.1048C10.1221 10.0444 10.1086 9.98353 10.0965 9.92235C10.0845 9.86118 10.0739 9.79973 10.0649 9.73799C10.0558 9.67636 10.0483 9.61451 10.0423 9.55243C10.0363 9.49035 10.0318 9.42822 10.0288 9.36603C10.0258 9.30372 10.0243 9.24142 10.0244 9.17911C10.0244 9.1167 10.026 9.05439 10.0292 8.9922C10.0323 8.9299 10.037 8.8677 10.0431 8.80563C10.0492 8.74366 10.0569 8.68181 10.0661 8.62007C10.0753 8.55845 10.086 8.49705 10.0982 8.43588C10.1104 8.37482 10.1241 8.31404 10.1393 8.25355C10.1545 8.19306 10.1711 8.13302 10.1892 8.07343C10.2073 8.01373 10.2268 7.95454 10.2479 7.89586C10.2688 7.83718 10.2913 7.77901 10.3152 7.72135C10.3389 7.66381 10.3642 7.60683 10.3909 7.55041C10.4176 7.49411 10.4455 7.43843 10.4749 7.38338C10.5042 7.32844 10.5349 7.27423 10.567 7.22076C10.599 7.1673 10.6323 7.11462 10.6669 7.06274C10.7014 7.01085 10.7373 6.95988 10.7745 6.90981C10.8115 6.85962 10.8498 6.81046 10.8893 6.76232C10.9289 6.71406 10.9695 6.66682 11.0113 6.6206C11.0531 6.57438 11.096 6.52918 11.14 6.485C11.184 6.44082 11.2291 6.39778 11.2752 6.35586C11.3214 6.31395 11.3686 6.27317 11.4166 6.23352C11.4647 6.19387 11.5138 6.15547 11.5639 6.11831C11.6139 6.08104 11.6647 6.04507 11.7165 6.01041C11.7683 5.97563 11.8208 5.94216 11.8742 5.90999C11.9277 5.87782 11.9819 5.847 12.0368 5.81755C12.0916 5.78798 12.1472 5.75983 12.2035 5.7331C12.2598 5.70625 12.3167 5.68082 12.3743 5.6568C12.4318 5.6329 12.4899 5.61036 12.5486 5.58917C12.6072 5.56799 12.6663 5.54828 12.726 5.53004C12.7856 5.5118 12.8456 5.49498 12.906 5.47957C12.9664 5.46428 13.0272 5.45046 13.0883 5.43811C13.1493 5.42577 13.2107 5.41489 13.2723 5.40549C13.334 5.3962 13.3959 5.38838 13.4579 5.38204C13.5203 5.3757 13.5828 5.37088 13.6455 5.3676C13.7081 5.36431 13.7708 5.36256 13.8336 5.36233C13.8962 5.3621 13.9589 5.36346 14.0217 5.36641C14.0843 5.36924 14.1468 5.37366 14.2093 5.37966C14.2717 5.38566 14.3339 5.3932 14.396 5.40226C14.4581 5.41121 14.5199 5.42174 14.5816 5.43387C14.6431 5.44599 14.7042 5.45958 14.7651 5.47465C14.826 5.48971 14.8865 5.50631 14.9465 5.52443C15.0066 5.54245 15.0662 5.56199 15.1253 5.58306C15.1844 5.60401 15.243 5.62644 15.301 5.65035C15.359 5.67425 15.4164 5.69957 15.4731 5.7263C15.5299 5.75304 15.586 5.78113 15.6414 5.81058C15.6968 5.84015 15.7514 5.87102 15.8052 5.90319C15.859 5.93536 15.912 5.96884 15.9642 6.00361C16.0164 6.03839 16.0677 6.07441 16.1182 6.11168C16.1686 6.14895 16.2181 6.18747 16.2667 6.22723C16.3152 6.26699 16.3627 6.30794 16.4092 6.35008C16.4557 6.39211 16.5011 6.43533 16.5455 6.47973C16.5899 6.52403 16.6332 6.5694 16.6753 6.61584C16.7175 6.66229 16.7585 6.70975 16.7984 6.75824C16.8381 6.80672 16.8767 6.85617 16.9141 6.90658C16.9515 6.95688 16.9876 7.00813 17.0225 7.06036C17.0573 7.11247 17.0908 7.16543 17.1231 7.21924C17.1554 7.27304 17.1862 7.32765 17.2157 7.38304C17.2453 7.43832 17.2735 7.49434 17.3003 7.55109C17.327 7.60773 17.3524 7.66505 17.3764 7.72305C17.4004 7.78105 17.423 7.83956 17.4441 7.89858C17.4651 7.95771 17.4847 8.0173 17.5029 8.07734C17.5211 8.13738 17.5378 8.19781 17.553 8.25865C17.5682 8.31959 17.5818 8.38082 17.5939 8.44233C17.6061 8.50384 17.6167 8.56564 17.6259 8.62772C17.6351 8.6898 17.6426 8.75204 17.6486 8.81446C17.6546 8.87688 17.6592 8.93941 17.6622 9.00206C17.6652 9.0647 17.6666 9.1274 17.6665 9.19016C17.6664 9.25292 17.6647 9.31562 17.6616 9.37826C17.6584 9.44091 17.6536 9.50344 17.6473 9.56586C17.6411 9.62827 17.6332 9.69047 17.6238 9.75243C17.6145 9.81451 17.6037 9.8763 17.5914 9.93781C17.5789 9.99933 17.565 10.0605 17.5496 10.1213C17.5342 10.182 17.5173 10.2424 17.4989 10.3025C17.4806 10.3624 17.4608 10.4219 17.4395 10.4809C17.4182 10.5399 17.3955 10.5984 17.3713 10.6562C17.3471 10.7141 17.3215 10.7714 17.2945 10.828C17.2676 10.8847 17.2392 10.9406 17.2094 10.9957C17.1796 11.051 17.1485 11.1055 17.1161 11.1592C17.0837 11.2129 17.05 11.2658 17.0148 11.3177C16.9798 11.3697 16.9436 11.4209 16.9061 11.4712C16.8685 11.5214 16.8297 11.5706 16.7897 11.619C16.7497 11.6674 16.7086 11.7147 16.6663 11.7611C16.624 11.8073 16.5805 11.8525 16.536 11.8967C16.4915 11.9409 16.4459 11.9839 16.3992 12.0258C16.3525 12.0677 16.3048 12.1085 16.2561 12.1482C16.2074 12.1877 16.1578 12.226 16.1073 12.2632C16.0568 12.3004 16.0053 12.3362 15.953 12.3708C15.9007 12.4053 15.8475 12.4386 15.7936 12.4707C15.7396 12.5026 15.6849 12.5333 15.6295 12.5626C15.574 12.5918 15.5178 12.6197 15.4609 12.6462C15.404 12.6727 15.3466 12.6978 15.2886 12.7215C15.2305 12.7453 15.1718 12.7675 15.1126 12.7883C15.0534 12.8091 14.9938 12.8285 14.9336 12.8464C14.8735 12.8642 14.8129 12.8805 14.752 12.8955C14.691 12.9103 14.6298 12.9237 14.5683 12.9356C14.5067 12.9475 14.4448 12.9578 14.3827 12.9665C14.3206 12.9753 14.2583 12.9826 14.1958 12.9884ZM13.5161 7.53444C13.4892 7.53988 13.4624 7.54599 13.4358 7.55279C13.409 7.55948 13.3825 7.56684 13.3562 7.57488C13.33 7.58292 13.3039 7.59165 13.2781 7.60105C13.2521 7.61034 13.2265 7.62025 13.2011 7.63079C13.1757 7.64132 13.1506 7.65254 13.1258 7.66443C13.101 7.67621 13.0765 7.68856 13.0523 7.70147C13.028 7.7145 13.0041 7.72809 12.9804 7.74225C12.9568 7.75641 12.9337 7.77114 12.9109 7.78643C12.888 7.80173 12.8655 7.81753 12.8434 7.83384C12.8213 7.85027 12.7996 7.8672 12.7783 7.88465C12.7572 7.90209 12.7364 7.92005 12.716 7.93851C12.6956 7.95698 12.6757 7.9759 12.6562 7.99527C12.6367 8.01475 12.6177 8.03469 12.5992 8.05508C12.5808 8.07536 12.5628 8.09614 12.5452 8.11744C12.5278 8.13863 12.5108 8.16026 12.4944 8.18235C12.478 8.20444 12.4621 8.22687 12.4468 8.24964C12.4315 8.27252 12.4168 8.29575 12.4025 8.31931C12.3883 8.34287 12.3747 8.36672 12.3617 8.39085C12.3487 8.41509 12.3363 8.43961 12.3245 8.46442C12.3126 8.48923 12.3013 8.51432 12.2907 8.5397C12.2801 8.56507 12.2702 8.59073 12.2608 8.61667C12.2515 8.6425 12.2427 8.66856 12.2346 8.69484C12.2266 8.72112 12.2191 8.74757 12.2123 8.77419C12.2055 8.80081 12.1994 8.8276 12.1938 8.85456C12.1884 8.88152 12.1836 8.9086 12.1794 8.93579C12.1752 8.96297 12.1717 8.99027 12.1688 9.01769C12.166 9.04499 12.1638 9.07235 12.1624 9.09976C12.1609 9.12729 12.1601 9.15481 12.1598 9.18234C12.1597 9.20976 12.1602 9.23723 12.1614 9.26475C12.1626 9.29217 12.1645 9.31958 12.167 9.347C12.1695 9.37441 12.1726 9.40171 12.1765 9.4289C12.1803 9.4562 12.1849 9.48333 12.1901 9.51029C12.1953 9.53725 12.2011 9.5641 12.2076 9.59084C12.214 9.61757 12.2212 9.64413 12.229 9.67053C12.2367 9.69692 12.2451 9.72309 12.2541 9.74903C12.2632 9.77497 12.2729 9.80069 12.2832 9.82618C12.2935 9.85166 12.3044 9.87693 12.316 9.90196C12.3275 9.92688 12.3397 9.95152 12.3525 9.97588C12.3652 10.0002 12.3785 10.0243 12.3925 10.0481C12.4064 10.0718 12.4209 10.0951 12.436 10.1181C12.451 10.1411 12.4666 10.1638 12.4827 10.1861C12.4989 10.2083 12.5156 10.2301 12.5328 10.2515C12.55 10.2729 12.5678 10.2939 12.586 10.3145C12.6042 10.3352 12.623 10.3553 12.6422 10.3749C12.6615 10.3946 12.6812 10.4138 12.7014 10.4325C12.7215 10.4511 12.7422 10.4693 12.7632 10.487C12.7843 10.5047 12.8058 10.5218 12.8276 10.5385C12.8495 10.5551 12.8717 10.5712 12.8944 10.5867C12.9171 10.6023 12.9401 10.6173 12.9636 10.6318C12.987 10.6462 13.0107 10.66 13.0348 10.6732C13.0589 10.6865 13.0833 10.6992 13.108 10.7113C13.1327 10.7234 13.1577 10.7349 13.1829 10.7458C13.2082 10.7567 13.2337 10.7669 13.2594 10.7764C13.2852 10.786 13.3112 10.795 13.3374 10.8034C13.3636 10.8118 13.39 10.8195 13.4166 10.8265C13.4432 10.8336 13.4699 10.84 13.4968 10.8457C13.5236 10.8515 13.5506 10.8566 13.5778 10.861C13.6049 10.8655 13.6321 10.8693 13.6596 10.8724C13.6869 10.8756 13.7142 10.878 13.7416 10.8797C13.769 10.8815 13.7965 10.8826 13.824 10.8831C13.8516 10.8835 13.879 10.8833 13.9065 10.8824C13.934 10.8815 13.9615 10.8799 13.9889 10.8777C14.0163 10.8754 14.0436 10.8725 14.0708 10.869C14.0981 10.8654 14.1253 10.8611 14.1523 10.8562C14.1889 10.8497 14.2252 10.8419 14.2613 10.8328C14.2973 10.8237 14.333 10.8135 14.3683 10.8022C14.4036 10.7909 14.4386 10.7784 14.4731 10.7647C14.5077 10.7511 14.5417 10.7363 14.5753 10.7203C14.6089 10.7044 14.6419 10.6875 14.6743 10.6693C14.7068 10.6512 14.7387 10.6321 14.7698 10.6119C14.801 10.5917 14.8315 10.5705 14.8612 10.5483C14.891 10.5261 14.9201 10.503 14.9484 10.4788C14.9766 10.4548 15.004 10.4299 15.0307 10.4039C15.0573 10.378 15.0831 10.3512 15.108 10.3235C15.1328 10.296 15.1567 10.2676 15.1797 10.2384C15.2027 10.2092 15.2247 10.1793 15.2456 10.1487C15.2667 10.1181 15.2867 10.0868 15.3056 10.0549C15.3245 10.0228 15.3424 9.99026 15.3591 9.95719C15.376 9.92411 15.3917 9.89046 15.4064 9.85625C15.4209 9.82204 15.4343 9.78744 15.4466 9.75243C15.459 9.71743 15.4701 9.68203 15.4801 9.64623C15.4901 9.61043 15.4989 9.57435 15.5064 9.53799C15.514 9.50163 15.5204 9.46504 15.5256 9.42822C15.5309 9.39152 15.5348 9.35459 15.5375 9.31743C15.5403 9.28039 15.5418 9.24334 15.5421 9.2063C15.5425 9.16915 15.5416 9.13199 15.5394 9.09483C15.5373 9.05779 15.5339 9.02086 15.5294 8.98404C15.5247 8.94711 15.519 8.91041 15.512 8.87393C15.505 8.83746 15.4968 8.80126 15.4874 8.76535C15.478 8.72933 15.4675 8.6937 15.4558 8.65847C15.4441 8.62324 15.4313 8.58841 15.4172 8.55397C15.4032 8.51965 15.3881 8.48578 15.3719 8.45236C15.3555 8.41894 15.3382 8.38609 15.3199 8.3538C15.3014 8.32152 15.2819 8.28991 15.2614 8.25899C15.2409 8.22795 15.2194 8.19765 15.197 8.16808C15.1745 8.13851 15.151 8.10974 15.1267 8.08176C15.1023 8.05378 15.077 8.02659 15.0509 8.0002C15.0247 7.9738 14.9977 7.94837 14.9698 7.9239C14.942 7.89932 14.9133 7.87564 14.8838 7.85287C14.8544 7.83022 14.8243 7.80852 14.7934 7.78779C14.7626 7.76718 14.7311 7.74752 14.699 7.72883C14.6668 7.71025 14.6341 7.69269 14.6009 7.67615C14.5676 7.65973 14.5338 7.64438 14.4995 7.63011C14.4652 7.61595 14.4304 7.60286 14.3951 7.59085C14.36 7.57896 14.3245 7.5682 14.2886 7.55857C14.2528 7.54894 14.2167 7.5405 14.1802 7.53325C14.1437 7.526 14.1071 7.52 14.0703 7.51524C14.0334 7.51037 13.9965 7.50674 13.9595 7.50436C13.9223 7.50198 13.8852 7.50085 13.8482 7.50097C13.811 7.50097 13.7739 7.50227 13.7369 7.50487C13.6997 7.50737 13.6627 7.51105 13.6259 7.51592C13.5891 7.5209 13.5525 7.52708 13.5161 7.53444Z" fill="#785B44"/>
<path d="M23.622 13.0561C23.5593 13.063 23.4964 13.0684 23.4334 13.0723C23.3704 13.0761 23.3074 13.0784 23.2443 13.0791C23.1812 13.0798 23.1182 13.0791 23.0552 13.0767C22.9921 13.0743 22.9291 13.0704 22.8662 13.0649C22.8034 13.0595 22.7406 13.0525 22.6781 13.044C22.6157 13.0354 22.5535 13.0254 22.4914 13.0138C22.4294 13.0022 22.3677 12.9892 22.3063 12.9746C22.2449 12.9598 22.1839 12.9437 22.1233 12.9261C22.0627 12.9085 22.0026 12.8894 21.943 12.8689C21.8833 12.8482 21.8242 12.8262 21.7656 12.8026C21.7071 12.7791 21.6491 12.7543 21.5918 12.728C21.5345 12.7016 21.4778 12.6738 21.4219 12.6447C21.3658 12.6156 21.3105 12.5851 21.256 12.5533C21.2016 12.5215 21.1479 12.4883 21.0951 12.4539C21.0422 12.4195 20.9902 12.3837 20.9391 12.3467C20.888 12.3096 20.8379 12.2714 20.7888 12.2318C20.7395 12.1924 20.6913 12.1517 20.6442 12.1098C20.5969 12.068 20.5508 12.025 20.5057 11.9808C20.4606 11.9368 20.4166 11.8916 20.3736 11.8452C20.3307 11.7989 20.289 11.7516 20.2484 11.7034C20.208 11.655 20.1687 11.6057 20.1305 11.5554C20.0923 11.5051 20.0554 11.4539 20.0199 11.4018C19.9842 11.3498 19.9499 11.2969 19.9169 11.243C19.8839 11.1892 19.8523 11.1347 19.8219 11.0794C19.7915 11.024 19.7626 10.9679 19.7351 10.9112C19.7074 10.8544 19.6813 10.7971 19.6566 10.7391C19.6318 10.6811 19.6084 10.6224 19.5866 10.5632C19.5647 10.5041 19.5443 10.4444 19.5254 10.3841C19.5064 10.3239 19.4889 10.2633 19.4729 10.2023C19.457 10.1412 19.4426 10.0798 19.4296 10.0181C19.4166 9.95634 19.4053 9.89432 19.3954 9.83202C19.3854 9.76971 19.377 9.70718 19.3702 9.64442C19.3635 9.58166 19.3582 9.51879 19.3544 9.45581C19.3507 9.39282 19.3485 9.32978 19.3478 9.26669C19.3473 9.20359 19.3482 9.14055 19.3505 9.07756C19.353 9.01446 19.3571 8.95148 19.3626 8.88861C19.3682 8.82574 19.3752 8.76304 19.3838 8.70051C19.3926 8.63809 19.4028 8.57584 19.4144 8.51376C19.4261 8.4518 19.4393 8.39012 19.454 8.32872C19.4687 8.26743 19.485 8.20649 19.5028 8.14588C19.5205 8.08528 19.5397 8.02518 19.5604 7.96559C19.581 7.90601 19.6032 7.84693 19.6268 7.78837C19.6504 7.72991 19.6754 7.67203 19.7018 7.6147C19.7282 7.55738 19.756 7.50074 19.7852 7.44478C19.8144 7.38894 19.845 7.33377 19.877 7.27928C19.9089 7.2249 19.9422 7.17132 19.9767 7.11853C20.0113 7.06563 20.0471 7.01369 20.0843 6.96272C20.1213 6.91163 20.1596 6.86155 20.1991 6.8125C20.2388 6.76334 20.2796 6.71514 20.3215 6.6679C20.3634 6.62078 20.4064 6.57473 20.4506 6.52975C20.4949 6.48467 20.5402 6.44072 20.5866 6.3979C20.6329 6.35519 20.6803 6.31356 20.7288 6.273C20.7771 6.23256 20.8265 6.19331 20.8768 6.15525C20.9272 6.11718 20.9784 6.08042 21.0306 6.04497C21.0827 6.0094 21.1356 5.97513 21.1894 5.94216C21.2434 5.90931 21.298 5.87776 21.3534 5.84752C21.4087 5.81727 21.4648 5.78839 21.5216 5.76086C21.5784 5.73344 21.6358 5.70739 21.6939 5.68269C21.752 5.658 21.8107 5.63478 21.87 5.61303C21.9291 5.59128 21.9888 5.57094 22.0491 5.55202C22.1093 5.53322 22.17 5.51589 22.2311 5.50003C22.2921 5.48417 22.3535 5.46984 22.4152 5.45704C22.4771 5.44412 22.5392 5.4328 22.6015 5.42305C22.6638 5.4132 22.7263 5.40493 22.7891 5.39824C22.8517 5.39156 22.9145 5.38641 22.9774 5.38278C23.0401 5.37916 23.103 5.37706 23.166 5.37649C23.2289 5.37593 23.2919 5.37695 23.3547 5.37955C23.4177 5.38204 23.4805 5.38612 23.5432 5.39179C23.6059 5.39734 23.6685 5.40447 23.731 5.4132C23.7933 5.42192 23.8553 5.43211 23.9172 5.44378C23.979 5.45556 24.0406 5.46882 24.1019 5.48354C24.1631 5.49838 24.2238 5.51464 24.2842 5.53231C24.3447 5.5501 24.4047 5.5693 24.4642 5.58992C24.5236 5.61065 24.5825 5.63279 24.6409 5.65636C24.6992 5.67992 24.757 5.7049 24.8142 5.73129C24.8714 5.75769 24.9279 5.7855 24.9836 5.81472C25.0395 5.84384 25.0945 5.87436 25.1488 5.90631C25.2032 5.93814 25.2567 5.97128 25.3094 6.00571C25.362 6.04027 25.4138 6.07606 25.4647 6.11311C25.5156 6.15015 25.5656 6.18838 25.6145 6.2278C25.6636 6.26734 25.7117 6.30801 25.7588 6.34981C25.8058 6.39172 25.8518 6.43471 25.8968 6.47878C25.9418 6.52284 25.9856 6.56804 26.0283 6.61437C26.071 6.66059 26.1126 6.70783 26.153 6.75609C26.1934 6.80446 26.2325 6.85374 26.2706 6.90392C26.3086 6.95411 26.3453 7.0052 26.3807 7.05719C26.4163 7.10919 26.4505 7.16203 26.4833 7.21573C26.5162 7.26942 26.5477 7.32391 26.578 7.37919C26.6082 7.43436 26.6371 7.49032 26.6647 7.54708C26.6921 7.60372 26.7181 7.66098 26.7428 7.71887C26.7675 7.77675 26.7907 7.83526 26.8125 7.8944C26.8344 7.95342 26.8547 8.013 26.8735 8.07316C26.8924 8.13319 26.9098 8.19369 26.9257 8.25463C26.9416 8.31546 26.9561 8.37669 26.969 8.43832C26.9819 8.50005 26.9933 8.56196 27.0031 8.62404C27.013 8.68623 27.0213 8.74865 27.0281 8.81129C27.0349 8.87394 27.0402 8.93664 27.0439 8.9994C27.0477 9.06227 27.0499 9.1252 27.0505 9.18818C27.0512 9.25117 27.0503 9.31409 27.0478 9.37697C27.0453 9.43995 27.0414 9.50282 27.0359 9.56558C27.0304 9.62822 27.0233 9.69075 27.0147 9.75317C27.0061 9.81559 26.996 9.87772 26.9844 9.93958C26.9728 10.0014 26.9596 10.063 26.945 10.1243C26.9303 10.1855 26.9142 10.2463 26.8966 10.3068C26.8789 10.3673 26.8598 10.4273 26.8392 10.4867C26.8187 10.5462 26.7966 10.6052 26.7731 10.6636C26.7496 10.7221 26.7248 10.7799 26.6985 10.8371C26.6722 10.8943 26.6445 10.9508 26.6154 11.0067C26.5863 11.0625 26.5558 11.1176 26.5241 11.172C26.4923 11.2263 26.4592 11.2798 26.4247 11.3326C26.3904 11.3854 26.3547 11.4373 26.3177 11.4882C26.2807 11.5392 26.2426 11.5892 26.2031 11.6383C26.1637 11.6875 26.1232 11.7356 26.0815 11.7827C26.0397 11.8298 25.9968 11.8759 25.9527 11.9209C25.9087 11.9658 25.8636 12.0097 25.8174 12.0526C25.7712 12.0954 25.724 12.1371 25.6759 12.1776C25.6276 12.2181 25.5784 12.2573 25.5282 12.2954C25.4781 12.3334 25.4271 12.3703 25.3751 12.4058C25.3231 12.4414 25.2703 12.4757 25.2168 12.5086C25.1631 12.5417 25.1086 12.5734 25.0535 12.6036C24.9983 12.634 24.9424 12.6629 24.8857 12.6904C24.8292 12.7181 24.772 12.7442 24.714 12.7689C24.6561 12.7938 24.5976 12.8171 24.5386 12.839C24.4796 12.8609 24.42 12.8814 24.36 12.9003C24.3 12.9193 24.2395 12.9368 24.1787 12.9528C24.1178 12.9688 24.0565 12.9833 23.9948 12.9963C23.9332 13.0093 23.8713 13.0208 23.8091 13.0308C23.747 13.0408 23.6847 13.0492 23.622 13.0561ZM22.9403 7.53875C22.9128 7.54283 22.8854 7.54759 22.8582 7.55302C22.8309 7.55846 22.8038 7.56458 22.7768 7.57138C22.7499 7.57806 22.7231 7.58548 22.6965 7.59363C22.6698 7.60168 22.6435 7.6104 22.6173 7.6198C22.5911 7.6292 22.5652 7.63923 22.5395 7.64988C22.5139 7.66053 22.4885 7.6718 22.4633 7.68369C22.4382 7.69559 22.4134 7.70811 22.3889 7.72125C22.3644 7.73439 22.3403 7.74809 22.3164 7.76237C22.2926 7.77675 22.2691 7.79165 22.246 7.80706C22.2229 7.82258 22.2002 7.83866 22.1779 7.85531C22.1556 7.87185 22.1337 7.88896 22.1123 7.90663C22.0908 7.9243 22.0697 7.94248 22.0492 7.96118C22.0286 7.97987 22.0085 7.99907 21.9889 8.01878C21.9693 8.03849 21.9502 8.05865 21.9315 8.07927C21.9129 8.09989 21.8948 8.12096 21.8773 8.14248C21.8596 8.16401 21.8426 8.18598 21.8261 8.20841C21.8096 8.23073 21.7936 8.2535 21.7782 8.27672C21.7628 8.29983 21.748 8.32334 21.7337 8.34724C21.7195 8.37114 21.7059 8.39533 21.6929 8.41979C21.6799 8.44438 21.6674 8.46924 21.6555 8.49439C21.6437 8.51954 21.6326 8.54497 21.6221 8.57069C21.6114 8.5964 21.6014 8.6224 21.5921 8.64868C21.5829 8.67485 21.5742 8.70124 21.5663 8.72786C21.5583 8.75448 21.551 8.78128 21.5444 8.80824C21.5377 8.83531 21.5317 8.8625 21.5264 8.8898C21.5211 8.91699 21.5164 8.94434 21.5123 8.97187C21.5083 8.9994 21.505 9.02704 21.5024 9.05479C21.4998 9.08243 21.4979 9.11013 21.4967 9.13789C21.4954 9.16564 21.4948 9.19345 21.495 9.22132C21.4951 9.24907 21.4959 9.27682 21.4973 9.30458C21.4988 9.33233 21.501 9.36003 21.5038 9.38767C21.5066 9.41531 21.5101 9.4429 21.5143 9.47042C21.5185 9.49795 21.5234 9.52531 21.5289 9.55249C21.5345 9.57979 21.5407 9.60687 21.5476 9.63372C21.5544 9.66068 21.562 9.68747 21.5702 9.71409C21.5784 9.7406 21.5872 9.76694 21.5967 9.7931C21.6063 9.81916 21.6164 9.84504 21.6272 9.87076C21.6379 9.89636 21.6493 9.92168 21.6613 9.94671C21.6733 9.97186 21.6859 9.99661 21.699 10.021C21.7123 10.0454 21.7262 10.0696 21.7407 10.0934C21.755 10.1171 21.77 10.1405 21.7855 10.1635C21.8012 10.1866 21.8173 10.2093 21.8339 10.2315C21.8506 10.2537 21.8678 10.2755 21.8856 10.2969C21.9034 10.3183 21.9217 10.3393 21.9405 10.3598C21.9593 10.3803 21.9786 10.4003 21.9983 10.4198C22.0181 10.4394 22.0383 10.4584 22.0589 10.4769C22.0797 10.4954 22.1008 10.5135 22.1225 10.5309C22.1441 10.5485 22.1661 10.5655 22.1886 10.5819C22.211 10.5983 22.2338 10.6142 22.2571 10.6295C22.2803 10.6448 22.3038 10.6595 22.3277 10.6736C22.3516 10.6877 22.3759 10.7012 22.4005 10.7143C22.4252 10.7272 22.4501 10.7395 22.4752 10.7511C22.5005 10.7629 22.526 10.774 22.5517 10.7844C22.5774 10.7948 22.6034 10.8046 22.6297 10.8138C22.656 10.823 22.6824 10.8316 22.709 10.8395C22.7357 10.8473 22.7625 10.8545 22.7896 10.8611C22.8165 10.8676 22.8437 10.8735 22.871 10.8787C22.8983 10.8839 22.9258 10.8885 22.9534 10.8923C22.9809 10.8963 23.0085 10.8995 23.0361 10.902C23.0638 10.9045 23.0915 10.9063 23.1194 10.9075C23.1472 10.9086 23.1749 10.909 23.2027 10.9088C23.2305 10.9086 23.2583 10.9077 23.2861 10.9061C23.3139 10.9045 23.3416 10.9022 23.3692 10.8993C23.3968 10.8964 23.4244 10.8927 23.4518 10.8884C23.4791 10.8841 23.5063 10.8792 23.5333 10.8736C23.5604 10.868 23.5874 10.8617 23.6142 10.8548C23.641 10.8478 23.6675 10.8402 23.6939 10.832C23.7203 10.8237 23.7465 10.8148 23.7724 10.8053C23.7984 10.7958 23.8241 10.7857 23.8496 10.7749C23.875 10.764 23.9003 10.7526 23.9252 10.7406C23.9501 10.7286 23.9747 10.716 23.9989 10.7029C24.0232 10.6896 24.0471 10.6758 24.0708 10.6614C24.0944 10.647 24.1176 10.6321 24.1405 10.6165C24.1633 10.601 24.1858 10.5849 24.2079 10.5683C24.23 10.5516 24.2517 10.5345 24.273 10.5168C24.2943 10.4991 24.3151 10.4809 24.3354 10.4623C24.3558 10.4435 24.3756 10.4242 24.395 10.4047C24.4145 10.3849 24.4335 10.3648 24.4519 10.3442C24.4703 10.3235 24.4882 10.3025 24.5056 10.2809C24.5231 10.2595 24.54 10.2376 24.5563 10.2152C24.5726 10.193 24.5883 10.1703 24.6035 10.1472C24.6188 10.1241 24.6335 10.1007 24.6475 10.0769C24.6616 10.0531 24.675 10.029 24.688 10.0045C24.7009 9.98002 24.7132 9.95521 24.7248 9.93006C24.7365 9.90503 24.7475 9.87971 24.758 9.85411C24.7684 9.82851 24.7782 9.80268 24.7874 9.77662C24.7965 9.75045 24.8051 9.72412 24.813 9.69761C24.8208 9.6711 24.828 9.64442 24.8346 9.61757C24.8412 9.59073 24.8471 9.56377 24.8524 9.53669C24.8577 9.5095 24.8622 9.4822 24.8662 9.45479C24.8701 9.42749 24.8733 9.40007 24.8759 9.37255C24.8785 9.34491 24.8804 9.31732 24.8815 9.28979C24.8827 9.26215 24.8833 9.23451 24.8832 9.20687C24.8831 9.17912 24.8823 9.15148 24.8808 9.12395C24.8793 9.09631 24.8772 9.06873 24.8744 9.0412C24.8715 9.01367 24.868 8.98626 24.8638 8.95896C24.8596 8.93166 24.8548 8.90441 24.8494 8.87722C24.8438 8.85015 24.8377 8.82325 24.8309 8.79651C24.8241 8.76966 24.8166 8.74304 24.8084 8.71665C24.8003 8.69014 24.7915 8.66392 24.7821 8.63797C24.7727 8.61192 24.7627 8.58615 24.752 8.56066C24.7413 8.53517 24.7299 8.50997 24.718 8.48504C24.7061 8.46001 24.6936 8.43532 24.6805 8.41096C24.6675 8.3866 24.6537 8.36259 24.6394 8.33891C24.6251 8.31535 24.6102 8.29207 24.5948 8.26907C24.5794 8.24608 24.5635 8.22354 24.5469 8.20145C24.5304 8.17924 24.5133 8.15749 24.4956 8.1362C24.478 8.1149 24.46 8.094 24.4414 8.07349C24.4227 8.0531 24.4036 8.03311 24.384 8.01351C24.3644 7.99403 24.3443 7.97505 24.3238 7.95659C24.3032 7.93801 24.2822 7.92 24.2608 7.90255C24.2394 7.88499 24.2176 7.868 24.1954 7.85158C24.1731 7.83515 24.1505 7.81929 24.1274 7.804C24.1044 7.7887 24.081 7.77398 24.0572 7.75982C24.0335 7.74566 24.0095 7.73206 23.985 7.71904C23.9606 7.70601 23.9359 7.69361 23.9109 7.68182C23.8859 7.67004 23.8605 7.65889 23.8349 7.64835C23.8095 7.63782 23.7837 7.6279 23.7576 7.61861C23.7316 7.60932 23.7053 7.60071 23.6788 7.59279C23.6524 7.58474 23.6258 7.57738 23.5989 7.5707C23.5721 7.56401 23.5451 7.55801 23.5179 7.55268C23.4908 7.54725 23.4636 7.54255 23.4361 7.53858C23.4088 7.5345 23.3814 7.5311 23.3539 7.52839C23.3264 7.52578 23.2988 7.5238 23.2711 7.52244C23.2435 7.52108 23.2159 7.5204 23.1882 7.5204C23.1606 7.5204 23.1329 7.52108 23.1053 7.52244C23.0777 7.5238 23.0501 7.52584 23.0226 7.52856C22.995 7.53127 22.9676 7.53467 22.9403 7.53875Z" fill="#785B44"/>
<path d="M51.075 11.3065C52.0053 10.4698 52.9066 9.59864 53.797 8.71997C54.3501 9.25302 54.8926 9.79795 55.498 10.2722C53.9975 11.5667 52.6291 13.0701 51.075 14.2922C50.6972 13.9449 50.309 13.6142 49.9734 13.2246C49.3419 12.8085 48.7691 12.2479 48.2378 11.7114C48.7309 11.2394 49.1773 10.6224 49.7686 10.2722C50.2286 10.5628 50.6458 10.9689 51.075 11.3065Z" fill="#785B44"/>
<path d="M26.395 13.3313C26.7955 13.3418 27.1943 13.3384 27.5948 13.3313H34.9436V15.4444H33.824H27.5948C27.3148 14.7048 26.8008 14.0108 26.395 13.3313Z" fill="#785B44"/>
<path d="M2.95015 28.7729C0.468105 28.1372 0.603771 26.2078 0.605708 24.254L0.602275 18.3417C0.591163 16.2074 0.98477 14.5933 3.48131 14.4871L12.446 14.4862C16.5433 14.4862 19.4238 13.5238 19.434 18.7951L19.4361 23.6272C19.4352 25.6458 19.823 28.3002 17.2961 28.9913C16.4196 29.2312 13.7167 29.1124 12.6248 29.1104C10.4732 29.1007 10.3099 28.666 8.70874 30.0031L6.68188 31.7092C6.0314 32.2657 4.84845 33.6351 3.94984 32.7945C3.18889 32.0827 2.96392 29.7768 2.95015 28.7729ZM10.6769 16.6587L5.8982 16.6573C5.09355 16.6575 2.86942 16.2806 2.74841 17.2733C2.63407 18.2112 2.72502 19.2886 2.72623 20.2401L2.72485 26.1872L2.76795 26.2246C3.74418 27.0565 4.83399 26.4307 4.98845 28.2693C5.03943 28.8759 5.04913 29.4878 5.16349 30.0876C6.01723 29.4375 6.77821 28.6783 7.68411 28.0966L7.72149 28.0545C8.94612 26.6953 9.59148 26.9576 11.2309 26.9636L14.6902 26.9683C17.4008 26.9704 17.2993 27.1704 17.2881 24.6521L17.2849 18.9217C17.2835 16.2481 17.3022 16.6568 14.4538 16.657L10.6769 16.6587Z" fill="#785B44"/>
<path d="M25.3202 22.9788C25.257 22.9868 25.1937 22.9933 25.1303 22.9983C25.0667 23.0033 25.0031 23.0067 24.9395 23.0085C24.8758 23.0105 24.8121 23.0107 24.7485 23.0094C24.6848 23.0081 24.6212 23.0053 24.5576 23.0009C24.4942 22.9965 24.4308 22.9905 24.3675 22.9829C24.3043 22.9753 24.2413 22.9662 24.1785 22.9555C24.1157 22.9449 24.0531 22.9327 23.9909 22.919C23.9288 22.9053 23.867 22.89 23.8056 22.8731C23.7442 22.8563 23.6832 22.8381 23.6226 22.8184C23.5621 22.7986 23.5021 22.7773 23.4426 22.7545C23.3831 22.7317 23.3242 22.7075 23.2659 22.6819C23.2076 22.6563 23.1499 22.6293 23.0931 22.6007C23.0361 22.5723 22.9799 22.5424 22.9243 22.5112C22.8688 22.4799 22.8141 22.4473 22.7602 22.4133C22.7064 22.3794 22.6534 22.3442 22.6012 22.3076C22.549 22.271 22.4978 22.2332 22.4475 22.1941C22.3973 22.155 22.348 22.1147 22.2997 22.0733C22.2513 22.0317 22.2041 21.989 22.158 21.9452C22.1118 21.9013 22.0666 21.8564 22.0226 21.8104C21.9786 21.7643 21.9358 21.7172 21.8941 21.669C21.8525 21.6209 21.8121 21.5717 21.7728 21.5215C21.7336 21.4714 21.6956 21.4203 21.6589 21.3683C21.6221 21.3162 21.5867 21.2632 21.5526 21.2094C21.5185 21.1557 21.4857 21.1012 21.4544 21.0458C21.4229 20.9904 21.3928 20.9342 21.3641 20.8774C21.3355 20.8205 21.3082 20.763 21.2824 20.7047C21.2566 20.6465 21.2322 20.5877 21.2093 20.5282C21.1863 20.4688 21.1649 20.4089 21.1449 20.3484C21.125 20.2879 21.1065 20.227 21.0895 20.1656C21.0725 20.1042 21.0571 20.0424 21.0431 19.9804C21.0292 19.9182 21.0168 19.8557 21.0059 19.7929C20.9951 19.7302 20.9858 19.6672 20.9781 19.604C20.9704 19.5408 20.9642 19.4774 20.9595 19.4138C20.9549 19.3504 20.9518 19.2868 20.9504 19.223C20.9488 19.1593 20.9488 19.0957 20.9505 19.032C20.9521 18.9684 20.9553 18.9048 20.9601 18.8414C20.9649 18.7778 20.9713 18.7144 20.9791 18.6512C20.987 18.588 20.9965 18.5251 21.0075 18.4624C21.0184 18.3997 21.031 18.3372 21.045 18.275C21.0591 18.2129 21.0747 18.1513 21.0919 18.09C21.109 18.0286 21.1276 17.9677 21.1476 17.9073C21.1678 17.8468 21.1894 17.7869 21.2124 17.7275C21.2355 17.6682 21.26 17.6094 21.286 17.5513C21.3119 17.4931 21.3393 17.4356 21.368 17.3788C21.3968 17.322 21.427 17.2659 21.4586 17.2106C21.4901 17.1552 21.523 17.1007 21.5573 17.047C21.5915 16.9933 21.6271 16.9405 21.6639 16.8886C21.7007 16.8366 21.7388 16.7856 21.7782 16.7355C21.8175 16.6855 21.8581 16.6364 21.8999 16.5884C21.9417 16.5402 21.9846 16.4932 22.0287 16.4472C22.0728 16.4013 22.118 16.3565 22.1643 16.3128C22.2105 16.2689 22.2578 16.2263 22.3062 16.185C22.3547 16.1435 22.404 16.1033 22.4543 16.0643C22.5048 16.0254 22.5561 15.9877 22.6083 15.9513C22.6605 15.9149 22.7136 15.8797 22.7677 15.8458C22.8216 15.8121 22.8763 15.7796 22.9318 15.7484C22.9874 15.7173 23.0437 15.6876 23.1007 15.6592C23.1578 15.6309 23.2155 15.604 23.2739 15.5784C23.3322 15.5529 23.3912 15.5289 23.4508 15.5063C23.5102 15.4837 23.5703 15.4625 23.6309 15.4429C23.6915 15.4232 23.7525 15.405 23.8139 15.3884C23.8754 15.3717 23.9373 15.3566 23.9994 15.343C24.0617 15.3294 24.1243 15.3174 24.187 15.3068C24.2499 15.2963 24.313 15.2873 24.3762 15.28C24.439 15.2726 24.502 15.2668 24.5651 15.2625C24.6282 15.2582 24.6914 15.2554 24.7546 15.2543C24.8178 15.2532 24.881 15.2535 24.9442 15.2553C25.0075 15.2573 25.0707 15.2607 25.1337 15.2657C25.1968 15.2707 25.2597 15.2773 25.3225 15.2854C25.3851 15.2935 25.4476 15.303 25.5099 15.3141C25.5722 15.3252 25.6342 15.3379 25.6958 15.352C25.7574 15.3662 25.8187 15.3819 25.8796 15.3991C25.9405 15.4162 26.0008 15.4348 26.0608 15.455C26.1208 15.475 26.1803 15.4966 26.2392 15.5197C26.2981 15.5427 26.3564 15.5671 26.414 15.593C26.4718 15.6189 26.5289 15.6462 26.5853 15.6749C26.6416 15.7035 26.6972 15.7336 26.7522 15.7649C26.8071 15.7963 26.8613 15.829 26.9146 15.8631C26.9679 15.8971 27.0203 15.9324 27.072 15.969C27.1235 16.0057 27.1742 16.0436 27.2239 16.0827C27.2736 16.1218 27.3224 16.162 27.3702 16.2035C27.4179 16.245 27.4646 16.2876 27.5102 16.3313C27.556 16.375 27.6005 16.4199 27.6439 16.4659C27.6874 16.5117 27.7298 16.5587 27.771 16.6067C27.8122 16.6548 27.8521 16.7037 27.891 16.7537C27.9297 16.8037 27.9673 16.8545 28.0037 16.9063C28.0399 16.9582 28.0749 17.0109 28.1087 17.0643C28.1423 17.1178 28.1747 17.1721 28.2059 17.2273C28.2369 17.2823 28.2666 17.3381 28.2949 17.3947C28.3232 17.4513 28.3501 17.5086 28.3756 17.5664C28.4012 17.6242 28.4253 17.6827 28.448 17.7418C28.4707 17.8008 28.4919 17.8603 28.5117 17.9204C28.5314 17.9805 28.5497 18.0411 28.5664 18.102C28.5833 18.163 28.5986 18.2243 28.6123 18.2861C28.6261 18.3478 28.6384 18.4099 28.6492 18.4723C28.6599 18.5346 28.6692 18.5971 28.6769 18.6599C28.6846 18.7226 28.6908 18.7856 28.6954 18.8487C28.7001 18.9118 28.7031 18.9749 28.7046 19.0381C28.7062 19.1013 28.7062 19.1646 28.7046 19.2279C28.703 19.2911 28.6999 19.3543 28.6952 19.4174C28.6906 19.4805 28.6844 19.5434 28.6765 19.6062C28.6688 19.6689 28.6596 19.7315 28.6488 19.7938C28.6381 19.8561 28.6258 19.9181 28.612 19.9798C28.598 20.0416 28.5827 20.1029 28.5659 20.1639C28.549 20.2248 28.5308 20.2854 28.511 20.3455C28.4912 20.4056 28.4699 20.4651 28.4472 20.5241C28.4245 20.5831 28.4004 20.6416 28.3748 20.6995C28.3493 20.7573 28.3223 20.8146 28.2939 20.8711C28.2656 20.9276 28.2358 20.9834 28.2047 21.0385C28.1736 21.0936 28.1412 21.1479 28.1075 21.2014C28.0737 21.2549 28.0387 21.3075 28.0023 21.3593C27.966 21.411 27.9285 21.4619 27.8896 21.5119C27.8508 21.5618 27.8108 21.6108 27.7697 21.6588C27.7284 21.7068 27.6861 21.7537 27.6426 21.7995C27.5991 21.8455 27.5544 21.8904 27.5087 21.9341C27.463 21.9778 27.4163 22.0204 27.3685 22.0619C27.3207 22.1034 27.2719 22.1436 27.2222 22.1825C27.1725 22.2216 27.1218 22.2595 27.0701 22.296C27.0186 22.3326 26.9661 22.3679 26.9128 22.4019C26.8594 22.4359 26.8053 22.4686 26.7503 22.5C26.6954 22.5313 26.6397 22.5614 26.5833 22.59C26.5269 22.6187 26.4698 22.6459 26.4122 22.6717C26.3544 22.6976 26.2961 22.722 26.2371 22.745C26.1782 22.768 26.1188 22.7895 26.0587 22.8096C25.9988 22.8296 25.9384 22.8482 25.8774 22.8655C25.8166 22.8826 25.7554 22.8981 25.6937 22.9122C25.632 22.9263 25.57 22.939 25.5078 22.9501C25.4455 22.9612 25.383 22.9708 25.3202 22.9788ZM24.5158 17.4619C24.4884 17.467 24.4611 17.4729 24.4339 17.4794C24.4067 17.4859 24.3798 17.493 24.3531 17.5009C24.3262 17.5087 24.2996 17.5172 24.2732 17.5263C24.2468 17.5355 24.2206 17.5453 24.1947 17.5556C24.1687 17.566 24.1431 17.5771 24.1179 17.5889C24.0925 17.6005 24.0674 17.6128 24.0426 17.6257C24.0178 17.6387 23.9934 17.6521 23.9694 17.6662C23.9452 17.6803 23.9215 17.6951 23.8982 17.7104C23.8747 17.7257 23.8517 17.7415 23.8292 17.7578C23.8065 17.7742 23.7843 17.7912 23.7626 17.8087C23.7408 17.8262 23.7195 17.8442 23.6987 17.8628C23.6778 17.8814 23.6575 17.9005 23.6375 17.92C23.6176 17.9395 23.5981 17.9595 23.5792 17.98C23.5602 18.0005 23.5417 18.0215 23.5238 18.0429C23.5059 18.0644 23.4885 18.0863 23.4717 18.1085C23.4549 18.1308 23.4386 18.1535 23.4229 18.1765C23.4072 18.1996 23.392 18.223 23.3774 18.2468C23.3629 18.2707 23.3489 18.2949 23.3354 18.3194C23.322 18.3438 23.3093 18.3686 23.2972 18.3938C23.2849 18.4189 23.2734 18.4444 23.2625 18.4701C23.2516 18.4958 23.2414 18.5217 23.2317 18.5479C23.2221 18.5742 23.2131 18.6006 23.2047 18.6273C23.1963 18.6539 23.1886 18.6807 23.1816 18.7078C23.1747 18.7349 23.1684 18.7621 23.1626 18.7894C23.1569 18.8167 23.1519 18.8441 23.1476 18.8718C23.1433 18.8993 23.1397 18.927 23.1368 18.9549C23.1338 18.9826 23.1315 19.0104 23.1298 19.0383C23.1282 19.0662 23.1273 19.094 23.1271 19.1219C23.1268 19.1499 23.1273 19.1778 23.1286 19.2057C23.1297 19.2337 23.1315 19.2615 23.134 19.2893C23.1365 19.3171 23.1397 19.3449 23.1435 19.3725C23.1475 19.4002 23.1521 19.4277 23.1573 19.4551C23.1625 19.4825 23.1684 19.5098 23.175 19.537C23.1816 19.5641 23.1888 19.5911 23.1967 19.6179C23.2047 19.6446 23.2132 19.6712 23.2224 19.6976C23.2317 19.724 23.2415 19.7501 23.252 19.7759C23.2625 19.8018 23.2737 19.8274 23.2854 19.8527C23.2972 19.8781 23.3096 19.9032 23.3225 19.9278C23.3355 19.9525 23.3491 19.9769 23.3633 20.0009C23.3775 20.025 23.3923 20.0488 23.4076 20.0721C23.423 20.0954 23.4389 20.1184 23.4554 20.1409C23.4719 20.1635 23.4889 20.1856 23.5065 20.2072C23.5241 20.2289 23.5421 20.2502 23.5607 20.2709C23.5794 20.2918 23.5985 20.3122 23.6181 20.3321C23.6377 20.3519 23.6578 20.3713 23.6785 20.3902C23.699 20.4091 23.72 20.4275 23.7415 20.4453C23.7629 20.4632 23.7848 20.4805 23.8071 20.4973C23.8295 20.514 23.8523 20.5302 23.8754 20.5459C23.8985 20.5615 23.922 20.5766 23.9459 20.5911C23.9697 20.6056 23.9939 20.6195 24.0185 20.6329C24.0431 20.6461 24.0679 20.6588 24.0931 20.6709C24.1182 20.683 24.1437 20.6945 24.1694 20.7052C24.1952 20.7161 24.2212 20.7263 24.2474 20.7358C24.2736 20.7453 24.3001 20.7542 24.3267 20.7625C24.3535 20.7708 24.3804 20.7784 24.4074 20.7853C24.4344 20.7923 24.4616 20.7986 24.489 20.8041C24.5164 20.8097 24.5439 20.8146 24.5714 20.8189C24.599 20.8231 24.6267 20.8267 24.6545 20.8296C24.6822 20.8325 24.7101 20.8346 24.7379 20.8361C24.7659 20.8377 24.7938 20.8385 24.8217 20.8386C24.8497 20.8387 24.8776 20.8382 24.9055 20.8369C24.9333 20.8357 24.9612 20.8338 24.9891 20.8312C25.0168 20.8285 25.0445 20.8253 25.0722 20.8213C25.0998 20.8173 25.1273 20.8127 25.1547 20.8074C25.182 20.802 25.2092 20.7961 25.2361 20.7895C25.2632 20.7828 25.2901 20.7755 25.3167 20.7676C25.3434 20.7597 25.3699 20.7511 25.396 20.7418C25.4223 20.7325 25.4483 20.7226 25.474 20.7122C25.4997 20.7017 25.5252 20.6905 25.5505 20.6787C25.5756 20.6669 25.6005 20.6545 25.6251 20.6415C25.6497 20.6286 25.674 20.6151 25.698 20.6009C25.7219 20.5867 25.7454 20.572 25.7687 20.5566C25.7919 20.5413 25.8147 20.5254 25.8372 20.509C25.8596 20.4924 25.8816 20.4754 25.9031 20.458C25.9247 20.4404 25.9459 20.4224 25.9666 20.4038C25.9874 20.3852 26.0076 20.3662 26.0273 20.3467C26.0471 20.3271 26.0664 20.3071 26.0852 20.2866C26.104 20.266 26.1223 20.2451 26.1401 20.2237C26.1578 20.2023 26.175 20.1805 26.1918 20.1583C26.2084 20.1361 26.2246 20.1134 26.2402 20.0903C26.2558 20.0673 26.2708 20.0439 26.2852 20.0201C26.2997 19.9963 26.3136 19.9723 26.3269 19.9479C26.3401 19.9234 26.3527 19.8986 26.3648 19.8735C26.3769 19.8484 26.3883 19.8231 26.3991 19.7975C26.4098 19.7719 26.42 19.746 26.4297 19.7199C26.4392 19.6937 26.4481 19.6674 26.4563 19.6408C26.4646 19.6143 26.4722 19.5876 26.4791 19.5606C26.486 19.5337 26.4923 19.5066 26.498 19.4794C26.5035 19.4521 26.5085 19.4247 26.5128 19.3972C26.5171 19.3698 26.5206 19.3422 26.5235 19.3146C26.5264 19.2868 26.5287 19.2591 26.5303 19.2313C26.5318 19.2036 26.5328 19.1758 26.533 19.1481C26.5331 19.1202 26.5326 19.0924 26.5315 19.0646C26.5303 19.0368 26.5285 19.009 26.526 18.9814C26.5234 18.9536 26.5202 18.926 26.5163 18.8985C26.5125 18.8709 26.5079 18.8435 26.5027 18.8162C26.4975 18.7889 26.4916 18.7617 26.4851 18.7347C26.4785 18.7077 26.4713 18.6808 26.4635 18.6541C26.4556 18.6275 26.4471 18.601 26.438 18.5748C26.4288 18.5485 26.419 18.5224 26.4086 18.4966C26.3981 18.4709 26.387 18.4454 26.3753 18.4201C26.3636 18.3949 26.3513 18.3699 26.3384 18.3454C26.3255 18.3207 26.312 18.2963 26.298 18.2723C26.2838 18.2484 26.2691 18.2248 26.254 18.2016C26.2387 18.1783 26.2228 18.1554 26.2064 18.133C26.1901 18.1104 26.1732 18.0883 26.1558 18.0667C26.1383 18.0451 26.1203 18.0239 26.1017 18.0031C26.0833 17.9823 26.0643 17.962 26.0448 17.9421C26.0253 17.9223 26.0053 17.903 25.9848 17.8842C25.9644 17.8653 25.9436 17.8469 25.9223 17.8291C25.9009 17.8112 25.8791 17.7939 25.8569 17.7771C25.8347 17.7604 25.8121 17.7442 25.7891 17.7285C25.7662 17.7128 25.7428 17.6977 25.7191 17.6832C25.6954 17.6687 25.6713 17.6547 25.6468 17.6414C25.6225 17.628 25.5978 17.6153 25.5728 17.6031C25.5477 17.591 25.5224 17.5795 25.4968 17.5687C25.4712 17.5578 25.4454 17.5475 25.4193 17.5379C25.3931 17.5283 25.3668 17.5193 25.3403 17.511C25.3138 17.5027 25.2871 17.495 25.2601 17.4879C25.2332 17.4809 25.2062 17.4746 25.1789 17.4689C25.1517 17.4631 25.1244 17.4581 25.097 17.4538C25.0694 17.4494 25.0419 17.4457 25.0142 17.4427C24.9866 17.4397 24.9589 17.4374 24.9311 17.4358C24.9034 17.4341 24.8756 17.4331 24.8477 17.4329C24.8199 17.4325 24.7921 17.4329 24.7643 17.4339C24.7365 17.435 24.7088 17.4368 24.681 17.4392C24.6534 17.4417 24.6258 17.4448 24.5982 17.4485C24.5706 17.4524 24.5431 17.4568 24.5158 17.4619Z" fill="#785B44"/>
<path d="M7.65252 23.5674C7.62296 23.5722 7.59322 23.5762 7.56331 23.5795C7.53352 23.5827 7.50367 23.5853 7.47376 23.5871C7.44386 23.5889 7.4139 23.59 7.38388 23.5903C7.35386 23.5907 7.32389 23.5903 7.29399 23.5891C7.26397 23.588 7.234 23.5861 7.2041 23.5835C7.17419 23.5809 7.1444 23.5776 7.11472 23.5735C7.08504 23.5694 7.05547 23.5647 7.02602 23.5592C6.9965 23.5537 6.96715 23.5474 6.93798 23.5404C6.90881 23.5334 6.87983 23.5257 6.85103 23.5173C6.82225 23.5089 6.79369 23.4998 6.76534 23.4899C6.737 23.4802 6.70891 23.4697 6.68108 23.4585C6.65326 23.4473 6.62573 23.4354 6.5985 23.4228C6.57125 23.4102 6.54434 23.397 6.51775 23.3832C6.49116 23.3693 6.46493 23.3547 6.43906 23.3395C6.41319 23.3244 6.3877 23.3086 6.36261 23.2921C6.33751 23.2757 6.31283 23.2587 6.28858 23.2411C6.26432 23.2235 6.24052 23.2052 6.21716 23.1864C6.19381 23.1676 6.17093 23.1483 6.14853 23.1283C6.12612 23.1084 6.10422 23.0879 6.08283 23.0668C6.06145 23.0457 6.04059 23.0242 6.02025 23.0022C5.99992 22.9801 5.98014 22.9576 5.96092 22.9346C5.94169 22.9116 5.92305 22.8881 5.90499 22.8641C5.88693 22.8402 5.86946 22.8158 5.85261 22.791C5.83574 22.7662 5.8195 22.741 5.80387 22.7154C5.78825 22.6898 5.77327 22.6638 5.75893 22.6374C5.74459 22.6111 5.7309 22.5845 5.71788 22.5574C5.70485 22.5304 5.6925 22.5031 5.68082 22.4755C5.66914 22.4478 5.65814 22.4199 5.64784 22.3917C5.63753 22.3636 5.62792 22.3352 5.61902 22.3066C5.61011 22.2779 5.60192 22.2491 5.59443 22.2201C5.58694 22.191 5.58017 22.1617 5.57412 22.1324C5.56807 22.1031 5.56275 22.0736 5.55817 22.0439C5.55357 22.0142 5.54971 21.9845 5.54658 21.9547C5.54345 21.9249 5.54106 21.895 5.53941 21.865C5.53775 21.835 5.53684 21.8051 5.53665 21.7751C5.53647 21.745 5.53703 21.7151 5.53832 21.6852C5.53962 21.6552 5.54166 21.6252 5.54444 21.5955C5.5472 21.5655 5.5507 21.5358 5.55494 21.5061C5.55918 21.4764 5.56414 21.4468 5.56984 21.4174C5.57554 21.3879 5.58196 21.3586 5.58909 21.3295C5.59623 21.3004 5.60408 21.2715 5.61264 21.2427C5.62121 21.2139 5.63047 21.1854 5.64044 21.1571C5.65042 21.1288 5.66108 21.1009 5.67242 21.0731C5.68377 21.0454 5.6958 21.0179 5.70851 20.9907C5.72121 20.9635 5.73457 20.9367 5.7486 20.9102C5.76262 20.8837 5.77729 20.8575 5.79261 20.8317C5.80792 20.8059 5.82387 20.7806 5.84044 20.7555C5.857 20.7305 5.87417 20.7059 5.89194 20.6818C5.90972 20.6577 5.92808 20.6339 5.94703 20.6106C5.96597 20.5874 5.98547 20.5646 6.00554 20.5423C6.02561 20.52 6.04622 20.4982 6.06735 20.477C6.08849 20.4557 6.11015 20.4349 6.13232 20.4147C6.15447 20.3945 6.17712 20.3748 6.20025 20.3557C6.22338 20.3367 6.24697 20.3182 6.27101 20.3003C6.29504 20.2823 6.31951 20.265 6.34441 20.2483C6.36931 20.2315 6.39461 20.2154 6.4203 20.1999C6.44598 20.1845 6.47204 20.1696 6.49846 20.1554C6.52488 20.1412 6.55163 20.1277 6.57872 20.1148C6.60581 20.102 6.63321 20.0898 6.66089 20.0782C6.68858 20.0667 6.71654 20.0558 6.74477 20.0456C6.77298 20.0355 6.80144 20.0261 6.83013 20.0174C6.85882 20.0086 6.8877 20.0005 6.91678 19.9933C6.94587 19.9859 6.97515 19.9793 7.00461 19.9734C7.03395 19.9675 7.06346 19.9623 7.09314 19.9579C7.12259 19.9535 7.15216 19.9498 7.18184 19.9469C7.2114 19.9439 7.24108 19.9417 7.27088 19.9402C7.30067 19.9387 7.33041 19.9379 7.36009 19.9379C7.38988 19.9379 7.41967 19.9385 7.44947 19.9399C7.47926 19.9414 7.50894 19.9435 7.5385 19.9464C7.56818 19.9492 7.59775 19.9528 7.6272 19.9571C7.65666 19.9614 7.686 19.9664 7.71522 19.9722C7.74445 19.978 7.77356 19.9844 7.80256 19.9916C7.83145 19.9987 7.86017 20.0066 7.88871 20.0152C7.91715 20.0238 7.94541 20.033 7.9735 20.0429C8.0016 20.0528 8.02941 20.0635 8.05694 20.0748C8.08446 20.0862 8.11171 20.0982 8.13867 20.1108C8.16563 20.1235 8.19231 20.1368 8.2187 20.1508C8.24498 20.1647 8.27092 20.1793 8.29653 20.1944C8.32213 20.2097 8.34733 20.2256 8.37214 20.242C8.39695 20.2585 8.42136 20.2755 8.44538 20.2932C8.46939 20.3108 8.49296 20.3291 8.51607 20.3479C8.53917 20.3667 8.56177 20.3861 8.58386 20.406C8.60607 20.4259 8.6277 20.4464 8.64877 20.4673C8.66996 20.4883 8.69063 20.5098 8.7108 20.5317C8.73085 20.5537 8.75039 20.5762 8.76942 20.599C8.78834 20.622 8.80674 20.6454 8.82464 20.6692C8.84254 20.6931 8.85982 20.7174 8.87647 20.7421C8.89312 20.7667 8.90915 20.7917 8.92456 20.8172C8.94008 20.8427 8.95492 20.8685 8.96908 20.8947C8.98324 20.921 8.99677 20.9475 9.00969 20.9744C9.02249 21.0012 9.03467 21.0284 9.04622 21.0558C9.05778 21.0832 9.06865 21.1109 9.07885 21.1389C9.08904 21.1669 9.09856 21.1951 9.10739 21.2237C9.11623 21.2521 9.12433 21.2807 9.13169 21.3095C9.13917 21.3384 9.14591 21.3674 9.15191 21.3966C9.15792 21.4258 9.16318 21.455 9.16772 21.4845C9.17225 21.5139 9.1761 21.5435 9.17927 21.573C9.18233 21.6027 9.18471 21.6324 9.18641 21.6621C9.18811 21.6919 9.18907 21.7217 9.1893 21.7514C9.18941 21.7812 9.18884 21.811 9.1876 21.8407C9.18635 21.8704 9.18442 21.9002 9.18182 21.9299C9.1791 21.9595 9.17564 21.9891 9.17145 22.0186C9.16726 22.0481 9.16239 22.0775 9.15684 22.1068C9.15129 22.136 9.145 22.1651 9.13798 22.1941C9.13096 22.223 9.12325 22.2517 9.11487 22.2802C9.10637 22.3089 9.09725 22.3373 9.08751 22.3654C9.07766 22.3935 9.06718 22.4213 9.05608 22.449C9.04486 22.4766 9.03302 22.5039 9.02056 22.5309C9.00799 22.558 8.99485 22.5847 8.98114 22.6111C8.96732 22.6375 8.95282 22.6635 8.93764 22.6891C8.92257 22.7148 8.90688 22.7401 8.89057 22.765C8.87426 22.7899 8.85732 22.8145 8.83977 22.8386C8.82232 22.8626 8.80425 22.8862 8.78556 22.9095C8.76687 22.9327 8.74761 22.9554 8.72779 22.9776C8.70808 22.9999 8.6878 23.0217 8.66696 23.043C8.646 23.0642 8.62459 23.0849 8.60272 23.1052C8.58086 23.1254 8.55855 23.145 8.53578 23.1642C8.51289 23.1833 8.48961 23.2019 8.46594 23.2199C8.44215 23.2379 8.41796 23.2553 8.39338 23.2721C8.3688 23.2888 8.34382 23.305 8.31845 23.3207C8.29307 23.3362 8.2673 23.3511 8.24113 23.3655C8.21508 23.3798 8.18863 23.3935 8.16178 23.4065C8.13504 23.4195 8.10797 23.4319 8.08055 23.4437C8.05314 23.4554 8.0255 23.4664 7.99763 23.4767C7.96965 23.4871 7.94145 23.4968 7.91301 23.5057C7.88469 23.5147 7.85609 23.5229 7.8272 23.5305C7.79843 23.5381 7.76948 23.545 7.74037 23.5511C7.71126 23.5572 7.68198 23.5626 7.65252 23.5674Z" fill="#785B44"/>
<path d="M13.1293 23.5512C13.1002 23.5577 13.071 23.5634 13.0417 23.5685C13.0123 23.5735 12.9829 23.5778 12.9533 23.5813C12.9236 23.5849 12.8939 23.5878 12.8643 23.5899C12.8346 23.592 12.8049 23.5933 12.7751 23.594C12.7453 23.5947 12.7155 23.5946 12.6857 23.5937C12.6559 23.5929 12.6262 23.5914 12.5965 23.5891C12.5667 23.5868 12.537 23.5838 12.5074 23.5801C12.478 23.5764 12.4485 23.5719 12.4191 23.5667C12.3898 23.5615 12.3607 23.5555 12.3316 23.5488C12.3026 23.5421 12.2737 23.5348 12.2449 23.5267C12.2162 23.5187 12.1878 23.51 12.1596 23.5006C12.1313 23.4911 12.1032 23.4809 12.0755 23.47C12.0477 23.4591 12.0203 23.4476 11.9933 23.4355C11.9661 23.4233 11.9392 23.4104 11.9125 23.3969C11.886 23.3833 11.8599 23.3691 11.834 23.3543C11.8081 23.3395 11.7826 23.3241 11.7576 23.308C11.7324 23.292 11.7077 23.2753 11.6835 23.2579C11.6592 23.2407 11.6355 23.2229 11.6121 23.2044C11.5887 23.1859 11.5657 23.1669 11.5433 23.1473C11.5209 23.1277 11.4989 23.1075 11.4774 23.0868C11.456 23.0662 11.4351 23.045 11.4147 23.0233C11.3943 23.0015 11.3744 22.9793 11.355 22.9566C11.3358 22.934 11.317 22.9108 11.2988 22.8872C11.2807 22.8636 11.2631 22.8396 11.2461 22.8151C11.2291 22.7906 11.2127 22.7657 11.197 22.7403C11.1811 22.7151 11.166 22.6894 11.1516 22.6634C11.1371 22.6374 11.1233 22.6111 11.11 22.5843C11.0969 22.5576 11.0843 22.5306 11.0724 22.5033C11.0605 22.4759 11.0493 22.4482 11.0388 22.4204C11.0284 22.3925 11.0186 22.3644 11.0094 22.3361C11.0003 22.3077 10.992 22.2791 10.9843 22.2503C10.9764 22.2215 10.9694 22.1926 10.9632 22.1635C10.957 22.1343 10.9514 22.1051 10.9465 22.0756C10.9417 22.0463 10.9375 22.0168 10.9341 21.9872C10.9307 21.9576 10.9281 21.9279 10.9261 21.8982C10.9242 21.8684 10.923 21.8386 10.9226 21.8088C10.9221 21.779 10.9224 21.7492 10.9234 21.7194C10.9244 21.6897 10.9262 21.6599 10.9287 21.6302C10.9312 21.6006 10.9344 21.571 10.9384 21.5415C10.9422 21.512 10.9469 21.4825 10.9523 21.4532C10.9576 21.4238 10.9638 21.3947 10.9707 21.3657C10.9775 21.3367 10.985 21.3079 10.9933 21.2793C11.0014 21.2507 11.0104 21.2223 11.0201 21.194C11.0297 21.1658 11.04 21.1379 11.051 21.1103C11.062 21.0825 11.0737 21.0551 11.0862 21.028C11.0986 21.001 11.1116 20.9742 11.1253 20.9477C11.1389 20.9213 11.1532 20.8952 11.1683 20.8693C11.1832 20.8436 11.1988 20.8182 11.215 20.7932C11.2313 20.7683 11.2481 20.7437 11.2655 20.7195C11.2829 20.6953 11.301 20.6717 11.3197 20.6484C11.3383 20.6251 11.3574 20.6023 11.3771 20.58C11.3968 20.5576 11.4171 20.5358 11.4379 20.5145C11.4588 20.4932 11.4801 20.4724 11.502 20.4522C11.5238 20.4319 11.5461 20.4122 11.569 20.393C11.5917 20.3738 11.615 20.3551 11.6388 20.3371C11.6625 20.3191 11.6866 20.3017 11.7112 20.285C11.7358 20.2681 11.7607 20.2518 11.7861 20.2362C11.8115 20.2206 11.8373 20.2056 11.8634 20.1913C11.8895 20.177 11.9159 20.1632 11.9428 20.1502C11.9695 20.1372 11.9966 20.1248 12.024 20.1132C12.0514 20.1015 12.0791 20.0905 12.1071 20.0802C12.1351 20.0699 12.1633 20.0603 12.1917 20.0513C12.2202 20.0424 12.2488 20.0341 12.2775 20.0265C12.3064 20.019 12.3354 20.0122 12.3645 20.0061C12.3934 20.0001 12.4225 19.9948 12.4517 19.9902C12.4809 19.9855 12.5102 19.9816 12.5395 19.9784C12.5689 19.9753 12.5983 19.9728 12.6279 19.971C12.6574 19.9693 12.6869 19.9682 12.7164 19.9679C12.746 19.9676 12.7756 19.9679 12.8051 19.9691C12.8347 19.9702 12.8642 19.9721 12.8935 19.9747C12.9229 19.9772 12.9523 19.9805 12.9817 19.9845C13.0109 19.9885 13.0401 19.9932 13.0692 19.9986C13.0982 20.0041 13.1271 20.0103 13.1559 20.0172C13.1846 20.024 13.2132 20.0315 13.2415 20.0398C13.2699 20.048 13.2981 20.057 13.3261 20.0666C13.354 20.0762 13.3816 20.0866 13.409 20.0975C13.4366 20.1085 13.4638 20.1201 13.4906 20.1324C13.5175 20.1447 13.544 20.1577 13.5703 20.1713C13.5965 20.1849 13.6223 20.1991 13.6479 20.2139C13.6734 20.2289 13.6986 20.2444 13.7234 20.2605C13.7482 20.2766 13.7726 20.2932 13.7965 20.3105C13.8205 20.3278 13.844 20.3457 13.8671 20.3641C13.8903 20.3826 13.9129 20.4016 13.9349 20.4211C13.9571 20.4407 13.9788 20.4608 14 20.4814C14.0212 20.502 14.0419 20.5231 14.062 20.5448C14.0822 20.5663 14.1018 20.5884 14.1208 20.611C14.14 20.6336 14.1585 20.6566 14.1764 20.68C14.1943 20.7036 14.2116 20.7275 14.2284 20.7517C14.2452 20.7761 14.2614 20.8008 14.277 20.826C14.2925 20.8511 14.3075 20.8766 14.3219 20.9025C14.3361 20.9283 14.3498 20.9545 14.3628 20.981C14.3758 21.0076 14.3882 21.0344 14.4 21.0615C14.4117 21.0887 14.4227 21.1161 14.4332 21.1438C14.4436 21.1714 14.4533 21.1993 14.4622 21.2274C14.4713 21.2556 14.4797 21.2839 14.4874 21.3125C14.495 21.341 14.5019 21.3697 14.5081 21.3986C14.5143 21.4275 14.5199 21.4565 14.5247 21.4856C14.5295 21.5149 14.5336 21.5441 14.537 21.5735C14.5404 21.6028 14.543 21.6323 14.545 21.6618C14.5469 21.6913 14.5481 21.7208 14.5487 21.7504C14.5492 21.7799 14.5489 21.8095 14.548 21.8391C14.547 21.8685 14.5453 21.898 14.5429 21.9274C14.5405 21.9569 14.5375 21.9863 14.5338 22.0156C14.5299 22.045 14.5254 22.0742 14.5202 22.1033C14.5148 22.1323 14.5088 22.1612 14.5021 22.1901C14.4956 22.2189 14.4882 22.2475 14.4801 22.2759C14.472 22.3044 14.4633 22.3326 14.4539 22.3606C14.4444 22.3885 14.4342 22.4163 14.4235 22.4438C14.4127 22.4713 14.4013 22.4986 14.3891 22.5256C14.3769 22.5525 14.3641 22.5791 14.3507 22.6054C14.3373 22.6318 14.3232 22.6578 14.3084 22.6834C14.2938 22.709 14.2785 22.7343 14.2626 22.7592C14.2466 22.7841 14.23 22.8086 14.2129 22.8326C14.1958 22.8567 14.1781 22.8804 14.1598 22.9036C14.1415 22.9269 14.1227 22.9496 14.1032 22.9718C14.0838 22.9941 14.0639 23.0159 14.0434 23.0372C14.0229 23.0586 14.0019 23.0794 13.9805 23.0997C13.959 23.12 13.937 23.1397 13.9146 23.1589C13.8921 23.1781 13.8692 23.1968 13.8457 23.2149C13.8224 23.2331 13.7986 23.2506 13.7744 23.2674C13.7501 23.2843 13.7255 23.3006 13.7005 23.3164C13.6754 23.3321 13.65 23.3472 13.6243 23.3617C13.5986 23.3762 13.5725 23.3901 13.546 23.4034C13.5196 23.4165 13.4929 23.429 13.4658 23.4409C13.4387 23.4528 13.4114 23.4641 13.3837 23.4747C13.3562 23.4853 13.3284 23.4951 13.3003 23.5043C13.2722 23.5135 13.2439 23.522 13.2153 23.5298C13.1869 23.5376 13.1582 23.5447 13.1293 23.5512Z" fill="#785B44"/>
<path d="M53.3699 33.7192V23.814H55.4978V33.7192L61.2843 33.7182C64.1441 33.716 66.3764 33.3165 66.3886 37.0213L66.3903 43.7252C66.3881 48.1016 66.6374 48.9512 62.2328 48.9491L58.4646 48.9447H52.5789C51.6987 49.6613 50.88 50.968 49.6102 50.951C46.7966 50.9136 47.4578 46.7702 47.4576 44.9677L47.4579 37.0106C47.4649 34.1209 48.7925 33.7116 51.4063 33.7155L53.3699 33.7192ZM49.9731 35.824C49.1505 36.2884 49.5611 39.0315 49.5612 40.0492L49.5587 48.7869C50.2887 48.2064 50.8761 47.3821 51.6487 46.8705C52.7796 46.8146 53.9386 46.8701 55.0727 46.8703L61.983 46.8705C64.8109 46.8792 64.253 47.168 64.251 44.1434L64.2503 37.8915C64.2501 36.8821 64.5827 35.8645 63.4529 35.8298C60.9632 35.7534 58.4478 35.8225 55.9552 35.8227L51.9291 35.8229C51.2807 35.8229 50.6202 35.7955 49.9731 35.824Z" fill="#785B44"/>
<path d="M31.545 29.1104C31.4009 27.5194 31.7338 26.1181 33.473 25.774C34.7537 25.647 35.9319 26.0221 36.6858 27.1398C37.9706 29.0441 36.8524 31.3562 36.4724 33.3632C37.8051 33.4779 39.8058 33.1639 41.0141 33.4471C43.5899 34.051 44.1289 36.9084 42.5592 38.7947C42.4972 39.4588 42.3436 40.1332 41.9583 40.6895C41.2866 41.6598 41.6814 41.3551 41.365 42.3325C41.1086 43.124 40.6702 43.3577 40.462 44.3368C39.8472 47.2298 36.8007 46.762 34.6379 46.7615C33.2002 46.7614 31.7408 46.8168 30.3051 46.7609C29.3797 46.4812 28.4934 46.1638 27.5948 45.8067C27.6166 47.3996 25.6263 46.8546 24.6448 46.8608C23.7566 46.8664 21.9755 47.3423 21.5808 46.1913C21.2613 45.2599 21.4831 41.1585 21.4836 39.9378L21.4746 36.9912C21.4715 36.1621 21.1905 34.6024 22.2447 34.3205C22.5835 34.23 26.0248 34.2171 26.4973 34.2638C27.1242 34.3258 27.4511 34.63 27.5948 35.2475L30.2222 31.1486C30.658 30.4681 31.0747 29.7676 31.545 29.1104ZM33.824 27.8494C33.4006 28.245 33.7984 29.3474 33.5306 29.9671C32.9504 31.31 30.3559 34.7944 29.4417 36.2969C28.9289 37.1399 28.6176 37.5609 27.5948 37.7621V43.4351L27.6577 43.456C30.7229 44.4837 29.6669 44.6572 33.1987 44.6591L37.3004 44.6567C38.6212 44.5626 38.5983 43.3344 37.9499 42.4251C39.433 42.3838 39.7854 41.2155 38.8319 40.0992C40.2138 39.9259 40.9937 38.9963 39.9006 37.7621C41.2312 37.4547 41.9366 36.2313 40.8013 35.6194C39.1116 34.7088 33.8286 37.0843 34.252 33.4271C34.3944 32.198 36.4185 27.6988 33.824 27.8494ZM24.3048 36.3552H23.6844V44.792H25.0129H25.4091V36.3552H24.3048Z" fill="#785B44"/>
<path d="M9.31431 32.274C9.73962 31.9194 10.1517 31.4944 10.6773 31.2978C10.9338 31.2784 11.2008 31.2947 11.4586 31.2978V52.5834H53.2575C53.2656 52.1808 53.2588 51.7774 53.2575 51.3747H55.4981L55.4999 55.8622C55.5003 57.7089 55.862 59.7461 54.5001 61.2037C53.6559 61.995 52.7824 62.0931 51.6697 62.0985L13.9457 62.1014C9.17956 62.1033 9.31244 60.1407 9.31295 56.3907L9.31431 32.274ZM44.9165 54.7771H11.4586L11.4552 57.1748C11.4538 60.5108 12.1901 59.9204 15.1338 59.9194L19.8851 59.9184L48.9522 59.9177C51.9885 59.9189 53.2651 60.8525 53.2619 57.5352L53.2575 54.7771H44.9165Z" fill="#785B44"/>
<path d="M56.1313 42.6507C57.8095 41.0523 59.3748 39.2372 61.0808 37.6047C61.6268 38.0566 62.1338 38.5446 62.6347 39.045L58.5043 43.271C57.7242 44.0655 56.9597 44.8788 56.1313 45.6242C54.8904 44.6801 53.982 43.2968 52.7069 42.4251C52.2877 41.8275 51.7213 41.3381 51.1968 40.8351C51.7108 40.3403 52.1844 39.8068 52.7069 39.3196C53.8241 40.4429 54.9665 41.5772 56.1313 42.6507Z" fill="#785B44"/>
<path d="M28.5889 58.4457C28.5779 57.7042 28.5888 56.9609 28.5889 56.2192H36.4725V58.4457H28.5889Z" fill="#785B44"/>
</svg>
