<?xml version="1.0" encoding="utf-8"?><svg viewBox="0 0 1024 1024" xmlns="http://www.w3.org/2000/svg" xmlns:xlink="http://www.w3.org/1999/xlink"><style>:root>svg{display:none}:root>svg:target{display:block}</style><svg viewBox="0 0 67 63" id="course-icon" xmlns="http://www.w3.org/2000/svg"><path d="m41.19 21.902-.072.002c-2.32.056-4.066-2.343-4.086-4.493V6.604c.003-4.319 1.118-5.58 5.419-5.578l14.775.001 3.399-.002c3.093-.002 5.733.426 5.763 4.218l.002 11.207c.002 2.386-.34 4.701-3.205 5.352-.957.217-2.695.098-3.737.098l-7.03.002c-.442.258-.839.63-1.23.959l-3.681 3.141c-.976.837-1.939 1.688-2.933 2.503-.555.438-1.567 1.594-2.253 1.639-1.583.102-1.134-2.335-1.133-3.282l.003-4.96Zm-.197-18.733c-2.285.253-1.803 2.807-1.803 4.436l.001 8.443c.001 1.565-.118 3.515 2.05 3.756 2.6.29 2.112.28 2.11 3.076l-.002 3.83c1.237-1.014 7.547-6.646 8.29-6.872.67-.204 3.094-.096 3.93-.095l4.81.003c2.914.002 3.869.226 3.872-3.344V5.564c-.014-2.741-1.787-2.397-3.938-2.396h-19.32Z"/><path d="M52.17 17.915a6.392 6.392 0 0 1-1.284-.043 6.562 6.562 0 0 1-4.714-3.035 6.433 6.433 0 0 1-.57-1.151 6.536 6.536 0 0 1-.41-1.88 6.764 6.764 0 0 1 .006-.965 6.606 6.606 0 0 1 .556-2.17 6.734 6.734 0 0 1 .64-1.116 6.382 6.382 0 0 1 .615-.742A6.473 6.473 0 0 1 48.254 5.8a6.544 6.544 0 0 1 2.39-.911 6.552 6.552 0 0 1 3.786.482 6.462 6.462 0 0 1 1.377.834 6.622 6.622 0 0 1 1.325 1.404 6.64 6.64 0 0 1 .858 1.729 6.667 6.667 0 0 1 .275 1.26 6.42 6.42 0 0 1 .024 1.288 6.512 6.512 0 0 1-.435 1.88 6.562 6.562 0 0 1-3.498 3.62 6.563 6.563 0 0 1-2.186.529ZM51.124 6.978a4.413 4.413 0 0 0-2.49 1.22 4.539 4.539 0 0 0-.557.662 4.396 4.396 0 0 0-.63 1.373 4.347 4.347 0 0 0-.148 1.071A4.48 4.48 0 0 0 47.611 13a4.37 4.37 0 0 0 .648 1.122 4.425 4.425 0 0 0 4.036 1.64 4.487 4.487 0 0 0 1.255-.354 4.381 4.381 0 0 0 1.097-.705 4.472 4.472 0 0 0 .845-.994 4.421 4.421 0 0 0 .63-2.927 4.51 4.51 0 0 0-.275-1.053 4.621 4.621 0 0 0-.286-.588 4.239 4.239 0 0 0-.37-.54 4.59 4.59 0 0 0-.607-.623 4.42 4.42 0 0 0-3.46-1Zm-36.928 6.01a3.866 3.866 0 0 1-1.298-.103 3.877 3.877 0 0 1-1.031-.433 3.925 3.925 0 0 1-.733-.576 3.744 3.744 0 0 1-.572-.737 3.883 3.883 0 0 1-.465-1.217 3.82 3.82 0 1 1 4.099 3.066Zm-.68-5.454a1.624 1.624 0 0 0-.39.13 1.766 1.766 0 0 0-.348.22 1.84 1.84 0 0 0-.233.233 1.688 1.688 0 0 0-.193 1.859 1.636 1.636 0 0 0 .29.399 1.692 1.692 0 1 0 .874-2.84Zm10.106 5.522a3.963 3.963 0 0 1-.756.009 3.835 3.835 0 0 1-2.36-1.084 3.758 3.758 0 0 1-.59-.738 3.975 3.975 0 0 1-.33-.68 3.701 3.701 0 0 1-.19-.731 3.696 3.696 0 0 1-.046-.754 3.972 3.972 0 0 1 .104-.75 3.766 3.766 0 0 1 .248-.713 3.837 3.837 0 0 1 1.992-1.932 3.765 3.765 0 0 1 .908-.26 3.733 3.733 0 0 1 .753-.043 3.726 3.726 0 0 1 .747.104 4.037 4.037 0 0 1 .712.247 3.724 3.724 0 0 1 .65.382 3.821 3.821 0 0 1 1.02 1.103 3.905 3.905 0 0 1 .485 1.222 3.82 3.82 0 0 1 .046 1.315 3.897 3.897 0 0 1-.4 1.254 4.026 4.026 0 0 1-.297.481 3.786 3.786 0 0 1-.642.69 3.887 3.887 0 0 1-1.497.775 3.836 3.836 0 0 1-.557.103ZM22.94 7.54a1.676 1.676 0 0 0-.828.368 1.618 1.618 0 0 0-.286.301 1.637 1.637 0 0 0-.234.44 1.68 1.68 0 0 0-.078.822 1.727 1.727 0 0 0 .227.623 1.662 1.662 0 0 0 .516.537 1.664 1.664 0 0 0 .696.262 1.54 1.54 0 0 0 .333.014 1.766 1.766 0 0 0 .408-.074 1.767 1.767 0 0 0 .447-.216 1.758 1.758 0 0 0 .365-.335 1.471 1.471 0 0 0 .142-.204 1.762 1.762 0 0 0 .165-.38 1.837 1.837 0 0 0 .063-.324 1.54 1.54 0 0 0 .005-.249 1.76 1.76 0 0 0-.073-.407 1.627 1.627 0 0 0-.213-.448 1.527 1.527 0 0 0-.154-.196 1.92 1.92 0 0 0-.18-.17 1.648 1.648 0 0 0-.582-.31 1.576 1.576 0 0 0-.325-.065 1.822 1.822 0 0 0-.414.01Z"/><path d="M51.075 11.306a81.169 81.169 0 0 0 2.722-2.586c.553.533 1.096 1.078 1.701 1.552-1.5 1.295-2.869 2.798-4.423 4.02-.378-.347-.766-.678-1.102-1.067-.631-.416-1.204-.977-1.735-1.514.493-.472.94-1.089 1.53-1.439.46.29.878.697 1.307 1.034Zm-24.68 2.025c.4.01.8.007 1.2 0h7.349v2.113h-7.35c-.28-.74-.793-1.433-1.199-2.113ZM2.95 28.773C.468 28.137.604 26.208.606 24.254l-.004-5.912c-.01-2.135.383-3.749 2.88-3.855h8.964c4.097 0 6.978-.963 6.988 4.308l.002 4.832c0 2.019.387 4.673-2.14 5.364-.876.24-3.58.121-4.671.12-2.152-.01-2.315-.445-3.916.892L6.682 31.71c-.65.557-1.834 1.926-2.732 1.085-.761-.711-.986-3.017-1-4.021Zm7.727-12.114-4.779-.002c-.804 0-3.029-.376-3.15.616-.114.938-.023 2.016-.022 2.967l-.001 5.947.043.038c.976.831 2.066.206 2.22 2.044.051.607.061 1.219.175 1.819.854-.65 1.615-1.41 2.521-1.991l.037-.043c1.225-1.359 1.87-1.096 3.51-1.09l3.46.004c2.71.002 2.608.202 2.597-2.316l-.003-5.73c-.002-2.674.017-2.265-2.831-2.265l-3.777.002Zm14.643 6.32a4.043 4.043 0 0 1-.762.022 3.804 3.804 0 0 1-.935-.183 3.847 3.847 0 0 1-1.175-.624 4.072 4.072 0 0 1-.425-.384 3.908 3.908 0 0 1-.878-1.462 4.006 4.006 0 0 1-.167-.744 4.025 4.025 0 0 1-.018-.763 4.027 4.027 0 0 1 .132-.751 3.967 3.967 0 0 1 .276-.711 3.83 3.83 0 0 1 .66-.932 3.906 3.906 0 0 1 1.786-1.059 3.855 3.855 0 0 1 2.066.011 3.714 3.714 0 0 1 .705.276 4.004 4.004 0 0 1 .639.408 3.921 3.921 0 0 1 .885.981 4.095 4.095 0 0 1 .267.502 3.779 3.779 0 0 1 .273.906 3.943 3.943 0 0 1 .046.945 3.622 3.622 0 0 1-.083.563 4.126 4.126 0 0 1-.165.544 3.872 3.872 0 0 1-2.94 2.426c-.062.011-.124.02-.187.029Zm-.804-5.517a1.657 1.657 0 0 0-.547.204 1.567 1.567 0 0 0-.206.143 1.573 1.573 0 0 0-.24.234 1.804 1.804 0 0 0-.226.35 1.538 1.538 0 0 0-.092.234 1.576 1.576 0 0 0-.068.328 1.78 1.78 0 0 0 .006.418 1.896 1.896 0 0 0 .08.325 1.75 1.75 0 0 0 .284.51 1.654 1.654 0 0 0 .439.383 1.73 1.73 0 0 0 .625.228 1.78 1.78 0 0 0 .418.012 1.809 1.809 0 0 0 .407-.09 1.87 1.87 0 0 0 .302-.14 1.738 1.738 0 0 0 .494-.443 1.738 1.738 0 0 0 .306-.679 1.912 1.912 0 0 0 .035-.33 1.935 1.935 0 0 0-.017-.25 1.622 1.622 0 0 0-.107-.402 1.842 1.842 0 0 0-.155-.295 1.64 1.64 0 0 0-.27-.318 1.63 1.63 0 0 0-.411-.28 1.669 1.669 0 0 0-.476-.15 1.66 1.66 0 0 0-.581.008Z"/><path d="M7.653 23.567a1.762 1.762 0 0 1-.538.006 1.897 1.897 0 0 1-.434-.114 1.776 1.776 0 0 1-.464-.273 1.762 1.762 0 0 1-.364-.395 1.828 1.828 0 0 1 .977-2.774 1.638 1.638 0 0 1 .263-.06 1.756 1.756 0 0 1 .446-.01 1.755 1.755 0 0 1 .518.128 2.008 2.008 0 0 1 .315.167 1.854 1.854 0 0 1 .553.575 1.743 1.743 0 0 1 .182.407 1.73 1.73 0 0 1 .072.349 1.965 1.965 0 0 1 .003.357 1.807 1.807 0 0 1-.244.76 1.802 1.802 0 0 1-.62.63 1.975 1.975 0 0 1-.32.157 1.701 1.701 0 0 1-.345.09Zm5.477-.016a1.882 1.882 0 0 1-.444.043 1.77 1.77 0 0 1-.61-.124 1.87 1.87 0 0 1-.464-.266 1.795 1.795 0 0 1-.573-.784 2.1 2.1 0 0 1-.076-.257 2.002 2.002 0 0 1-.04-.354 1.777 1.777 0 0 1 .128-.699 1.615 1.615 0 0 1 .117-.24 1.803 1.803 0 0 1 1.372-.892 2 2 0 0 1 .354-.003 1.761 1.761 0 0 1 .597.157 1.832 1.832 0 0 1 .737.62 1.822 1.822 0 0 1 .292 1.351 2.027 2.027 0 0 1-.096.34 1.769 1.769 0 0 1-.32.529 1.761 1.761 0 0 1-.403.344 1.958 1.958 0 0 1-.317.159 1.718 1.718 0 0 1-.255.076ZM53.37 33.72v-9.906h2.128v9.905h5.786c2.86-.003 5.092-.403 5.105 3.302l.001 6.704c-.002 4.377.247 5.226-4.157 5.224l-3.768-.004h-5.886c-.88.716-1.699 2.023-2.969 2.006-2.813-.037-2.152-4.18-2.152-5.983V37.01c.007-2.89 1.334-3.3 3.948-3.296l1.964.004Zm-3.397 2.104c-.822.464-.412 3.208-.412 4.225l-.002 8.738c.73-.58 1.317-1.405 2.09-1.916 1.13-.056 2.29 0 3.424 0h6.91c2.828.008 2.27.297 2.268-2.728v-6.252c0-1.009.332-2.026-.798-2.061-2.49-.077-5.005-.008-7.498-.007H51.93c-.648 0-1.309-.028-1.956.001ZM31.545 29.11c-.144-1.59.189-2.992 1.928-3.336 1.28-.127 2.459.248 3.213 1.366 1.285 1.904.166 4.216-.214 6.223 1.333.115 3.334-.2 4.542.084 2.576.604 3.115 3.461 1.545 5.348-.062.664-.215 1.338-.6 1.895-.672.97-.278.665-.594 1.643-.256.791-.695 1.025-.903 2.004-.615 2.893-3.661 2.425-5.824 2.424-1.438 0-2.897.056-4.333 0a33.615 33.615 0 0 1-2.71-.954c.022 1.593-1.969 1.048-2.95 1.054-.888.005-2.67.481-3.064-.67-.32-.931-.098-5.033-.097-6.253l-.01-2.947c-.003-.829-.284-2.389.77-2.67.34-.091 3.78-.104 4.253-.057.627.062.954.366 1.098.983l2.627-4.098c.436-.68.853-1.381 1.323-2.039Zm2.279-1.26c-.423.395-.026 1.497-.293 2.117-.58 1.343-3.175 4.827-4.09 6.33-.512.843-.823 1.264-1.846 1.465v5.673l.063.021c3.065 1.028 2.009 1.201 5.54 1.203l4.102-.002c1.321-.094 1.298-1.323.65-2.232 1.483-.041 1.835-1.21.882-2.326 1.382-.173 2.162-1.103 1.069-2.337 1.33-.307 2.036-1.53.9-2.143-1.69-.91-6.972 1.465-6.549-2.192.142-1.229 2.166-5.728-.428-5.578Zm-9.52 8.505h-.62v8.437h1.725v-8.437h-1.104Z"/><path d="M9.314 32.274c.426-.355.838-.78 1.363-.976.257-.02.524-.003.782 0v21.285h41.799c.008-.402 0-.806 0-1.208h2.24l.002 4.487c0 1.847.362 3.884-1 5.342-.844.791-1.718.89-2.83.895l-37.724.002c-4.766.002-4.634-1.96-4.633-5.71l.001-24.117Zm35.602 22.503H11.46l-.004 2.398c-.001 3.336.735 2.745 3.679 2.744h4.751l29.067-.001c3.037 0 4.313.934 4.31-2.383l-.005-2.758h-8.34ZM56.131 42.65c1.678-1.598 3.244-3.413 4.95-5.045.546.452 1.053.94 1.554 1.44l-4.13 4.226c-.78.794-1.545 1.608-2.374 2.353-1.24-.944-2.149-2.327-3.424-3.199-.42-.597-.986-1.087-1.51-1.59.514-.495.987-1.028 1.51-1.515a110.448 110.448 0 0 0 3.424 3.33Z"/><path d="M28.589 58.446c-.011-.742 0-1.485 0-2.227h7.883v2.227H28.59Z"/></svg><svg viewBox="0 0 1024 1024" id="course-icon-1" xmlns="http://www.w3.org/2000/svg"><path d="M498.396 238.45c-73.11-16.302-66.996-123.392 11.888-129.743 39.314-3.39 70.242 33.665 67.656 72.12 39.758 3.844 79.356 23.193 113.432 43.573 1.146-54.66 63.016-88.42 106.442-54.71 50.512 39.21 27.49 112.204-39.684 120.666 3.066 5.268 7.714 9.762 11.556 14.486 31.468 38.682 54.704 86.858 64.632 135.612 23.716-1.156 44.54 2.642 61.788 20.958 25.596 27.18 22.328 69.448-4.862 94.198-17.08 15.546-34.876 17.522-56.926 16.394-2.56 6.68-3.686 13.546-5.234 20.492-9.728 43.632-29.872 83.276-55.942 119.406 41.018 39.788 24.232 105.936-30.768 116.67-61.294 11.964-100.006-54.766-63.198-107.594-21.728-23.08-44.73-44.974-66.668-67.854-47.822 36.726-105.282 38.24-160.414 21.608-6.336 6.176-12.368 12.696-18.602 18.976L376.7 750.524c5.09 11.506 6.842 21.416 6.876 33.904 23.65 10.748 45.166 17.056 70.28 23.22 34.326-56.008 133.574-21.71 118.808 52.118-7.73 38.642-44.472 58.588-81.736 50.912-35.234-10.59-53.32-41.176-48.424-77.386-22.93-4.998-44.058-12.094-65.804-20.926-37.946 55.974-116.084 38.174-123.84-23.276-2.646-20.96 4.262-37.51 16.874-53.8-38.656-41.368-78.09-105.054-83.33-163.286-21.929.34-41.262-3.424-57.288-20.086-43.119-44.83-10.558-114.106 57.288-111.464 6.637-49.948 44.284-115.66 79.036-150.098-39.462-58.542 22.958-126.462 82.732-97.785 75.45 36.197 22.52 159.533-61.506 116.365-35.364 40-66.378 88.534-73.486 142.438 17.258 14.908 25.214 21.218 29.838 46.086h95.87c11.116-88.082 69.41-149.668 159.508-159.05l.002-67.386c-.006-10.78-.754-21.848-.002-32.574Zm10.548-101.628q-.924.079-1.842.204-.92.124-1.832.294-.912.17-1.814.384-.902.215-1.792.474-.89.258-1.768.56-.876.303-1.738.648-.86.344-1.702.731-.844.387-1.666.815-.824.428-1.624.896-.8.468-1.578.975-.776.507-1.526 1.051-.752.545-1.474 1.125-.724.581-1.418 1.197-.692.615-1.356 1.264-.662.65-1.292 1.33-.628.68-1.224 1.392-.596.71-1.156 1.45-.56.74-1.082 1.506t-1.006 1.557q-.484.79-.93 1.605-.444.813-.848 1.648-.404.835-.768 1.688-.362.854-.682 1.724-.32.87-.596 1.756-.278.885-.51 1.783-.234.897-.422 1.805-.188.908-.332 1.824-.144.917-.242 1.839-.098.922-.15 1.848-.054.926-.06 1.853-.008.927.032 1.854.038.927.122 1.85.084.924.214 1.842t.304 1.829q.174.91.394 1.812.218.901.482 1.79.264.89.57 1.765.306.875.656 1.734.35.859.74 1.7.392.84.824 1.66.432.821.904 1.62.474.798.984 1.572t1.058 1.521q.55.748 1.134 1.468.584.72 1.204 1.41.618.691 1.27 1.351.654.658 1.338 1.284t1.398 1.218q.714.592 1.456 1.148.742.556 1.512 1.074.768.518 1.562.998.792.48 1.608.922.818.44 1.654.84.836.4 1.692.758t1.728.674q.872.314 1.758.586.886.274 1.786.502.898.228 1.808.412.908.182 1.826.322.916.138 1.838.232.924.094 1.85.142.926.048 1.852.05.928.002 1.854-.042.926-.044 1.85-.132.916-.088 1.828-.222.912-.132 1.816-.31t1.798-.4q.894-.22 1.776-.486.882-.264 1.752-.572.868-.308 1.72-.658.852-.35 1.686-.742.834-.39 1.648-.822.814-.432 1.606-.902.792-.472 1.56-.98.768-.51 1.51-1.056t1.456-1.126q.714-.582 1.4-1.198.684-.616 1.338-1.264.656-.648 1.276-1.329.622-.68 1.21-1.389.588-.71 1.14-1.446.552-.738 1.068-1.501.516-.764.994-1.551.478-.788.916-1.598.438-.81.838-1.64.398-.831.754-1.68.358-.85.674-1.715.316-.866.588-1.746.272-.88.502-1.772.23-.892.414-1.794.186-.903.328-1.813.14-.91.236-1.827.098-.916.148-1.836.052-.92.058-1.84.006-.922-.032-1.842t-.122-1.838q-.084-.917-.212-1.83-.128-.912-.302-1.817-.172-.905-.388-1.8-.218-.895-.478-1.779-.26-.883-.564-1.753-.302-.87-.648-1.724-.346-.854-.732-1.69-.388-.836-.814-1.652-.428-.817-.894-1.61-.468-.795-.972-1.566-.506-.77-1.048-1.515-.542-.745-1.118-1.462-.578-.718-1.19-1.406-.612-.689-1.258-1.346-.646-.658-1.322-1.283-.676-.625-1.382-1.217-.706-.591-1.442-1.148-.734-.556-1.494-1.075-.76-.52-1.546-1.002t-1.592-.925q-.808-.442-1.638-.845-.828-.403-1.674-.765-.848-.362-1.712-.682-.864-.32-1.742-.597-.878-.277-1.77-.511-.89-.234-1.792-.424-.902-.19-1.81-.336-.91-.146-1.826-.247-.916-.102-1.836-.158-.918-.056-1.84-.067-.92-.012-1.842.022-.92.034-1.838.113Zm247.536 48.325q-.938.03-1.872.107-.936.077-1.866.2-.93.122-1.854.29-.922.169-1.836.383-.914.213-1.816.471t-1.79.56q-.888.303-1.76.648-.874.346-1.728.734t-1.688.818q-.834.43-1.646.9-.812.47-1.6.979-.788.51-1.55 1.057-.762.547-1.496 1.132-.734.584-1.438 1.204t-1.378 1.273q-.674.654-1.314 1.34t-1.246 1.403q-.604.716-1.174 1.462t-1.102 1.518q-.532.772-1.026 1.57t-.948 1.62q-.454.822-.866 1.664-.414.842-.784 1.704-.372.862-.7 1.74-.328.88-.612 1.774t-.524 1.802q-.24.906-.436 1.824t-.346 1.844q-.15.926-.254 1.858-.104.932-.162 1.87-.058.936-.07 1.874-.012.938.022 1.876t.114 1.872q.08.936.206 1.866.126.928.298 1.852.172.922.388 1.834.216.914.478 1.814.262.902.568 1.788.304.888.654 1.76.348.87.738 1.722.392.854.824 1.686.432.834.906 1.644.472.81.984 1.596.514.786 1.064 1.546t1.136 1.492q.588.732 1.21 1.434t1.278 1.374q.656.67 1.344 1.308.688.638 1.406 1.24.72.604 1.468 1.17.746.568 1.522 1.098.774.528 1.574 1.02.8.49 1.622.942.822.45 1.666.86t1.708.778q.862.368 1.742.692.882.326 1.776.608.896.28 1.804.518.906.236 1.826.428.918.192 1.844.34.928.146 1.86.248.932.1 1.87.154.936.056 1.874.064.938.01 1.876-.028.934-.038 1.864-.12.93-.082 1.856-.212.924-.128 1.842-.302.918-.172 1.826-.39.908-.218 1.806-.482.896-.262 1.778-.568.882-.306 1.748-.654.868-.35 1.716-.74t1.676-.822q.828-.432 1.634-.904.806-.472 1.588-.984.782-.51 1.538-1.058.758-.548 1.486-1.134.728-.584 1.426-1.204.7-.62 1.366-1.274.668-.652 1.304-1.338.634-.684 1.234-1.4.602-.716 1.166-1.46t1.092-1.514q.528-.772 1.018-1.566.488-.796.938-1.616.45-.818.86-1.658.408-.838.776-1.698.368-.858.694-1.734.324-.876.606-1.766t.52-1.794q.238-.904.43-1.818.194-.912.342-1.836.15-.922.252-1.85.104-.928.16-1.86.058-.932.07-1.866.012-.934-.022-1.868t-.114-1.864q-.08-.93-.204-1.856-.126-.926-.296-1.844-.17-.918-.384-1.828-.216-.908-.474-1.806-.26-.898-.562-1.78-.304-.884-.65-1.752-.344-.868-.732-1.718t-.818-1.678q-.428-.83-.898-1.638-.468-.808-.976-1.592t-1.054-1.542q-.546-.758-1.128-1.488-.582-.73-1.2-1.431-.616-.701-1.268-1.371-.65-.67-1.334-1.307-.682-.638-1.396-1.24-.712-.604-1.454-1.171-.742-.568-1.512-1.098-.768-.53-1.562-1.023-.794-.492-1.61-.944-.818-.453-1.656-.865t-1.696-.783q-.856-.37-1.732-.699-.874-.328-1.764-.613-.888-.285-1.792-.526-.902-.241-1.814-.438-.914-.197-1.836-.348-.92-.152-1.848-.259-.928-.106-1.86-.167-.932-.06-1.866-.076-.934-.015-1.868.016Zm-187 22.193c-10.706 15.642-23.984 27.374-43.116 31.11-.468 33.274-.188 66.678 0 99.96 23.874 4.18 36.176 8.068 58.834 16.198 7.468-8.538 18.74-21.122 27.31-28.204 22.38-25.502 48.636-47.688 71.094-73.13-33.656-22.79-73.61-40.108-114.122-45.934Zm-252.976 7.448q-.914.064-1.824.174-.908.11-1.812.264-.902.154-1.796.352-.894.2-1.778.442t-1.754.528q-.87.284-1.726.612t-1.694.698q-.838.37-1.656.78-.82.41-1.616.862-.798.45-1.574.938-.774.49-1.524 1.016-.748.526-1.472 1.09-.722.562-1.416 1.16-.694.598-1.358 1.23-.664.63-1.296 1.294-.632.662-1.23 1.356-.6.694-1.162 1.416-.564.722-1.092 1.47-.528.75-1.018 1.524t-.94 1.57q-.452.798-.864 1.616-.41.818-.782 1.656-.37.838-.698 1.692-.33.856-.616 1.726t-.53 1.754q-.244.882-.442 1.776-.2.894-.356 1.796-.154.904-.266 1.814-.11.908-.176 1.822-.066.914-.086 1.83-.02.916.004 1.83.024.916.094 1.83t.184 1.822q.114.91.274 1.812.158.902.362 1.794.202.894.45 1.776.246.882.538 1.75.29.87.622 1.724.332.852.706 1.688.374.836.79 1.654.414.816.868 1.612.456.794.948 1.566.494.772 1.024 1.52.53.746 1.098 1.466.566.72 1.168 1.41.602.692 1.236 1.352.634.66 1.302 1.288.666.63 1.362 1.224.698.594 1.422 1.154.726.56 1.476 1.084.752.524 1.53 1.01.776.484 1.576.932.798.446 1.62.854.82.406 1.66.772.84.368 1.696.692.856.324 1.728.606t1.756.52q.884.238 1.78.434.896.194 1.798.344.904.15 1.814.256.91.106 1.824.166.914.062 1.83.078t1.832-.014q.914-.03 1.828-.104.906-.074 1.808-.192.904-.118 1.798-.28.896-.162 1.782-.368t1.762-.454q.874-.25 1.736-.54.862-.292 1.708-.626.848-.332 1.676-.706.83-.374 1.64-.788.81-.414 1.6-.868.788-.454 1.554-.944.766-.492 1.506-1.02t1.454-1.092q.714-.564 1.4-1.162.686-.598 1.342-1.23.656-.63 1.28-1.292t1.214-1.354q.59-.692 1.148-1.412.556-.72 1.076-1.466t1.004-1.518q.482-.77.928-1.564.444-.794.85-1.608.406-.814.772-1.648.364-.832.688-1.684.324-.85.608-1.714.282-.866.52-1.742.24-.878.436-1.766.198-.89.35-1.786.152-.896.262-1.8.108-.904.172-1.812.064-.906.084-1.816.02-.91-.004-1.82-.024-.908-.094-1.816t-.182-1.81q-.114-.902-.272-1.798-.156-.896-.358-1.784-.2-.888-.444-1.764t-.532-1.74q-.286-.864-.614-1.712-.33-.848-.698-1.68-.37-.83-.78-1.642-.41-.814-.86-1.604-.448-.792-.936-1.56-.488-.768-1.012-1.512t-1.084-1.46q-.56-.718-1.154-1.406-.594-.69-1.222-1.348-.628-.66-1.286-1.286-.658-.628-1.348-1.222-.688-.594-1.406-1.154-.716-.562-1.46-1.086t-1.512-1.012q-.768-.486-1.56-.936-.79-.448-1.602-.858t-1.644-.78q-.832-.37-1.68-.7-.848-.328-1.712-.614-.862-.288-1.74-.532-.876-.244-1.764-.446-.886-.2-1.782-.358-.896-.158-1.8-.27-.902-.114-1.81-.184-.906-.068-1.816-.094-.91-.024-1.818-.004-.91.02-1.818.084Zm391.982 54.128c-19.546 17.48-37.128 37.094-55.42 55.854-14.368 14.738-30.038 28.87-43.536 44.4 7.644 5.24 13.9 11.406 20.982 17.254l.916-.31c32.252-31.78 68.832-67.612 99.118-101.262-9.876-5.762-13.948-10.19-22.06-15.936Zm31.894 45.934c-21.552 21.224-42.468 43.244-63.484 65.002-8.82 9.132-18.796 17.646-26.984 27.316 17.528 31.232 32.588 50.57 33.69 90.292 11.464.378 22.988-.038 34.462 0l41.174-.028c7.072-.014 14.212-.388 21.27.028 3.522-21.364 11.458-32.49 27.86-46.086-7.894-34.906-38.73-113.914-67.988-136.524Zm-241.758 52.338q-3.55.322-7.078.818-3.53.496-7.03 1.164-3.5.668-6.964 1.508-3.464.84-6.882 1.848-3.418 1.008-6.784 2.182-3.364 1.174-6.666 2.512-3.304 1.34-6.538 2.838-3.232 1.498-6.388 3.154-3.156 1.656-6.228 3.464-3.07 1.808-6.048 3.764-2.98 1.958-5.858 4.058-2.88 2.1-5.652 4.34-2.772 2.24-5.432 4.612-2.66 2.372-5.198 4.872-2.54 2.5-4.954 5.122-2.414 2.622-4.698 5.358-2.282 2.738-4.428 5.584-2.144 2.844-4.148 5.792-2.004 2.948-3.86 5.99-1.856 3.042-3.56 6.172-1.706 3.13-3.254 6.338-1.55 3.21-2.94 6.492t-2.618 6.628q-1.226 3.346-2.288 6.746-1.062 3.402-1.956 6.852-.894 3.45-1.616 6.94-.724 3.49-1.276 7.012-.55 3.52-.928 7.064t-.582 7.102q-.204 3.558-.232 7.122-.028 3.562.118 7.124.146 3.56.466 7.11.32 3.55.814 7.078.496 3.53 1.162 7.032.666 3.5 1.504 6.964.838 3.464 1.846 6.882 1.006 3.42 2.178 6.784 1.174 3.366 2.51 6.67 1.338 3.302 2.836 6.538 1.496 3.234 3.15 6.39 1.654 3.156 3.462 6.228 1.806 3.072 3.762 6.052 1.956 2.978 4.054 5.858 2.1 2.88 4.338 5.654t4.61 5.434q2.372 2.66 4.87 5.2 2.5 2.542 5.12 4.956 2.62 2.416 5.356 4.7 2.736 2.284 5.582 4.43 2.844 2.146 5.79 4.152 2.948 2.004 5.988 3.862 3.042 1.858 6.17 3.564 3.13 1.706 6.338 3.256 3.21 1.552 6.49 2.942 3.282 1.392 6.626 2.62 3.346 1.23 6.748 2.292 3.4 1.064 6.85 1.958 3.45.896 6.94 1.62 3.488.726 7.01 1.278 3.52.552 7.064.932t7.102.584q3.558.206 7.12.236 3.564.03 7.126-.114 3.56-.144 7.11-.464 3.552-.32 7.082-.812 3.532-.494 7.036-1.16 3.502-.666 6.968-1.502 3.466-.838 6.888-1.844 3.42-1.006 6.788-2.178 3.368-1.174 6.674-2.51 3.306-1.336 6.542-2.834 3.236-1.498 6.394-3.152 3.158-1.654 6.232-3.462 3.074-1.806 6.056-3.762t5.862-4.058q2.882-2.1 5.658-4.338 2.776-2.24 5.438-4.612t5.204-4.872q2.542-2.5 4.958-5.122 2.416-2.622 4.702-5.36 2.284-2.738 4.432-5.584 2.148-2.846 4.154-5.794 2.006-2.95 3.864-5.992 1.858-3.044 3.564-6.174 1.708-3.132 3.258-6.342 1.552-3.21 2.944-6.494 1.392-3.282 2.62-6.63 1.228-3.348 2.292-6.752 1.062-3.402 1.958-6.854.894-3.452 1.618-6.944.724-3.49 1.276-7.014.552-3.522.93-7.068.38-3.546.584-7.106.204-3.56.232-7.126.028-3.566-.118-7.128-.146-3.562-.466-7.114-.32-3.552-.816-7.082-.494-3.532-1.162-7.034-.666-3.504-1.506-6.97-.838-3.464-1.846-6.886-1.008-3.42-2.182-6.786-1.174-3.368-2.512-6.672-1.338-3.306-2.836-6.542-1.5-3.234-3.156-6.392-1.654-3.158-3.464-6.232-1.808-3.072-3.766-6.054-1.956-2.98-4.058-5.86-2.102-2.882-4.342-5.656-2.24-2.774-4.614-5.436-2.374-2.66-4.874-5.202-2.502-2.54-5.124-4.956-2.624-2.416-5.362-4.7-2.738-2.282-5.586-4.43-2.848-2.146-5.796-4.15-2.95-2.004-5.994-3.862-3.044-1.856-6.176-3.562-3.13-1.706-6.342-3.256-3.212-1.548-6.496-2.94-3.282-1.39-6.63-2.616-3.348-1.228-6.752-2.29t-6.856-1.954q-3.452-.894-6.944-1.616-3.492-.724-7.016-1.274-3.522-.55-7.068-.928-3.546-.376-7.106-.578-3.56-.202-7.126-.23-3.566-.028-7.128.12-3.562.148-7.114.47ZM839.32 468.582q-.922.176-1.836.398-.912.224-1.814.49-.9.266-1.788.576-.886.312-1.756.664-.872.354-1.724.75t-1.682.834q-.832.436-1.642.914-.808.478-1.594.994-.784.518-1.542 1.072-.758.556-1.49 1.146-.73.592-1.43 1.218t-1.368 1.286q-.67.66-1.306 1.352-.634.692-1.236 1.414-.6.722-1.164 1.474-.566.75-1.092 1.528-.528.778-1.016 1.582-.488.802-.936 1.628-.448.826-.856 1.672-.406.848-.772 1.712-.366.866-.688 1.75-.322.882-.6 1.78-.278.896-.512 1.806-.234.91-.424 1.83-.188.922-.332 1.85-.144.928-.242 1.862t-.15 1.874q-.052.938-.058 1.876-.006.94.034 1.88.042.938.128 1.874.086.934.218 1.866.132.93.31 1.852t.4 1.836q.224.912.49 1.812.268.902.58 1.788.31.886.664 1.756.356.872.752 1.722.396.852.834 1.684.438.832.918 1.64.478.808.994 1.592.518.786 1.074 1.542.554.758 1.146 1.488.592.73 1.22 1.43.626.7 1.286 1.368.662.668 1.354 1.304.692.634 1.416 1.234.722.6 1.474 1.164t1.53 1.09q.778.528 1.58 1.016.804.486 1.63.934.826.448 1.674.854.846.406 1.712.77.866.366 1.75.686.882.322 1.78.6.898.278 1.808.51.91.234 1.83.422.922.188 1.85.332.928.142 1.862.24.936.096 1.874.148.938.05 1.878.056.938.006 1.878-.036.938-.042 1.874-.128.936-.088 1.866-.22.93-.134 1.852-.312t1.834-.402q.91-.222 1.81-.49t1.786-.58q.884-.312 1.754-.666.868-.354 1.72-.75.85-.398 1.68-.836.83-.438 1.638-.916.808-.478 1.592-.996.782-.516 1.54-1.072.756-.554 1.486-1.146.728-.59 1.426-1.218.7-.626 1.366-1.286.668-.66 1.302-1.352.634-.692 1.234-1.414t1.164-1.472q.562-.752 1.088-1.528.526-.778 1.014-1.58.486-.802.934-1.628.446-.826.852-1.672.408-.846.772-1.71.364-.866.684-1.748.322-.882.6-1.778.278-.896.51-1.806.234-.908.422-1.828.19-.92.332-1.848.144-.926.242-1.86.096-.934.148-1.87.052-.938.058-1.876.006-.94-.036-1.876-.04-.938-.126-1.874-.086-.934-.218-1.864-.132-.928-.31-1.85t-.4-1.834q-.222-.912-.49-1.812-.266-.898-.578-1.784-.31-.886-.664-1.756-.354-.868-.75-1.72-.396-.85-.834-1.682-.436-.83-.914-1.638-.478-.808-.994-1.592t-1.07-1.54q-.556-.758-1.146-1.488-.59-.728-1.216-1.428t-1.286-1.368q-.66-.668-1.35-1.302-.692-.634-1.414-1.234t-1.472-1.164q-.75-.564-1.528-1.092-.776-.526-1.578-1.014t-1.628-.936q-.824-.448-1.67-.854-.846-.406-1.71-.772-.866-.364-1.746-.686-.882-.322-1.778-.6-.898-.28-1.806-.514-.908-.234-1.828-.422-.92-.19-1.848-.334-.926-.144-1.86-.242t-1.87-.15q-.938-.054-1.876-.06-.938-.006-1.876.034t-1.872.124q-.936.086-1.864.218-.93.132-1.852.308Zm-666.786.562q-.916.116-1.825.276-.91.16-1.81.366-.901.204-1.79.454-.89.248-1.766.54-.876.294-1.736.628-.861.336-1.704.714-.843.376-1.666.794-.824.418-1.626.878-.802.458-1.58.954-.778.498-1.531 1.032-.753.536-1.479 1.108-.725.57-1.422 1.176-.697.608-1.363 1.248-.665.64-1.299 1.312-.634.672-1.234 1.374-.6.702-1.164 1.432-.564.732-1.092 1.49-.528.758-1.018 1.54-.49.784-.94 1.59-.451.806-.862 1.632-.41.828-.78 1.674-.369.848-.696 1.71-.327.864-.612 1.744-.284.878-.525 1.77-.24.892-.437 1.794-.196.902-.348 1.814-.152.91-.259 1.828-.107.918-.168 1.838-.062.922-.078 1.846-.016.922.014 1.846.029.924.104 1.844t.195 1.836q.12.916.285 1.824.165.91.374 1.808.21.9.463 1.788.254.888.55 1.762.297.876.637 1.734.34.86.721 1.7.382.842.804 1.662.422.822.885 1.622.462.8.963 1.574.501.776 1.04 1.526t1.114 1.474q.575.722 1.185 1.416.61.694 1.253 1.356.643.664 1.318 1.294t1.38 1.226q.706.596 1.44 1.158.733.56 1.494 1.084.76.524 1.546 1.01.785.486 1.593.932.809.448 1.638.854.83.406 1.678.77.848.366 1.714.688.865.324 1.745.604.88.28 1.773.516.893.236 1.796.428.904.192 1.815.34.912.146 1.83.248.918.102 1.84.16.922.056 1.845.068.924.012 1.847-.022.923-.034 1.843-.114.92-.08 1.835-.204.91-.124 1.811-.292.903-.168 1.795-.38.893-.212 1.775-.468.881-.256 1.749-.554.868-.298 1.72-.638t1.687-.722q.834-.382 1.65-.804.814-.422 1.607-.884.794-.46 1.563-.96.77-.5 1.515-1.036.744-.536 1.461-1.11.718-.572 1.406-1.178.688-.608 1.346-1.248.658-.638 1.284-1.31t1.218-1.372q.592-.702 1.15-1.43.556-.73 1.078-1.486.52-.754 1.004-1.534t.928-1.584q.444-.802.85-1.626.404-.824.768-1.666t.686-1.702q.324-.858.604-1.732.28-.874.516-1.76.238-.888.43-1.784.194-.898.342-1.804.15-.904.254-1.816.106-.912.166-1.828.06-.916.074-1.832.016-.918-.014-1.836-.03-.916-.104-1.832-.074-.914-.194-1.824-.12-.91-.282-1.812-.164-.904-.372-1.798t-.458-1.776q-.252-.884-.546-1.752-.294-.87-.63-1.724t-.714-1.69q-.376-.836-.794-1.654-.418-.816-.876-1.612-.458-.796-.952-1.568-.496-.772-1.03-1.52-.532-.746-1.102-1.468-.568-.72-1.172-1.41-.604-.692-1.24-1.354-.636-.66-1.304-1.29-.668-.628-1.366-1.224-.698-.596-1.424-1.158-.727-.56-1.48-1.084-.753-.526-1.53-1.012-.778-.488-1.578-.936-.801-.45-1.623-.858-.821-.41-1.662-.778-.84-.368-1.698-.694-.857-.328-1.73-.612-.872-.284-1.758-.526-.885-.24-1.781-.438-.897-.198-1.801-.352-.905-.154-1.816-.264-.911-.108-1.827-.174-.915-.064-1.833-.084-.917-.02-1.835.006-.917.026-1.832.096t-1.826.184Zm512.13 56.27c-1.48 1.51-2.288 16.152-2.822 19.24-6.082 35.114-23.834 63.812-47.472 90.076 22.306 22.692 44.22 45.808 66.748 68.284 8.92-3.028 18.05-6.15 27.592-6.162 3.97-.006 18.158 2.656 19.752 2.226 4.954-7.62 10.544-14.766 15.326-22.51 25.59-41.452 33.97-71.47 42.914-117.266-11.296-8.824-19.878-20.028-24.076-33.888l-66.424-.018c-10.338-.006-21.292-.85-31.538.018Zm-443.902 0c-6.422 18.09-12.432 25.644-27.582 37.432 12.46 61.472 33.324 111.688 80.934 155.964 25.186-8.31 43.172-3.73 64.614 9.254 5.886-5.344 11.552-11.51 17.972-16.162 10.934-14.066 34.656-37.356 48.658-49.744-49.346-34.098-81.926-72.992-86.47-136.744h-98.126ZM723.628 725.9q-.918.154-1.826.352-.908.2-1.806.442-.896.244-1.782.53-.884.288-1.754.616-.868.33-1.72.704-.852.372-1.686.784-.832.414-1.644.868-.812.454-1.6.948-.788.494-1.55 1.024-.764.532-1.5 1.1-.736.568-1.442 1.172-.708.604-1.384 1.242-.678.638-1.322 1.308t-1.256 1.372q-.61.7-1.186 1.43t-1.114 1.488q-.54.758-1.04 1.542-.502.782-.964 1.59-.462.806-.884 1.634-.422.83-.804 1.678-.38.848-.718 1.714-.34.866-.636 1.748-.296.88-.548 1.776-.252.894-.46 1.802-.206.906-.37 1.82-.164.916-.282 1.838-.116.924-.19 1.85-.072.928-.098 1.856-.028.93-.008 1.86.018.93.082 1.856.064.928.174 1.852.11.924.266 1.84.156.916.356 1.824.2.91.444 1.806.244.898.532 1.782.288.884.62 1.752.33.87.704 1.72.374.852.788 1.684.414.832.87 1.644.456.81.95 1.598.494.788 1.026 1.55.534.762 1.102 1.498.57.734 1.174 1.44.606.708 1.244 1.382.638.676 1.31 1.32t1.372 1.254q.702.61 1.434 1.184t1.49 1.112q.758.538 1.542 1.038t1.59.962q.808.462 1.638.882.828.42 1.678.8.848.38 1.714.718.868.336 1.75.632.882.294 1.776.544.896.252 1.802.458.908.206 1.822.368.916.162 1.84.278.922.118 1.848.188.928.072 1.858.098.928.024 1.858.004t1.858-.086q.928-.066 1.85-.176.924-.112 1.84-.268.914-.156 1.822-.358.906-.2 1.8-.444.896-.246 1.778-.534.882-.29 1.75-.62.866-.332 1.716-.706.85-.374 1.68-.788.83-.414 1.638-.87.81-.454 1.596-.948.786-.496 1.546-1.028t1.494-1.1q.734-.568 1.438-1.172t1.38-1.242q.674-.638 1.316-1.308t1.25-1.372q.61-.7 1.182-1.43.574-.73 1.112-1.486.536-.758 1.036-1.54t.96-1.588q.46-.806.88-1.634.42-.828.8-1.674.38-.848.716-1.712.338-.864.632-1.746.294-.88.546-1.772.25-.894.458-1.8.206-.904.368-1.818t.28-1.834q.116-.922.188-1.846.072-.926.1-1.854.026-.928.006-1.856-.018-.928-.084-1.854-.064-.926-.174-1.848-.11-.92-.264-1.836-.154-.916-.354-1.822-.2-.906-.444-1.802t-.53-1.778q-.288-.882-.618-1.75t-.702-1.718q-.374-.85-.786-1.68-.414-.832-.868-1.64-.454-.81-.948-1.598-.492-.786-1.024-1.546-.53-.762-1.098-1.496-.568-.734-1.17-1.44-.604-.706-1.24-1.382-.638-.674-1.306-1.318-.67-.642-1.37-1.252-.7-.61-1.428-1.184-.73-.576-1.486-1.114-.756-.538-1.538-1.038-.78-.5-1.586-.962-.806-.462-1.632-.882-.828-.422-1.674-.802-.846-.382-1.712-.72-.864-.338-1.744-.634-.878-.296-1.772-.548-.894-.252-1.798-.46-.904-.208-1.818-.372t-1.834-.282q-.92-.118-1.846-.192-.926-.072-1.854-.1-.926-.028-1.856-.01-.926.018-1.852.08-.926.064-1.848.172-.922.108-1.838.262Zm-409.944 17.282q-.916.114-1.824.274-.91.158-1.81.362t-1.788.452q-.89.248-1.766.538-.876.292-1.736.626t-1.702.71q-.844.376-1.666.792-.824.418-1.626.874-.802.456-1.58.952-.778.496-1.532 1.03-.752.534-1.478 1.102-.726.57-1.424 1.176-.696.604-1.364 1.242-.666.64-1.3 1.31t-1.234 1.37q-.6.702-1.166 1.43-.566.73-1.094 1.486-.528.756-1.02 1.538-.49.782-.942 1.586-.452.806-.864 1.632-.412.824-.782 1.67-.37.846-.7 1.708-.328.862-.614 1.74-.286.876-.528 1.768-.242.89-.44 1.792-.198.9-.352 1.81-.154.91-.262 1.826-.108.918-.172 1.838-.064.92-.082 1.844-.018.922.01 1.844.026.922.1 1.842.072.92.19 1.836.118.916.28 1.824.164.908.37 1.808.208.898.458 1.786.252.888.546 1.762.296.876.632 1.734.338.86.716 1.7.38.842.8 1.664.42.822.88 1.622.46.8.958 1.576.498.776 1.034 1.528.538.75 1.11 1.474.572.724 1.18 1.418t1.248 1.358q.64.664 1.314 1.296.672.632 1.376 1.23.702.598 1.434 1.16.732.562 1.49 1.088t1.542 1.014q.782.488 1.588.936.808.45 1.634.858.828.408 1.674.776.848.366 1.71.692.864.326 1.742.608.88.282 1.77.522.892.238 1.794.432.902.196 1.812.346.91.15 1.828.254.916.106 1.838.166.92.06 1.842.074.924.016 1.846-.016.922-.03 1.842-.106t1.834-.198q.91-.12 1.814-.286.904-.164 1.798-.374t1.776-.462q.884-.252 1.752-.548.87-.296 1.724-.634.854-.336 1.69-.716.838-.38 1.654-.798.818-.42 1.612-.88.796-.458 1.568-.956.772-.498 1.518-1.032.746-.536 1.466-1.106.72-.57 1.41-1.176.692-.604 1.352-1.244.66-.638 1.288-1.308.628-.668 1.224-1.368.594-.7 1.154-1.428.56-.728 1.084-1.484.524-.754 1.01-1.532.484-.78.932-1.582.448-.802.854-1.626.408-.822.774-1.664.368-.842.692-1.702.326-.858.608-1.732t.522-1.76q.24-.888.436-1.784.194-.898.346-1.804.152-.906.26-1.818.106-.912.168-1.828.062-.916.08-1.834.018-.918-.01-1.836-.028-.918-.1-1.834-.072-.916-.19-1.826-.118-.91-.278-1.814-.162-.904-.368-1.8-.206-.894-.456-1.778-.248-.884-.54-1.756-.294-.87-.628-1.726-.334-.854-.71-1.692-.376-.838-.792-1.656-.418-.818-.874-1.616-.456-.798-.95-1.57-.494-.774-1.026-1.524-.532-.748-1.1-1.47-.568-.722-1.172-1.414-.602-.694-1.238-1.356-.636-.664-1.302-1.294-.668-.63-1.366-1.228-.696-.598-1.422-1.16-.726-.562-1.48-1.088-.752-.528-1.53-1.016-.776-.49-1.578-.94-.8-.45-1.622-.86-.82-.41-1.662-.78-.84-.37-1.698-.698-.858-.328-1.73-.614t-1.758-.528q-.886-.244-1.782-.442-.898-.2-1.802-.354-.906-.156-1.818-.266-.91-.11-1.826-.176-.916-.066-1.836-.088-.918-.02-1.836.004t-1.832.094q-.916.068-1.828.182Zm191.654 64.808q-.938.054-1.872.154-.932.102-1.86.248-.928.146-1.848.336-.92.192-1.828.428t-1.806.516q-.896.282-1.776.606-.882.324-1.746.69-.864.368-1.71.776-.846.41-1.67.86t-1.626.94q-.8.49-1.576 1.018t-1.526 1.094q-.75.566-1.47 1.168t-1.412 1.24q-.69.636-1.348 1.306-.658.67-1.282 1.37-.626.702-1.214 1.434-.59.73-1.142 1.49-.554.758-1.068 1.544-.516.786-.992 1.594-.474.81-.91 1.642-.436.832-.83 1.684-.394.854-.746 1.724t-.66 1.758q-.31.886-.574 1.788-.266.9-.486 1.812-.22.914-.394 1.836-.176.922-.306 1.854-.13.93-.214 1.864-.084.936-.122 1.874-.038.938-.03 1.878.008.938.062 1.876t.154 1.872q.1.934.246 1.86.146.928.336 1.848.192.92.428 1.828.236.91.516 1.806t.604 1.778q.324.882.69 1.746.366.864.776 1.71.408.846.858 1.67t.938 1.626q.49.802 1.018 1.578t1.094 1.526q.566.75 1.168 1.47.602.722 1.238 1.412t1.306 1.348q.67.66 1.372 1.284.7.626 1.432 1.214.73.59 1.488 1.144.76.552 1.544 1.068.786.516 1.596.992t1.642.912q.83.436 1.684.83.852.394 1.722.746t1.758.662q.886.308 1.788.574.9.264 1.812.486.914.22 1.836.396.922.176 1.852.306t1.866.214q.936.084 1.874.122.938.04 1.878.032.938-.008 1.876-.062t1.872-.154q.934-.1 1.862-.244.928-.146 1.848-.338.92-.19 1.83-.426t1.806-.516q.896-.28 1.778-.604.882-.324 1.748-.69.864-.366 1.71-.776.846-.408 1.672-.858.824-.45 1.626-.94.802-.49 1.578-1.018.778-.528 1.528-1.094.75-.566 1.47-1.168.722-.602 1.412-1.238.692-.638 1.35-1.308.658-.67 1.284-1.37.624-.702 1.214-1.434.59-.73 1.144-1.49.554-.76 1.068-1.544.516-.786.992-1.596t.912-1.642q.436-.832.83-1.686.396-.852.748-1.722.352-.872.66-1.758.31-.888.574-1.79.266-.9.486-1.814.22-.914.396-1.836.176-.924.306-1.854t.214-1.866q.084-.936.122-1.874.038-.94.03-1.878-.008-.94-.062-1.878t-.154-1.872q-.1-.934-.246-1.862t-.336-1.848q-.192-.92-.428-1.83t-.516-1.806q-.282-.896-.606-1.778t-.69-1.748q-.368-.864-.776-1.71-.41-.846-.86-1.67-.45-.826-.94-1.626-.488-.802-1.018-1.58-.528-.776-1.094-1.526-.566-.75-1.168-1.47-.604-.722-1.24-1.412-.638-.69-1.308-1.35-.67-.658-1.372-1.282-.7-.626-1.432-1.216-.732-.588-1.49-1.142-.76-.552-1.546-1.068t-1.596-.992q-.81-.476-1.642-.91-.832-.436-1.686-.83-.852-.394-1.724-.746-.87-.352-1.758-.662-.888-.308-1.788-.572-.902-.266-1.816-.486-.912-.22-1.836-.396-.922-.174-1.854-.304-.93-.13-1.866-.214-.936-.084-1.874-.122-.94-.038-1.878-.028-.94.008-1.878.062Z"/><path d="M498.396 417.2c-1.182-9.97-1.664-18.044 8.796-22.576l.374-.04c16.212-1.554 18.072 8.862 18.798 22.616 65.18-.982 67.32 78.704 34.886 62.146-11.692-5.968-2.64-28.194-24.246-33.404-5.692-1.374-39.31-1.128-46.448-.71-21.022 1.234-31.432 24.402-17.884 41.192 19.736 24.458 61.808-2.082 91.564 23.936 38.036 33.258 18.752 92.174-37.872 94.782.188 9.954-.034 18.052-9.96 22.974-16.304 3.55-18.634-10.514-18.008-22.974-61.862-1.556-69.108-62.976-43.75-62.848 28.776.144-5.73 35.184 50.864 34.764l19.766.042c35.826-.224 38.36-37.298 17.904-48.262-21.23-11.38-59.238 8.43-88.124-19.668-36.044-35.06-12.714-92.134 43.34-91.97Z"/></svg><svg viewBox="0 0 1024 1024" id="course-icon-10" xmlns="http://www.w3.org/2000/svg"><path d="M312.482 172.265c-.18-10.912-1.536-19.767 10.102-24.701 17.118-.978 17.474 10.961 16.95 24.7 21.702 3.622 41.602 15.275 52.978 34.488 4.422 7.466 4.198 16.47-4.538 20.528-13.662 6.348-17.758-8.562-24.82-16.186-24.334-26.274-76.35-14.602-87.474 19.272-10.834 32.994 12.604 50.14 40.986 59.554 11.866 5.432 29.966 11.04 29.976 27.062.012 19.484-31.528 35.782-29.976-.696-33.33-11.042-65.074-24.024-69.212-63.54-4.058-38.744 26.014-76.592 65.028-80.481m277.976 56.203-.058-38.244c-.024-12.142-3.942-28.303 12.426-30.165 17.89-.29 35.84-.002 53.738-.003l179.916-.011c7.34 0 42.26-2.137 47.494 1.823 8.738 6.614 4.984 51.366 4.986 62.708v162.532c.006 37.844 8.93 41.574-31.66 41.542l-51.752-.034c-7.668 8.944-16.376 17.104-24.742 25.386l-62.702 61.746c-4.742 4.654-15.912 18.19-22.484 19.618-11.386 2.476-29.52-23.318-41.394-31.116l-.654-.424c-16.398 11.756-48.1 52.448-63.114 56.966-9.56-2.584-18.482-12.784-26.252-19.022l-43.466 41.522c14.512 16.454 37.72 34.88 54.104 50.448 11.734-10.846 64.528-66.538 75.89-70.516 32.784 7.372 3.048 30.038-7.568 40.444l-34.77 33.922c-33.562 32.25-26.71 39.894-60.748 6.944l-36.626-34.424c-31.79-29.852-28.05-25.05-.168-53.028l28.292-28.088c29.252-28.676 20.444-22.296 51.312.284 3.66-4.95 8.252-8.982 12.588-13.316l24.52-24.084c21.832-21.414 19.86-30.168 45.554-6.208 6.596 6.152 13.246 12.248 20.058 18.156 12.656-13.374 26.25-25.99 39.59-38.682l38.288-36.528-147.928.018c-29.798-.006-33.152 4.384-32.67-26.124-25.364 16.868-50.976 44.202-75.814 63.554 12.576.142 25.168-.022 37.746-.052 10.14-.024 28.27-2.94 29.92 11.51.956 8.37-6.136 14.074-13.728 14.414-18.858.842-38.092.102-56.986.09-15.99-.012-46.226 6.916-46.942-14.494-.586-17.53-.116-35.23-.118-52.778l.052-157.832c-.02-13.702-5.922-36.784 11.99-38.336 11.69-1.014 25.422-.142 37.282-.14zm46.778-42.962c8.258 8.03 17.904 15.034 26.84 22.302l52.334 43.188c7.426 6.228 15.43 12.192 22.47 18.834 17.15-16.608 36.814-30.77 54.942-46.32l31.198-25.151c5.188-4.222 10.646-8.321 15.56-12.853zm225.074 15.988c-30.376 21.638-62.212 51.892-91.706 75.776-11.982 9.702-26.332 29.276-40.596 18.794-38.554-28.328-73.424-62.948-112.724-91.794l.002 131.908c-.002 22.076-.526 44.272-.002 66.332h225.89c-15.842-13.432-32.002-26.526-48.17-39.564-7.012-5.654-29.916-20.084-30.726-29.432-.924-10.646 9.91-19.396 19.716-13.212 24.2 15.26 54.204 45.52 78.316 64.04-.002-17.116.538-181.74 0-182.848M535.754 254.13h-21.11c12.918 15.568 47.514 40.712 64.026 54.968 3.872 3.272 7.688 6.698 11.788 9.682v-64.65zm-45.242 15.7v181.864c16.944-11.168 37.768-31.81 54.298-45.206 11.422-9.268 36.73-28.948 45.648-39.244-.084-4.6-.204-9.19 0-13.788-19.734-17.714-40.444-34.332-60.784-51.348l-26.894-22.312c-4.026-3.294-8.018-6.994-12.268-9.966"/><path d="M280.514 372.592c-10.412-7.578-34.056-32.872-11.684-40.952 11.534-4.166 14.62 6.684 20.312 13.488 31.726 37.912 104.082 1.25 86.306-46.706-13.192-35.588-61.948-28.798-69.418-51.038-3.822-11.384 3.064-22.342 13.89-25.786 12.538-1.164 14.134 7.564 14.09 17.988 11.35 4.128 23.332 7.852 33.81 13.912 62.138 35.932 40.898 113.306-28.286 130.844.084 6.846 1.55 17.198-3.702 22.412-5.228 5.19-14.79 5.142-19.842-.304-4.812-5.186-3.55-15.502-3.508-22.108-11.946-1.73-21.968-4.89-31.968-11.75m56.232 294.216c-59.436 5.286-111.904-38.612-117.19-98.048s38.612-111.904 98.048-117.188c59.436-5.286 111.902 38.61 117.188 98.046s-38.61 111.904-98.046 117.19m-17.472-189.094c-44.968 4.534-77.788 44.598-73.384 89.58 4.404 44.98 44.372 77.918 89.364 73.644 45.18-4.29 78.282-44.46 73.86-89.626s-44.688-78.152-89.84-73.598"/><path d="m474.926 876.536-272.768-.014c-53.07.014-67.54.328-67.294-53.962.15-33.018-.153-58.746 15.422-89.244 18.549-36.32 48.977-64.024 88.108-76.728 13.364-1.032 13.912 8.002 19.052 17.9 26.358 50.75 103.766 54.662 135.494 5.018 11.966-18.726 9.68-30.018 35.814-17.572 53.806 25.628 89.33 75.48 89.774 136.56l.052 25.226c-.012 33.13-6.17 53.136-43.654 52.816m-241.34-190.032c-59.128 31.696-72.51 73.314-72.62 135.242-.02 10.556-2.777 21.234 6.241 28.914 10.57.7 21.551.008 32.167.002l275.552-.002c7.222-.052 14.884-.434 16.774-8.818 1.78-7.894.832-35.71.732-45.592-.476-46.462-30.508-92.218-73.804-109.746-39.798 67.084-130.866 73.882-177.172 11.868-2.136-2.862-5.392-10.136-7.87-11.868"/></svg><svg viewBox="0 0 1024 1024" id="course-icon-2" xmlns="http://www.w3.org/2000/svg"><path d="M338.292 508.688c-99.468 6.116-185.105-69.464-191.396-168.922-6.291-99.456 69.14-185.226 168.586-191.69 99.692-6.481 185.72 69.178 192.026 168.88 6.308 99.704-69.502 185.6-169.216 191.732ZM321.02 186.481c-70.06 1.59-130.03 59.559-136.135 128.943-3.822 43.432 11.797 79.044 40.233 111.722 23.62-41.426 63.202-63.488 110.18-62.084 40.9 4.042 73.5 27.212 93.764 62.084 54.504-56.204 54.254-145.3-2.258-200.162-26.552-25.776-67.94-45.527-105.784-40.503Zm4.604 217.239c-30.202 1.834-57.1 19.56-68.91 47.582 22.164 11.742 47.846 18.81 73.038 17.692 23.354-.158 47.462-6.16 67.882-17.692-12.222-29.372-40.336-47.984-72.01-47.582Zm303.252 97.854c-42.002.12-83.202-1.946-83.878-55.974-.568-45.282-.038-90.64-.03-135.93l.006-39.402c-.004-30.458 2.074-58.736 39.014-68.6 14.682-3.92 34.722-2.193 50.13-2.195l62.846-.02 82.864.006c36.31-.006 86.528-6.04 96.404 42.075 2.136 10.408 1.318 22.078 1.324 32.684l.008 130.81c-.004 35.308 7.444 86.964-39.538 95.618-10.434 1.922-22.148.946-32.748.94l-43.486-.014c-5.854.016-15.614-.922-20.908.924-5.986 2.088-41.564 35.978-48.694 42.628-7.536 7.118-29.07 27.65-36.7 32.196-9.52 5.672-23.566.612-25.996-10.626-1.546-7.142-.658-15.89-.654-23.236l.036-41.884Zm-30.314-264.6c-22.46 2.582-15.54 30.612-15.542 48l-.01 133.648c.002 33.692-8.422 46.022 30.812 45.534l25.268-.166c37.902-.09 29.578 21.268 29.466 51.396 9.886-8.544 51.328-48.3 60.706-50.516 8.776-2.072 34.328-.78 44.488-.802l36.462.058c37.98.048 29.768-7.044 29.768-42.742l-.01-127.176c.018-13.41.56-27.068-.164-40.452-1.208-22.304-24.736-16.778-41.912-16.784l-199.332.002Z"/><path d="M334.258 334.39c-31.142 4.118-59.694-17.88-63.652-49.042-3.96-31.164 18.184-59.602 49.368-63.402 30.958-3.774 59.148 18.176 63.078 49.116 3.932 30.938-17.874 59.24-48.794 63.328Zm-9.758-74.676c-10.01 1.262-17.078 10.43-15.752 20.43 1.326 10.002 10.54 17.012 20.532 15.62 9.902-1.378 16.834-10.49 15.52-20.4-1.314-9.91-10.382-16.9-20.3-15.65Zm414.32 153.844c-8.278 4.294-17.87 14.808-26.854 15.838-8.294.954-25.23-15.252-31.408-19.96-21.746-16.57-49.496-30.272-53.114-60.354-3.988-33.17 18.352-61.152 51.33-64.894 11.946-1.632 22.648 1.59 33.098 7.028 34.658-23.044 86.18 7.016 85.398 51.726-.752 43.008-34.312 46.804-57.88 70.048l-.57.568Zm-57.228-91.988c-13.686 3.48-24.044 18.43-13.452 30.776 6.968 8.122 33.722 26.632 43.732 32.992 9.156-6.178 19.206-12.36 26.948-20.276 22.938-8.036 29.992-34.036 8.456-42.536-16.784-6.624-25.192 17.494-41.304 12.358-9.812-3.128-12.492-13.954-24.38-13.314ZM303.476 600.914c5.848-1.508 11.588-3.718 17.316-5.644l82.388-27.456c21.522-7.384 41.318-16.09 64.394-17.34 25.742-4.5 69.756 10.75 92.26 21.262 45.518 21.264 44.914 87.436-5.406 105.008 4.484 4.382 8.82 8.932 13.2 13.416 28.422-9.48 80.122-38.896 107.804-53.164 11.344-5.846 22.64-13.046 34.76-17.118 55.504-18.64 98.04 57.514 52.284 93.634-10.994 8.678-24.056 15.526-35.814 23.17-20.294 13.192-40.248 26.972-60.328 40.494l-76.166 52.256c-22.052 15.224-45.084 33.214-70.92 41.112-29.518 7.08-47.58 1.544-74.506-9.022l-95.238-36.398c-15.276-5.668-30.494-11.76-46.028-16.678.26 33.356-17.372 28.062-44.922 28.038l-74.881-.03c-37.357.272-37.169-3.864-37.158-40.494V612.494c-.09-35.902 4.821-33.552 42.082-33.55l79.693-.008c19.666-.13 32.97-1.418 35.186 21.978Zm161.848-12.41c-17.096 2.356-33.928 9.566-50.186 15.196l-72.18 24.698c-13.1 4.43-26.092 9.49-39.482 12.97v124.818c40.062 14.698 79.86 30.24 119.588 45.824l34.396 13.488c50.214 19.722 58.66 7.794 102.928-22.138l67.848-46.29c9.45-6.466 18.768-13.22 28.338-19.49 11.552-7.562 84.764-52.53 86.752-63.108 1.698-9.044-5.35-17.848-14.376-18.794-8.706-.914-18.918 6.242-26.256 10.096l-21.638 11.09c-29.238 14.878-58.396 29.95-87.976 44.14-13.792 6.616-28.944 18.474-42.858 5.828-21.276-19.336-39.892-41.298-60.5-61.3-6.656-6.46-13.37-11.788-12.41-22.238.972-10.606 10.064-19.954 21.162-18.084 12.068 2.034 19.15 16.502 35.81 17.316 22.332 1.09 27.904-25.66 9.244-36.048-18.242-10.158-55.832-20.408-78.204-17.974Zm-280.587 28.142v181.258h79.211l1.148-.348c1.37-4.004.444-38.058.448-44.862l.018-136.048h-80.825Z"/></svg><svg viewBox="0 0 1024 1024" id="course-icon-3" xmlns="http://www.w3.org/2000/svg"><path d="M762.254 431.178c-69.438 2.808-127.986-51.246-130.72-120.688-2.734-69.442 51.384-127.931 120.828-130.59 69.338-2.655 127.72 51.362 130.45 120.698 2.73 69.336-51.224 127.774-120.558 130.58Zm-15.542-229.402c-57.368 5.768-99.18 56.976-93.36 114.338 5.82 57.362 57.066 99.126 114.422 93.254 57.282-5.866 98.982-57.03 93.17-114.318-5.814-57.288-56.94-99.034-114.232-93.274ZM277.824 430.468c-69.096 6.332-130.238-44.558-136.552-113.656-6.313-69.098 44.594-130.225 113.694-136.52 69.072-6.292 130.172 44.592 136.482 113.662 6.312 69.072-44.554 130.186-113.624 136.514Zm-16.648-229.246c-57.68 2.904-102.031 52.106-98.953 109.778 3.078 57.67 52.415 101.872 110.075 98.62 57.416-3.238 101.388-52.318 98.324-109.744-3.066-57.424-52.012-101.544-109.446-98.654Z"/><path d="M766.64 379c-40.66 5.216-77.86-23.482-83.134-64.134-5.274-40.652 23.372-77.894 64.016-83.224 40.726-5.342 78.06 23.374 83.344 64.108 5.284 40.732-23.486 78.024-64.226 83.25Zm-12.354-126.28c-29.298 1.566-51.706 26.71-49.898 55.996 1.808 29.284 27.136 51.482 56.406 49.432 28.928-2.026 50.812-26.998 49.024-55.94-1.786-28.944-26.576-51.034-55.532-49.488ZM291.85 355.306c-8.684 6.566-21.174 26.056-33.318 15.36-8.588-7.562-63.794-60.314-65.648-66.028-1.737-5.35 3.855-35.258 6.89-40.288 2.892-4.796 36.136-19.834 42.226-21.274 10.542-.764 18.116 10.93 25.034 17.244 5.236-5.074 14.504-16.422 21.974-16.884 5.572-.344 38.218 14.606 42.946 18.736 5.048 4.41 9.752 30.388 10.058 37.336.616 13.86-39.42 43.942-50.162 55.798ZM242 266.132c-8.268 3.05-15.854 7.572-24.046 10.724-.922 7.388-2.674 14.602-3.672 21.962 18.266 15.986 34.9 33.93 52.752 50.41 7.328-7.354 14.86-14.468 22.428-21.574 10.066-9.51 20.804-18.784 30.308-28.836-.922-7.384-2.73-14.61-3.856-21.962-8.296-2.916-15.98-7.306-24.064-10.724-6.476 5.738-16.582 19.632-25.716 18.85-9.838-.842-16.388-13.634-24.134-18.85Z"/><path d="M738.398 345.156c-5.26-3.68-8.962-6.83-9.468-13.44-.56-7.276-.864-51.052 1.022-55.946 1.428-3.7 5.168-5.528 8.446-7.304 7.728 2.906 54.312 26.398 57.746 30.546 2.692 3.248 1.616 8.894 1.232 12.73-6.87 5.11-18.796 11.224-26.638 15.912-9.92 5.408-22.03 13.972-32.34 17.502Zm11.18-48.652v18.114c3.414-1.832 6.782-3.656 10.018-5.792l6.782-3.692c-5.77-2.578-11.47-5.204-16.8-8.63Zm-531.624 355.43c-45.065-.518-49.42-27.256-49.377-66.724l-.045-64.36c-.147-37.332 12.69-52.008 52.228-52.052l92.308-.022c40.694-.07 37.516-2.064 77.192-18.302 31.908-13.058 63.992-25.604 96.084-38.198 14.926-5.858 34.52-14.914 49.62-18.676 27.404-3.956 23.088 30.872 23.09 46.654l-.026 59.506c74.618 4.87 71.592 106.38 0 110.718l.004 64.44c.01 17.048 4.91 56.752-25.482 50.158-7.386-1.604-14.768-4.848-21.796-7.582l-136.566-54.542c.152 18.064.968 33.848-17.984 42.398 5.18 24.48 18.526 57.404 21.054 80.186 3.32 29.918-19.398 53.97-48.382 56.976-46.564-5.952-50.404-29.262-63.132-70.38l-12.394-40.86c-2.53-8.39-5.334-16.732-7.45-25.238-32.908-2.592-29.018-27.88-28.946-54.1Zm318.01-235.922c-43.138 15.966-85.66 33.716-128.494 50.506-16.562 6.492-33.29 14.338-50.266 19.59v146.78c17.836 7.512 35.736 14.966 53.724 22.106 41.532 16.522 86.284 32.07 126.796 50.356l-.012-253.16c0-6.204 1.634-31.988-.772-36.298l-.976.12Zm-325.01 73.578c-22.682 2.406-21.657 20.364-21.676 38.692l-.002 62.06c.05 48.598 13.926 40.3 55.882 40.296l70.756-.03h20.434c.738-46.958-.004-94.046 0-141.018-41.78 0-83.622-.484-125.394 0Zm348.074 31.462c.316 8.244.028 16.488.006 24.734l-.006 42.694c9.614-.292 16.316-2.97 23.434-9.358 20.748-22.744 7.308-54.684-23.434-58.07Zm-230.91 130.882h-89.234c-.84 32.324-6.33 33.272 25.458 33.16 11.294.006 83.766 1.322 88.35-1.44 2.086-5.886.946-21.714.834-28.66-8.318-4.772-16.22-3.408-25.408-3.06Zm-56.494 54.1-1.538.334c-1.73 3.884 23.068 82.674 26.942 92.75 7.656 19.92 33.654 30.728 50.786 14.984 14.174-15.35 8.888-31.092 4.018-48.868l-9.998-36.896c-1.962-7.33-4.352-14.802-5.486-22.304-21.524-.016-43.22-.638-64.724 0Zm338.678-266.41c-8.392 1.394-15.788-5.534-12.596-13.978 2.208-5.84 22.61-24.55 28.34-27.12 7.822-.338 16.468 4.666 12.966 13.916-2.066 5.452-23.12 24.852-28.71 27.182Zm18.85 55.09c-9.114 1-15.098-8.306-11.158-16.31 2.348-4.766 45.134-27.582 52.35-29.846 10.28.204 17.49 11.874 7.778 19.204-8.086 6.104-40.664 23.934-48.97 26.952Zm73.9 73.2c-9.042.732-45.076 1.158-50.384-1.848-9.202-5.214-4.99-17.834 4.144-20.062 15.984-.816 32.71-.39 48.708 0 8.856 6.872 8.27 18.16-2.468 21.91Zm62.676 274.438c-69.802 4.748-130.278-47.898-135.192-117.69-4.914-69.792 47.59-130.392 117.37-135.47 70.012-5.094 130.86 47.622 135.79 117.648 4.93 70.024-47.932 130.748-117.968 135.512ZM752 610.654c-57.874 2.936-102.446 52.172-99.624 110.052 2.822 57.88 51.97 102.55 109.854 99.842 58.048-2.714 102.87-52.03 100.042-110.072-2.83-58.042-52.234-102.766-110.272-99.822Zm-146.232 9.382c6.416-3.382 10.796-6.948 14.772-13.076 5.31 4.364 16.652 9.442 16.396 17.622-.246 7.872-7.55 11.198-14.374 11.064-6.774-2.366-12.502-10.132-16.794-15.61Z"/><path d="M728.886 685.094c-9.99-26.248-4.886-54.204 28.124-57.91 32.058-.09 41.286 31.496 29.762 57.91 17.418 10.236 20.618 30.566 17.426 49.174 12.938 9.19 19.126 22.662 20.198 38.4 1.226 18.036-18.138 14.26-30.23 14.258l-34.57-.034-38.428.032c-9.936 0-31.23 3.972-30.572-11.178.914-20.958 9.224-30.278 24.022-43.852-.672-19.7-1.8-31.714 14.268-46.8Zm27.196-35.064c-7.134 1.114-12.002 7.816-10.854 14.946 1.148 7.128 7.874 11.964 14.996 10.782 7.076-1.174 11.872-7.844 10.732-14.924-1.14-7.08-7.788-11.908-14.874-10.804Zm-.47 45.6c-36.75 7.642-9.426 39.794-14.894 47.9-4.172 6.18-17.848 5.08-26.1 21.646 18.664-.464 37.44.01 56.12 0h31.328c-6.872-22.31-29.334-13.01-32.854-24.496-2.53-8.254 8.176-11.964 14.154-13.36.69-17.29-8.36-33.174-27.754-31.69Z"/></svg><svg viewBox="0 0 1024 1024" id="course-icon-4" xmlns="http://www.w3.org/2000/svg"><path d="M732.702 236.922c-43.98-44.662-21.592-112.716 37.92-113.724 53.05-8.412 94.33 70.795 41.836 113.724 30.218 13.36 64.566 41.28 64.484 77.362-.038 16.396-21.72 45.396-32.002 55.554-8.504 8.4-21.06 5.78-31.968 5.778l-37.346-.032c-10.016-.004-66.638 1.178-71.874-1.13-7.952-3.51-13.354-15.98-17.856-22.82-14.544-22.1-26.058-32.394-14.034-60.146 11.118-25.662 35.44-44.396 60.84-54.566Zm36.904-90.143c-21.842 1.834-38.06 21.033-36.216 42.876 1.842 21.843 21.048 38.051 42.89 36.199 21.828-1.852 38.026-21.044 36.184-42.872-1.842-21.83-21.028-38.036-42.858-36.203Zm-3.23 107.251c-34.696 2.252-69.932 25.626-75.964 61.412 7.294 10.598 18.47 25.776 24.154 36.838h114.442c8.044-12.108 17.908-23.946 24.57-36.838-4.048-20.756-14.546-35.192-32.104-47.064-13.174-8.908-39.148-18.794-55.098-14.348Zm-553.392-17.108c-45.103-39.06-25.254-107.068 34.406-113.724 54.08-3.825 89.91 58.834 55.292 102.7-2.924 3.704-6.404 6.764-9.46 10.308l-.612.716c28.87 11.792 63.792 41.442 64.076 75.016.142 16.87-19.81 45.138-30.284 55.604-10.348 10.338-24.72 8.078-38.118 8.076l-32.654-.034-40.598.038c-33.836.008-31.381 2.524-50.637-25.8-13.814-20.32-25.827-31.91-13.549-58.39 10.729-23.138 38.615-45.978 62.138-54.51Zm34.674-89.379c-21.654 2.463-37.242 21.965-34.876 43.628 2.368 21.663 21.798 37.339 43.472 35.069 21.812-2.284 37.608-21.866 35.226-43.666-2.38-21.8-22.034-37.51-43.822-35.031Zm-.268 106.487c-31.804 1.066-76.422 26.762-76.984 62.746 8.105 11.404 16.66 22.698 23.975 34.63 20.405.28 40.839-.01 61.249 0h53.248c7.978-11.798 16.854-23.584 23.88-35.964-.54-36.894-53.092-65.122-85.368-61.412Z"/><path d="m500.26 315.442-.01-54.396c-.02-13.102-5.218-35.534 11.066-38.384 10.652-.394 21.458-.018 32.126-.02H647.51c7.69.004 15.666-.418 23.316.424 10.046 1.106 14.1 12.74 6.878 20.148-5.448 5.59-17.2 3.436-24.196 3.372l-129.57-.054v68.91c33.388-.938 77.832 18.416 104.39 38.128 51.562 38.27 70.24 85.47 79.152 145.534h70.064V436c-.008-8.502-.924-19.89.118-28.018 1.26-9.812 12.94-13.944 20.296-7.006 7.706 7.266 4.018 61.296 4.016 73.914-.004 44.106 8.622 47.746-38.716 47.702l-55.778-.026c-11.908 103.054-79.986 169.882-183.542 182.61v75.86c11.028-.532 22.258-.03 33.312 0l68.274-.01c10.734.002 24.02-.904 34.436.364 9.58 1.166 14.662 12.544 7.984 19.842-6.044 6.606-34.082 3.768-42.82 3.77l-95.36-.018c-37.014-.03-29.578-7.45-29.54-40.534l.036-59.274c-9.254-2.478-19.17-3.042-28.584-5.132-83.178-18.476-149.792-90.99-154.408-177.478h-72.024l-.016 67.25c.004 8.964.912 20.488.048 29.106-.972 9.688-12.698 15.084-20.214 7.978-7.338-6.938-3.796-66.182-3.816-78.634l-.032-24.842c-.014-31.718 10.366-24.36 39.472-24.356l56.582.036.016-.846c1.06-45.17 25.414-96.34 57.904-127.456 30.862-29.556 80.816-56.288 125.072-55.36Zm10.692 23.266c-94.496.614-170.598 77.726-169.964 172.222.634 94.496 77.764 170.58 172.26 169.924 94.466-.654 170.522-77.754 169.888-172.22-.634-94.466-77.718-170.538-172.184-169.926Z"/><path d="M481.582 416.21c-.078-10.634-2.726-22.964 9.502-27.268 8.51-.116 17.026-.088 25.54-.092 26.116-.014 26.634 2.01 26.516 27.36 13.758 4.69 26.104 11.174 36.426 21.566 10.034-5.224 19.404-13.96 28.274-2.586 3.534 4.53 17.03 29.014 18.982 34.472 4.406 12.306-8.322 15.668-16.428 21.526-.616 6.516-.39 30.138 0 37.13 7.038 6.318 20.79 9.862 17.264 22.242-1.482 5.2-15.112 27.908-18.716 32.458-9.794 12.362-19.166 2.664-30.856-.83l-.796-.234c-12.762 8.16-19.64 13.108-34.15 19.272-.34 9.932.972 17.11-7.076 24.788-7.936 1.036-16.744.044-24.78.056-26.434.042-32.128 3.398-31.826-24.844-11.692-5.384-22.354-11.604-32.676-19.272-6.328 3.022-12.48 6.156-19.316 7.87-7.776-2.11-11.57-7.842-15.628-14.342-17.154-27.486-23.988-30.142 4.036-47.164-3.18-13.548-1.906-25.41 0-39.018-10.688-7.282-22.57-11.624-15.468-26.21 3.288-6.748 13.76-24.454 18.482-29.732 8.702-9.724 18.418-2.336 27.894 2.472 11.152-8.846 21.116-15.252 34.8-19.62Zm31.602-3.308h-9.68v22.928c-21.262 3.734-38.6 12.544-51.524 30.238-6.366-3.564-12.722-7.314-19.252-10.56a800.255 800.255 0 0 0-8.264 11.638c6.506 4.21 13.142 8.412 18.828 13.716-7.396 18.596-8.654 38.352 0 56.714-6.242 4.326-13.394 8.072-18.828 13.394 1.98 5.09 4.67 8.774 8.264 12.86l19.252-11.134c14.852 18.136 28.578 25.112 51.524 29.258v20.754h17.092c-.282-6.926.032-13.828 0-20.754 21.342-3.66 38.674-12.44 52.738-29.258 6.97 3.224 13.622 7.19 20.204 11.134 2.436-4.31 4.864-8.62 7.422-12.86-6.256-4.65-12.642-9.052-19.116-13.394 7.232-22.154 6.21-34.596 0-56.714 6.28-3.968 12.532-7.976 19.116-11.432-2.788-4.534-5.4-8.976-7.422-13.922-6.894 3.134-13.756 6.58-20.204 10.56-14.064-17.254-30.56-27.334-52.738-30.238v-22.928h-7.412ZM742.992 760.17c-43.728-42.628-15.91-112.824 39.052-111.476 1.942-.662 4.322-.896 6.38-.91 33.884-.24 60.826 31.052 60.988 63.742.106 21.042-9.036 36.496-23.502 50.968 25.872 11.148 65.204 44.164 65.26 73.632.03 14.91-29.102 56.916-43.466 61.462-11.798 3.736-44.14 2.114-58.172 2.088l-37.728.022c-44.082.03-41.562.474-65.714-38.376-6.742-10.844-10.074-19.502-6.994-32.322 8.974-37.336 35.156-51.368 63.896-68.83Zm38.382-88.278c-21.972 2.058-38.122 21.528-36.086 43.502 2.036 21.974 21.488 38.146 43.464 36.134 22.01-2.016 38.21-21.504 36.172-43.512-2.04-22.008-21.544-38.188-43.55-36.124Zm.67 106.388c-33.68.124-74.054 26.208-80.94 61.028 3.12 6.998 17.904 30.582 23.298 35.25 10.182 1.74 20.718 1.504 31.012 1.502l32.336-.034c11.092.02 48.294 3.426 55.51-3.996 2.812-2.892 22.202-31.638 24.046-35.722-9.616-27.794-53.694-66.306-85.262-58.028Zm-582.336-15.786c-42.806-38.448-24.006-107.482 36.004-113.8 34.178-3.378 66.184 23.812 68.78 57.968 1.884 24.796-7.864 38.142-23.22 55.832 29.532 9.484 78.538 52.714 65.138 86.396-3.136 7.88-21.566 36.954-27.52 42.816-10.658 10.494-25.174 8.036-38.882 8.014l-32.618-.044-37.778.034c-41.703.02-38.319 4.128-62.208-31.394-9.006-13.392-18.43-24.3-12.687-41.75 9.808-29.802 38.187-50.57 64.99-64.072Zm33.886-89.738c-22.052 3.706-36.954 24.546-33.334 46.612 3.62 22.064 24.4 37.048 46.48 33.516 22.202-3.554 37.288-24.476 33.648-46.664-3.64-22.188-24.62-37.192-46.794-33.464Zm8.748 105.524c-26.482.622-47.992 10.18-66.317 29.51-25.709 27.118-21.224 27.9-4.888 52.908 12.874 19.71 8.802 15.438 32.447 15.378l38.758-.05 40.86.04c6.15.02 12.822.82 18.884-.04 5.184-6.704 24.246-34.414 23.572-41.096-1.132-11.222-20.14-31.008-29.002-37.856-15.884-12.274-34.296-18.736-54.314-18.794Z"/></svg><svg viewBox="0 0 1024 1024" id="course-icon-5" xmlns="http://www.w3.org/2000/svg"><path d="M687.988 384.46c-17.838-21.224-18.12-39.432-18.106-65.394l-.04-74.94c-.176-43.512 10.97-76.207 59.56-82.681l1.298-.022c23.472-.336 46.992.028 70.47.008l27.478-.016c8.856-.002 17.858-.445 26.55 1.556 63.08 14.525 50.288 86.101 50.342 135.111.036 31.542 5.06 63.236-19.198 87.64-20.922 21.05-43.582 18.374-70.74 18.31L782.5 438.088c-6.916 7.076-20.08 26.648-31.154 15.482-5.772-5.818-6.19-40.37-6.106-49.538-10.524.694-20.534.588-30.54-3.114-10.534 4.464-26.152 10.41-34.13 18.498 30.264 59.138 35.38 108.976 12.338 172.854 14.13 3.664 28.166 7.168 41.644 12.844 12.994-20.344 53.058-20.3 72.654-10.194 49.452 25.502 44.532 101.164-8.452 117.72 11.464 17.916 29.32 21.784 30.084 47.686.372 12.652-4.788 23.018-13.236 32.07-10.224 8.03-17.046 18.786-30.21 22.5-27.112 7.65-41.898-12.266-58.576-29.268l-43.536-44.856c-6.818-7.1-31.342-28.82-33.386-37.122-1.598-6.498 2.876-14.75 9.748-15.894 11.072-1.844 24.942 18.576 33.266 24.884 10.11-7.928 19.772-20.086 32.15-24.13-12.854-18.584-14.818-40.808-6.606-61.99-11.914-5.214-25.282-7.78-37.882-10.93l-.316.596c-9.886 18.37-45.022 56.656-64.238 62.544-4.884-1.09-9.312-2.98-11.764-7.708-7.158-13.802 14.594-23.81 22.706-30.834 53.816-46.588 68.114-126.75 39.472-190.926-4.65-10.42-10.666-19.786-16.148-29.75-10.408-18.918 22.986-27.63 37.706-35.052m43.87-197.433c-33.146 4.486-36.466 28.565-36.47 54.975l-.004 76.012c-.024 18.904-2.026 39.464 15.08 52.332 19.964 15.018 46.472 4.374 55.554 11.836 5.842 4.8 4.328 23.304 5.246 30.222 9.878-10.382 25.772-32.812 40.232-33.23l.724-.018 19.414.048c51.752.024 48.906-31.864 48.888-72.866l-.002-54.704c-.028-48.204-4.928-64.643-56.282-64.633l-71.51-.015c-6.93-.024-13.954-.509-20.87.041m40.344 426.507c-21.168 2.892-35.972 22.412-33.05 43.576 2.92 21.164 22.46 35.942 43.62 32.992 21.118-2.946 35.862-22.44 32.946-43.562-2.916-21.124-22.39-35.894-43.516-33.006m-37.65 99.106c-5.578.394-19.628 15.136-23.606 19.774 12.696 11.888 24.826 24.62 36.808 37.23 8.192 8.62 17.074 25.18 30.916 20.258 8.636-4.82 29.828-22.372 23.336-34.36-3.58-6.612-33.946-36.092-41.23-42.902zM463.008 327.724c-14.658-14.642-26.156-29.402-29.504-50.47-7.44-46.832 25.41-85.72 70.95-92.742 76.672-8.887 121.226 94.182 55.812 143.212 14.532 3.61 80.572 28.432 79.346 47.71-.542 8.536-8.628 14.278-16.872 11.418-7.408-2.566-13.572-9.756-20.21-13.938-25.538-16.09-53.992-23.952-83.906-25.878-36.186-1.07-74.55 9.176-103.684 31.278-4.164 3.158-8.644 8.354-13.666 9.854-11.14 3.33-21.048-8.73-14.958-19.06 9.676-16.412 59.326-37.164 76.692-41.384m43.214-116.982c-29.578 3.428-50.766 30.206-47.3 59.78 3.466 29.576 30.268 50.73 59.84 47.228 29.52-3.496 50.628-30.242 47.168-59.766s-30.18-50.666-59.708-47.242"/><path d="M773.54 229.884c-.336-8.906.66-15.262 9.546-19.224 12.792-1.018 15.848 8.24 15.668 19.224 26.668-3.056 25.142 21.1 10.944 24.39-8.138 1.886-22.002-.096-31.028.358-21.212 21.478 18.614 16.724 26.772 20.8 30.422 15.202 25.192 54.998-6.688 65.284-1.752 8.824-5.54 13.144-14.734 14.792-8.392-1.456-12.182-6.322-12.756-14.792-12.172.65-33.068-3.684-21.68-19.952 8.958-12.798 56.986 4.592 50.054-16.666-2.83-8.678-15.17-5.73-22.1-6.376-36.968-3.444-40.726-57.5-3.998-67.838M231.532 419.416l-34.98.024c-37.545.034-75.603-5.214-78.933-53.986-1.183-17.334-1.65-71.244 1.558-85.082 6.046-26.09 28.385-43.534 54.98-45.19l2.825-.048 112.874.028c33.244-.008 62.002 6.478 71.19 45.102 3.082 12.95 1.634 27.868 1.61 41.194l.12 40.992c-.128 39.272-31.006 57.418-67.192 56.966-1.144 12.474 1.426 25.018 0 37.438-.792 11.112-12.658 17.464-21.788 9.562-8.112-7.02-37.82-39.876-42.264-47M176.515 260.69c-38.912 2.55-33.356 37.754-33.402 64.702-.092 52.894-3.86 68.042 51.636 68.068l27.345-.008c26.308-.182 29.934 8.506 47.038 30.792.234-10.08-3.084-22.77 6.668-29.326 17.804-5.738 56.306 6.502 60.53-27.814 1.198-9.732 1.394-74.708-1.034-82.858-9.218-30.948-51.278-23.572-75.94-23.576z"/><path d="m275.8 339.498-44.888.02c-8.212.002-23.43 2.502-30.488-2.776-10.459-7.82-4.475-22.172 7.332-23.53 11.594-.358 65.902-1.55 72.944 1.884 11.376 5.55 5.878 21.878-4.9 24.402m54.524 248.098c-15.228-53.364-19.63-95.628 4.7-149.21 4.96-10.924 10.022-26.232 22.17-30.798 29.906-2.016 9.214 26.66 4.422 35.886-35.222 67.79-15.486 155.346 42.728 203.828 8.174 6.806 22.28 14.596 14.836 27.49-3.85 6.668-13.478 7.844-19.014 13.706-12.104 12.814-24.596 25.116-36.93 37.69l-61.058 62.558c-20.45 20.9-39.25 36.486-70.646 17.92-24.892-16.008-33.333-53.494-12.726-76.41 4.554-5.064 9.79-9.434 13.878-14.91l.586-.796c-48.073-10.512-62.512-72.474-30.544-106.832 24.454-26.28 65.748-26.764 91.78-2.604zm11.702 24.384c-11.006 4.09-21.204 9.7-31.868 14.54 5.374 21.92 4.872 42.528-7.642 61.99 15.486 1.23 26.508 15.256 36.422 26.04l3.088-4.214c13.8-15.108 31.154-29.796 43.888-45.194-15.222-13.662-35.072-33.522-43.27-52.334-.294-.674-.102-.434-.618-.828m-95.56 1.88c-20.978 1.774-36.56 20.202-34.82 41.182 1.738 20.982 20.138 36.594 41.122 34.89 21.036-1.706 36.692-20.16 34.95-41.192-1.744-21.032-20.224-36.658-41.252-34.88m26.754 100.69c-8.97 7.204-31.802 28.934-37.304 37.956-9.19 15.066 14.632 49.66 37.304 28.076 15.356-16.382 31.02-32.724 47.314-48.168-6.046-5.724-12.806-11.384-18.018-17.864z"/><path d="m599.556 595.702-154.65.034c-42.422.048-52.726-8.294-52.654-52.372l-.054-56.472c-.148-26.196 5.232-45.29 34.33-49.984 13.014-.52 26.228-.026 39.264-.01l113.958-.02c15.532-.002 29.408-1.652 41.708 9.844 17.79 16.626 11.528 63.204 11.52 86.656-.01 25.48 4.47 61.248-33.422 62.324M426.528 462.48c-14.152 5.352-8.8 39.726-8.822 53.096-.02 11.894-5.042 49.128 7.06 53.94 5.51 2.192 62.28 1.008 73.4 1.01l101.39.006c13.754-4.85 8.398-32.034 8.418-44.966.026-16.464.802-33.356-.162-49.78-.526-8.942-3.332-13.072-12.246-13.356-19.758-.632-39.73.058-59.516.056z"/><path d="M472.124 506.962c-8.514.044-26.012 1.948-32.246-4.144-4.638-4.534-4.006-13.65.526-18.022 5.862-5.656 36.248-2.92 44.656-2.92l73.19.014c7.98.068 21.446-2.462 27.724 2.886 6.75 5.752 4.748 20.314-4.7 21.902-8.054 1.354-24.198.302-33.222.296zM516.7 551.21c-11.644.06-65.412 1.352-72.562-1.438-12.21-4.766-8.368-20.268 2.498-24.284 12.14-.938 67.04-1.176 73.262 2.008 10.784 5.522 7.614 20.702-3.198 23.714m-53.692 173.234c-29.376-40.112.278-92.584 49.174-97.924 52.508-2.318 82.846 51.794 57.76 97.924 31.914 13.692 44.336 37.226 45.022 71.932.192 9.636 1.25 40.272-.864 48.374-5.268 20.192-27.876 17.526-44.048 17.508l-51.428-.036-50.008.022c-17.528 0-46.07 4.702-52.212-17.276-2.398-8.586-1.602-56.77-.064-65.974 4.306-25.744 21.018-47.042 46.668-54.55m51.214-71.114c-20.83.96-36.89 18.704-35.776 39.526s18.974 36.752 39.788 35.486c20.598-1.254 36.328-18.89 35.226-39.498-1.102-20.606-18.624-36.464-39.238-35.514m-33.976 93.852c-35.48 3.302-38.748 32.764-38.738 62.29l.02 26.852h147.426l.042-28.606c.018-18.1.596-34.926-13.074-48.838-15.706-15.982-25.666-11.614-43.19-6.416-26.162 7.76-35.612-4.874-52.486-5.282"/></svg><svg viewBox="0 0 1024 1024" id="course-icon-6" xmlns="http://www.w3.org/2000/svg"><path d="M252.41 387.214c-22.36-3.822-40.482-9.69-58.938-23.596-88.288-66.52-51.609-204.426 62.674-219.126 71.642-2.27 117.724 41.22 129.19 108.978 29.244-11.796 43.964-20.974 78.13-26.84-.268-24.77 4.69-45.559 34.094-45.725h21.022c36.512.125 43.188 10.855 43.358 45.725 28.394 9.966 45.436 11.568 75.316 26.84 12.002-95.417 118.27-143.55 194.216-83.643 88.218 69.587 46.894 208.209-59.6 219.845 12.648 22.706 20.352 47.404 25.716 72.788 33.25-.578 45.814 11.746 45.866 44.926.054 36.534-4.576 56.136-45.866 54.646-5.958 32.838-14.86 48.162-25.716 76.966 47.624 1.522 92.782 47.038 103.704 91.712 14.68 60.044-20.63 122.63-79 142.05-8.1 2.696-16.432 4.118-24.704 6.136-39.056.506-73.056-6.008-101.694-35.588-16.568-17.11-33.326-45.188-32.922-69.804-23.572 8.786-50.108 19.948-75.316 22.124l.19 7.35c.564 31.724-20.198 40.974-48.95 41-34.768.032-52.832-12.104-52.67-48.35-26.154-8.776-46.432-13.22-73.688-24.154-14.64 143.996-222.672 139.49-240.638 4.728-9.142-68.576 37.72-128.43 106.226-137.204-11.116-23.892-21.39-50.652-25.16-76.966-41.273.12-46.457-16.684-46.35-53.826.101-34.984 11.369-45.954 46.35-45.746 7.292-29.262 11.854-47.478 25.16-75.246m8.898-216.517c-75.554 6.323-117.913 92.529-70.367 152.253 7.679-18.87 19.983-28.636 36.309-39.778-28.725-34.7-.738-85.779 42.566-83.869 42.79 3.533 59.332 49.625 35.028 83.869 17.164 10.47 26.496 19.762 36.362 37.314 31.244-43.318 20.468-102.61-22.936-133.408-14.282-10.133-39.176-20.39-56.962-16.38m489.354 0c-79.996 7.405-112.702 92.231-66.316 156.381 5.542-15.616 18.518-28.216 33.568-34.74-37.42-44.598-6.014-99.47 47.7-94.763 48.834 8.479 60.126 57.207 31.974 94.763 16.678 8.17 26.258 18.764 35.412 34.74 16.804-25.632 24.716-48.268 18.41-79.274-8.804-43.284-55.82-84.806-100.748-77.107m-253.05 36.285c-20.972 5.152 4.414 37.1-17.516 43.26-9.218 2.59-20.934 3.584-30.984 6.044-22.32 5.46-43.684 15.99-63.776 26.886l-.264.694c-12.572 33.678-9.554 34.208-34.536 66.306 2.53 10.426 10.736 39.258 10.392 48.51-.35 9.458-11.37 14.308-19.614 11.7-21.488-6.794-37.132-27.716-59.284-23.168-17.152 28.174-28.894 68.538-31.802 101.296-8.616-.038-34.96-3.238-41.212 3.172-3.208 3.288-5.154 36.284.622 41.114 5.55 4.64 32.542 2.744 40.59 2.708.942 28.416 15.954 79.708 31.802 103.494 31.634 6.054 51.044 13.654 74.438 36.494 8.504-4.17 28.138-12.59 37.106-9.494 11.464 3.956 21.534 19.628 16.682 31.628-4.256 10.528-24.656 32.922-24.412 42.766 10.578 14.516 78.134 27.534 101.778 33.112l-.034 21.266c-.184 26.464 6.786 22.86 32.388 22.654 32.538-.192 2.538-37.774 25.674-45.252 8.656-2.796 18.712-2.65 27.652-4.776 21.46-5.104 41.332-13.002 61.566-21.648a59 59 0 0 1 2.388-11.668c-10.082-10.414-20.472-33.176-20.216-46.846.198-10.474 12.11-22.828 22.952-21.954 8.662.7 21.114 7.352 29.82 10.212 17.722-19.27 45.89-36.888 73.152-36.494 1.452-6.944 5.204-12.702 8.392-18.962 13.458-26.418 19.41-55.438 23.922-84.532 12.22-.044 39.436 5.018 41.268-8.244.714-5.16 2.076-32.986-2.188-36.998-3.53-3.322-32.946-1.772-39.08-1.752-3.088-26.896-14.882-76.55-32.314-98.838-12.518-4.146-13.95-2.804-25.674 2.996-25.332 12.532-62.788 38.072-49.98-12.53 2.258-8.926 4.628-17.822 6.49-26.842-27.074-30.796-24.72-36.73-36.544-70.124-21.13-13.356-46.158-22.524-70.35-28.55-9.586-2.388-23.242-1.552-29.862-9.968-2.248-9.52-1.396-22.702-1.094-32.61-6.982-9.134-28.082-5.114-38.338-5.062m258.208 16.216c-16.44.918-29.01 15.006-28.058 31.444.952 16.436 15.064 28.98 31.5 27.996 16.388-.982 28.89-15.046 27.94-31.438-.948-16.392-14.99-28.92-31.382-28.002m-494.58 3.564c-13.092 2.664-21.5 15.494-18.716 28.56 2.782 13.068 15.69 21.358 28.73 18.454 12.874-2.866 21.032-15.57 18.284-28.468-2.746-12.898-15.374-21.174-28.298-18.546m.068 73.926c-24.824 2.946-41.816 19.046-50.554 41.534 23.242 19.298 52.746 22.836 81.358 16.718 13.516-1.788 25.226 10.61 37.008 15.77-8.496-36.596-18.346-80.08-67.812-74.022m489.354 9.498c-40.108 4.722-47.898 29.346-54.474 64.524 8.458-4.448 20.67-12.922 28.954-15.77 7.56 1.494 15.068 3.602 22.69 4.684 22.856 2.226 45.642-2.452 64.31-16.338-8.014-28.288-33.578-39.984-61.48-37.1m-2.83 353.35c-20.612 2.738-38.75 10.344-54.304 24.05-4.574 4.03-13.628 16.094-19.436 16.454-9.914.616-20.844-7.724-30.572-10.374 4.496 11.94 19.564 31.054 20.66 36.356 1.094 5.286-2.038 12.616-2.698 18.06-3.684 30.45 5.192 49.464 22.864 72.29 7.602-18.542 18.624-34.914 37.282-43.77-19.032-27.902-19.976-61.536 13.57-78.086 52.54-22.362 94.934 36.172 62.39 80.056 18.116 12.146 25.282 20.846 35.412 39.946 3.834-6.558 8.174-12.896 11.418-19.77 31.522-66.798-26.778-144.266-96.586-135.212m-486.524 0c-31.056 6.724-55.75 14.67-74.426 43.572-22.838 35.344-20.737 79.566 6.767 111.41 10.495-20.202 17.339-30.102 37.075-41.916-41.777-44.778 17.15-109.772 65.964-73.11 24.47 20.936 25.746 49.024 5.12 73.11 25.402 15.218 23.758 24.728 39.398 41.916 15.008-22.894 22.338-40.852 19.926-68.714-2.812-32.516 2.36-26.546 20.218-56.138-33.956 12.93-24.322 16.022-49.514-5.576-15.476-13.266-35.694-22.078-56.068-23.498-4.568-.318-10.096.418-14.46-1.056m2.94 55.758a23.768 23.768 0 1 0 5.008 47.268c12.924-1.53 22.214-13.166 20.844-26.108-1.372-12.94-12.894-22.372-25.852-21.16m488.764.46c-13.078 2.834-21.448 15.654-18.78 28.766s15.38 21.644 28.526 19.144a24.45 24.45 0 0 0 13.674-40.294 24.45 24.45 0 0 0-23.42-7.616m5.032 74.466c-28.974-.316-45.786 18.134-52.394 44.71 16.734 9.21 34.848 14.37 54.012 13.932 20.186-1.174 34.982-6.136 52.48-16.06-11.494-22.582-23.082-44.324-54.098-42.582m-492.794 0c-26.908 1.414-42.27 18.818-51.292 42.582 16.23 10.256 34.394 16.572 53.774 16.06 18.348.276 35.942-5.862 51.112-16.06-11.532-23.756-25.454-42.618-53.594-42.582"/><path d="M523.756 687.578c-96.568 6.448-180.054-66.662-186.404-163.236s66.844-179.988 163.426-186.238c96.442-6.244 179.708 66.824 186.05 163.258 6.34 96.436-66.642 179.778-163.072 186.216M504.21 363.916c-82.44 4.338-145.684 74.808-141.108 157.238 4.578 82.428 75.232 145.466 157.646 140.65 82.078-4.794 144.802-75.098 140.244-157.188-4.556-82.092-74.678-145.02-156.782-140.7"/><path d="M480.458 417.986c.318-8.57-.388-16.138 8.956-19.622 8.992-.222 36.204-1.02 43.534.508 10.346 2.156 9.708 10.258 9.56 19.114 19.712 8.796 36.504 28.272 39.294 49.948 1.968 15.272-12.972 21.346-23.402 11.69-6.68-15.57-2.464-26.726-24.21-37.286-9.946-4.828-15.384-6.306-14.214-18.668-4.704-.136-9.434-.02-14.142 0-2.44 15.02-4.316 12.14-16.322 17.85-20.256 9.636-26.764 32.416-21.2 52.932 14.042 35.188 53.95 20.494 60.346 42.478 6.628 22.778-26.33 34.66-31.046 9.158-24.13-5.246-45.85-18.882-54.072-43.564-10.624-31.902 3.764-73.832 36.918-84.538"/><path d="M519.976 599.254c-.18-18.404 6.708-14.234 20.096-22.262 30.458-18.26 21.622-66.356-15.702-75.982-7.252-1.868-16.06-2.43-22.254-6.93-12.432-9.03-9.012-28.932 6.274-31.62 9.002-2.214 16.718 3.178 16.718 12.56 3.148.8 6.298 1.658 9.398 2.628 61.332 19.168 67.7 97.452 10.038 126.236-1.086 12.492-1.85 19.738-15.964 20.594-7.626.464-29.944.896-36.888-.222-11.298-1.818-11.288-10.576-11.234-20.372-14.352-5.764-25.808-17.358-32.318-31.248-4.686-10.496-10.314-27.918 5.59-31.202 16.016-3.308 14.244 19.21 24.152 29.954 12.368 13.412 23.784 4.964 27.952 27.866z"/></svg><svg viewBox="0 0 1024 1024" id="course-icon-7" xmlns="http://www.w3.org/2000/svg"><path d="M675.494 357.91c-66.768-78.146-4.714-205.671 102.412-204.879 25.448-1.759 55.848 9.672 75.836 24.992 56.252 43.117 70.708 123.305 26.406 180.465-48.852 63.032-126.872 67.018-187.38 19.53-12.65 10.664-25.396 24.634-37.626 36.116 3.012 6.046 6.842 11.704 10.044 17.662 30.522 56.808 25.316 123.564-10.044 176.442 8.552 10.306 27.31 28.388 37.626 37.898 10.95-14.874 36.17-25.12 53.746-29.608 68.702-17.538 138.494 27.288 155.254 95.258 16.494 66.9-26.996 137.772-93.89 153.728C703.768 890.35 616.39 785.582 660.3 688.816c3.876-8.54 8.884-16.438 13.844-24.372-6.99-8.606-26.618-28.896-35.562-34.998-4.198 2.958-7.722 6.942-11.452 10.468-70.418 66.592-174.872 54.992-242.428-10.468-11.534 11.844-23.088 24.336-35.714 34.998 44.962 51.018 29.882 135.866-21.222 177.858-19.432 15.968-50.996 29.668-76.516 27.224-30.454 8.364-77.736-18.018-98.232-39.288-79.354-82.346-14.763-220.08 99.982-216.902 25.978.72 61.586 13.738 79.586 32.8 9.22-13.722 24.904-25.042 35.68-37.898-33.514-53.204-38.37-116.808-10.378-173.702 3.51-7.136 7.268-14.248 12.342-20.402-10.508-13.56-27.562-23.546-37.644-36.116-19.756 14.944-35.014 24.076-59.724 28.912-113.84 22.286-195.253-105.096-132.573-197.726 38.883-57.462 118.303-74.529 176.137-34.798 62.514 42.946 75.466 123.304 32.562 185.088 11.78 8.096 27.456 22.68 37.832 32.57l1.906-1.95c70.762-71.068 179.76-66.238 249.856 3.672 13.088-11.182 23.954-24.704 36.912-35.876M239.11 179.249c-56.285 4.131-98.548 53.135-94.364 109.417 4.183 56.28 53.225 98.498 109.502 94.262 56.204-4.228 98.356-53.194 94.178-109.402s-53.104-98.403-109.316-94.277m530.244-.202c-56.502 4.47-98.694 53.879-94.258 110.383s53.82 98.726 110.328 94.322c56.554-4.406 98.816-53.84 94.378-110.392-4.44-56.552-53.9-98.786-110.448-94.313M503.752 365.072c-81.006 4.676-142.88 74.146-138.184 155.154 4.696 81.006 74.182 142.862 155.188 138.146 80.976-4.714 142.806-74.17 138.112-155.15-4.694-80.978-74.136-142.824-155.116-138.15m267.82 273.964c-56.44 3.15-99.616 51.496-96.39 107.932 3.228 56.434 51.632 99.546 108.062 96.242 56.324-3.296 99.334-51.588 96.114-107.916s-51.454-99.404-107.786-96.258m-532.826 1.066c-56.254 4.562-98.209 53.784-93.802 110.048 4.407 56.266 53.514 98.356 109.792 94.102 56.496-4.27 98.782-53.608 94.358-110.092-4.424-56.482-53.878-98.636-110.348-94.058"/><path d="M213.914 276.944c-24.367-32.064-10.9-73.002 30.18-77.259 36.672-5.072 65.41 44.213 34.718 77.259 20.914 13.014 33.452 36.054 34.154 60.648.646 22.54-16.09 22.016-32.82 21.96l-28.896-.058-35.638.048c-34.398.026-45.167-6.394-31.611-44.316 6.36-17.792 15.419-26.894 29.913-38.282m30.596-51.002c-10.636 1.242-18.228 10.902-16.92 21.53s11.016 18.16 21.634 16.786c10.528-1.362 17.98-10.966 16.684-21.502-1.296-10.534-10.856-18.046-21.398-16.814m-.416 67.702c-20.148 3.464-36.59 19.288-36.826 40.354h80.338c-6.306-19.382-19.312-43.352-43.512-40.354m474.354 58.012c.408-12.922-1.062-112.056.556-114.854l1.724-.222h122.754v77.372h-83.086c-14.606 11.736-27.622 25.578-41.948 37.704m55.374-89.876h-29.724v35.102c3.258-2.728 6.476-5.716 10.044-8.028h63.408V261.78zM472.726 608.238c-17.362 2.738-16.268-14.88-18.018-26.59-2.416-16.176-9.6-33.512-19.512-46.546-13.586-17.864-26.522-33.486-13.03-57.646 15.032-26.916 40.66-23.108 67.144-22.966 34.77.19 56.268-31.716 87.576-40.356 32.786-4.092 30.716 23.608 30.7 44.602l-.002 75.896c.006 20.13-1.882 50.772-32.734 43.584-6.476-1.508-12.44-5.402-18.292-8.452l-27.654-14.736c-8.644 10.298-47.824 49.364-56.178 53.21m109.296-167.25c-7.91 3.428-15.312 8.128-22.764 12.446l-36.186 21.178c-.02 15.602-.19 31.222 0 46.82 6.986 3.306 13.656 7.118 20.324 11.022 12.52 7.132 25.35 14.974 38.626 20.57-.352-9.58-.008-19.18.002-28.766l-.088-75.684c-.008-2.398.364-5.24.086-7.586m-120.084 39.018c-17.438 1.892-26.216 21.67-11.926 31.846 7.666 5.458 20.736 3.676 29.64 3.602h17.526v-35.448c-11.702.008-23.558-.428-35.24 0m7.002 60.63c3.8 9.154 6.632 18.92 10.712 27.89 3.906-4.792 8.128-9.184 12.552-13.498 4.686-4.702 9.624-9.33 13.916-14.392zm-251.578 193.15c-27.47-28.5-14.016-70.704 24.44-78.176 43.984-4.66 65.876 42.08 37.01 78.176 22.356 10.048 33.872 34.636 35.012 58.164 1.268 26.154-9.428 26.012-31.916 25.962l-29.096-.056-34.994.05c-31.83.14-44.592.376-34.17-40.486 5.03-19.726 16.434-33.298 33.714-43.634m28.254-52.322c-10.474 1.194-17.968 10.696-16.688 21.162 1.28 10.464 10.844 17.88 21.296 16.514 10.334-1.35 17.648-10.78 16.382-21.124s-10.636-17.734-20.99-16.552m-1.522 69.69c-20.678 3.104-34.616 20.658-36.826 40.804h80.338c-.958-22.662-19.444-43.886-43.512-40.804M824.968 803.6l-61.498.016c-25.866.014-62.632 3.956-64.926-33.838-.8-13.156-1.338-62.192.894-71.528 3.502-14.658 16.378-23.76 31.08-24.438 16.108-.76 86.564-2.47 101.296.572 30.714 6.338 23.748 46.072 23.83 69.04.09 24.65 5.058 59.604-30.676 60.176m-94.45-104.208c-10.856 6.392-6.052 29.67-6.032 41.59.064 39.176-5.392 37.024 32.548 37.068l43.29-.026c8.004-.032 16.728.904 24.644-.01 10.692-4.868 4.486-73.642 3.894-74.78-3.736-7.18-33.166-3.87-40.724-3.87-19.138-.004-38.508-.616-57.62.028"/><path d="M777.906 758.794c-22.078-.394-22.768-38.86-4.084-45.24 22.072-1.812 23.53 40.222 4.084 45.24"/></svg><svg viewBox="0 0 1024 1024" id="course-icon-8" xmlns="http://www.w3.org/2000/svg"><path d="M611.046 240.504c2.342-6.828 3.618-13.99 5.882-20.856 18.212-55.229 70.538-94.54 128.734-96.823 67.69-4.829 130.622 48.576 143.66 113.801 15.114 75.606-37.876 149.38-112.692 163.594-41.634 7.912-78.39-2.738-112.734-26.24-11.502 8.446-29.492 27.486-39.048 38.172 55.634 60.92 59.932 138.414 11.29 205.65 6.192 7.208 13.13 13.818 19.708 20.682l30.968 32.888c5.114 5.462 11.462 10.798 15.756 16.89 5.384 7.634-.854 18.91-10.082 19.216-11.56.386-62.288-60.47-73.87-71.168-5.162 3.654-10.008 7.76-15.188 11.4-42.33 29.742-100.336 37.946-149.288 21.7-10.842 9.442-21.77 20.408-31.442 31.02-.392 6.238-.04 12.676-.032 18.938l.032 38.196 261.942.022c10.974.002 22.984.934 33.8-.974 35.7-6.3 41.098-36.292 41.078-65.446l-.03-180.236c-6.096 6.06-25.778 28.604-32.034 30.898-9.504 3.484-19.814-8.676-14.824-17.536 3.132-5.558 45.264-48.056 51.256-52.856 14.42-11.55 27.548 9.066 36.668 18.14 6.72 6.686 34.112 30.264 35.25 38.608 1.338 9.788-9.666 18.054-18.472 12.552-9.69-6.054-22.97-22.926-32.436-31.326-.434 16.362-.008 32.864-.004 49.24l.014 130.04c-.01 35.464-2.782 60.132-35.368 82.154l.182 12.45c.186 22.358-6.952 41.034-22.79 56.968-23.126 23.272-44.218 22.802-74.71 22.806l-43.372-.02c-.91 19.338-5.546 40.566-32.102 37.422-9.128-1.082-16.574-7.518-24.108-12.21-16.964-10.568-38.52-18.812-35.49-42.818 2.456-19.458 42.814-42.216 57.584-46.448 24.142-6.916 36.55 17.082 32.412 39.194l38.74.036c42.534.01 77.574-5.022 78.878-56.722-11.322 2.146-23.618 1.196-35.13 1.182L422.7 782.65c-1.556 30.614 11.16 82.57-30.136 92.54-12.016 2.9-29.826 1.496-42.48 1.498l-68.328-.016-74.086-.006c-39.046.03-73.592 1.128-73.99-49.546l-.011-162.72c.021-27.09 1.328-54.92 35.275-62.198 11.135-2.388 30.242-1.006 42.258-1.004l81.492-.026c19.43-21.284 41.354-40.25 61.186-61.154 1.836-48.934 1.814-83.428 38.54-123.836-15.368-19.102-40.246-41.072-57.788-58.926-7.4-7.532-27.5-22.14-14.97-33.97 9.654-9.116 18.764 1.928 25.244 8.356l20.63 20.864c15.174 15.456 30.882 30.304 45.654 46.172 57.958-50.548 134.01-45.046 194.18-3.404 12.8-13.646 26.552-26.52 39.898-39.64-21.638-26.586-35.86-55.408-34.222-90.612l-269.04-.018c-12.256 0-25.442-.948-37.526 1.182-36.858 6.498-39.844 39.13-39.846 68.342l.02 169.178c7.828-8.234 23.734-24.974 32.474-31.948 10.728-8.56 25.23 6.328 17.338 17.288-6.258 8.692-45.022 47.198-54.648 54.608-10.416 8.018-18.68-3.926-25.622-10.664-10.926-10.606-34.52-32.22-43.19-43.724-5.663-7.514-.302-19.866 9.354-20.238 8.176-.314 32.852 27.99 39.794 34.678l-.018-170.772c-.03-27.98 4.798-70.642 36.948-81.244-3.082-25.562.4-47.256 19.704-66.548 21.944-21.927 46.476-20.498 74.998-20.483l43.8.038c-1.6-20.477 9.92-39.603 33.39-35.659 7.96 1.338 40.044 21.955 47.14 27.559 8.402 6.633 12.406 15.13 10.408 26.048-3.134 17.135-21.48 24.137-34.846 31.983-6.85 4.022-13.9 9.77-21.51 12.098-23.336 7.138-37.698-14.572-32.764-37.172l-45.708-.032c-10.744-.003-22.256-.785-32.836 1.241-24.64 4.718-41.94 26.397-36.97 51.539 13.982-2.838 29.002-1.816 43.224-1.812zm141.196-92.606c-63.652-.914-115.932 50.064-116.624 113.72-.69 63.654 50.472 115.756 114.13 116.224 63.34.464 115.128-50.388 115.816-113.728.686-63.34-49.984-115.306-113.322-116.216m-310.456 5.283c-3.042 9.055 5.52 16.412 5.314 25.365-.166 7.18-6.79 16.897-5.256 23.702l.74.486c5.702-1.414 15.934-9.092 20.276-13.18 7.102-2.79 13.758-6.643 19.248-11.991-7.872-5.234-33.16-22.478-40.322-24.382m61.784 234.827c-79.536 2.542-125.72 69.61-124.88 145.244 33.07-8.378 30.104 8.648 29.984 34.614-.036 7.99.188 16.012-.004 23.996 13.872-25.574 30.232-42.456 57.074-54.234-55.31-52.024-7.342-137.1 62.034-118.32 36.746 11.684 57.246 49.892 45.35 86.92-4.05 12.606-11.756 21.912-20.686 31.4 30.852 9.978 50.884 37.15 63.306 65.724 45.42-61.15 35.212-143.354-26.634-189.198-21.9-16.232-57.858-30.878-85.544-26.146m3.492 54.416c-23.536.966-41.816 20.856-40.796 44.39 1.02 23.532 20.952 41.766 44.484 40.692 23.452-1.072 41.612-20.926 40.596-44.38-1.016-23.456-20.826-41.662-44.284-40.702m-5.466 111.568c-35.022 3.584-63.966 26.398-75.148 59.588 17.888-.074 49.346-7.006 49.528 19.718.04 5.984-2.296 9.97-5.892 14.47 15.228 3.344 30.694 5.198 46.308 4.154 27.852-3.08 58.526-11.086 79.604-30.698-10.956-45.266-49.792-68.454-94.4-67.232m-124.638 4.694c-9.45.636-14.754 8.826-21.052 15.078l-33.124 32.73c-5.872 5.82-13.992 15.53-20.892 19.538-29.4.308-58.834.016-88.238.022-16.094.004-51.235-6.618-54.466 16.982-.986 7.202-.454 15.092-.46 22.368l-.01 40.16c-.007 41.804-.571 83.69.013 125.486.206 14.768 8.681 20.34 22.855 20.746-.691-40.518 22.188-70.21 56.214-88.756-25.036-26.468-25.12-67.244 5.954-89.396 57.8-38.658 126.994 37.336 72.382 91.094 34.394 14.96 57.17 49.708 57.464 87.058 31.05-.542 23.716-19.55 23.654-43.098l-.012-74.806c0-9.164-2.242-35.816 1.296-43.27 2.526-5.322 42.88-44.71 50.444-52.03-11.074.03-22.34.508-33.394 0-7.798-3.958-28.6-24.518-30.604-30.398-2.028-5.948-.892-41.404-.884-49.508zM272.984 688.87c-17.92 2.602-30.352 19.22-27.792 37.146s19.148 30.398 37.082 27.88c17.992-2.528 30.514-19.182 27.944-37.168s-19.254-30.47-37.234-27.858m1.752 92.632c-39.532-.008-66.578 32.308-67.524 70.294h140.324c-.218-39.69-32.208-72.798-72.8-70.294m305.83 41.852c-11.308 5.73-33.696 17.278-40.246 28.442 7.454 3.444 14.42 7.918 21.398 12.226 38.194 24.178 15.704 2.772 15.716-14.244.004-5.034 10.24-25.066 3.132-26.424"/><path d="M738.576 237.05c.104-26.918 5.784-53.01 38.736-54.516 35.258-6.348 57.986 33.604 39.088 66.538 14.716 18.508 14.378 44.354-5.3 59.91-9.256 7.318-65.532 31.24-77.974 36.702-13.514 4.122-24.188-1.87-30.928-13.812-5.386-9.546-19.854-35.544-21.502-45.38-3.632-21.672 17.632-27.014 32.56-34.802 4.968-11.944 13.024-13.482 23.928-7.844.876-2.01.832-4.616 1.392-6.796m40.632-30.262c-9.71.916-16.864 9.488-16.028 19.202.836 9.716 9.35 16.94 19.072 16.182 9.834-.766 17.158-9.398 16.312-19.226-.844-9.826-9.536-17.082-19.356-16.158m-19.718 54.018c-11.244 10.63-15.158 29.726-32.28 11.358-7.286 3.714-14.544 7.926-22.18 10.858 7.51 12.094 14.288 25.394 19.734 38.54 4.24-1.628 8.316-3.494 12.42-5.428l36.056-16.922c11.032-5.156 43.944-17.99 22.438-34.19-12.948 1.88-24.51 2.85-36.188-4.216"/></svg><svg viewBox="0 0 1024 1024" id="course-icon-9" xmlns="http://www.w3.org/2000/svg"><path d="M244.36 414.914c-162-60.548-112.577-270.877 29.374-274.528 73.006-4.972 123.01 41.445 144.048 106.826h188.986c22.178-89.453 118.872-133.764 202.042-90.045 108.704 57.141 91.524 221.487-29.122 257.747v194.22c52.926 7.528 97.408 70.418 101.474 121.15 6.442 80.356-50.58 147.682-130.704 153.714-68.74 2.326-127.832-38.702-143.69-107.228H417.782C400.96 863.656 297.2 909.452 217.48 868.46c-112.085-57.632-95.668-222.394 26.88-259.326zm36.08-246.443c-100.016-.088-147.353 126.287-69.538 195.787-.298-40.04 2.992-71.144 48.84-78.564-56.982-32.164-7.342-116.32 48.412-82.688l.752.462c29.92 20.744 29.324 65.58-4.91 82.226 51.376 7.962 53.632 40.068 53.498 83.878 5.69 2.152 17.388 11.956 22.378 11.738 1.912-8.522-17.304-18.896-14.452-31.256 1.76-7.628 10.916-15.316 14.84-22.512 38.002-69.668-20.08-163.52-99.82-159.071m456.27 0c-81.484 1.411-129.87 91.873-91.642 163.333 2.626 4.908 14.554 20.824 13.624 25.702-1.664 8.732-10.202 15.32-13.86 23.544 30.284-22.566 26.396-11.27 52.808.722 8.71 3.954 18.088 6.376 27.33 8.73 7.456.152 14.994.69 22.44.256 57.344-3.348 104.344-50.072 105.444-108.168 1.158-61.094-52.998-120.075-116.144-114.119m-455.062 55.717a19.516 19.516 0 0 0-15.474 30.208 19.52 19.52 0 0 0 17.576 8.76c10.67-.694 18.794-9.846 18.218-20.522-.574-10.678-9.636-18.904-20.32-18.446M421.88 275.7c-3.004 2.116-1.992 17.596-2.504 21.718-2.566 20.62-10.852 39.396-22.032 56.692 6.43 10.52 13.928 19.82 10.772 32.914-6.506 26.988-34.646 28.5-53.624 12.912-32.274 13.902-44.062 19.568-82.146 19.414l-.034 164.732c-.02 6.736-.5 13.784.034 20.482 32.024-.114 51.552 4.754 79.09 20.112 10.976-4.666 24.284-15.884 36.678-11.166 7.37 2.806 17.932 13.14 20.996 20.436 5.216 12.414-7.862 22.604-11.766 33.386.174 5.042 11 21.81 13.856 28.646 6.858 16.41 9.64 34.85 9.428 52.532h180.496l1.44-.238c1.744-3.5 1.378-12.156 1.768-16.528 2.032-22.776 9.498-46.352 23.818-64.412-4.468-6.766-16.77-22.364-15.022-30.534 2.06-9.618 18.754-26.502 30.174-23.69 8.932 2.198 18.69 7.162 26.754 11.568 23.534-18.132 51.836-21.774 80.402-21.718V419.35c-21.626 1.158-42.636-2.204-62.574-10.824-6.036-2.608-11.602-6.484-17.828-8.59-15.668 3.386-24.698 16.21-42.18 4.882-20.404-13.222-13.242-32.048-1.246-48.242-14.858-24.692-25.498-51.496-23.612-80.876-60.342-.716-120.786.004-181.138 0m-160.74 38.732c-31.296 5.606-20.558 45.458-22.078 67.996 23.238 7.804 42.134 10.69 66.47 5.908 8.056-1.616 15.528-4.456 23.214-7.286l-.004-23.124c.032-53.83-24.268-43.566-67.602-43.494m479.058 317.586c-15.382.262-30.186 3.596-44.014 10.464-22.454 11.148-24.076 18.276-51.352.244 21.896 29.008 10.84 28.054-1.172 53.522-27.594 58.5-.52 131.16 60.998 152.876 6.678 2.358 13.756 3.696 20.312 6.344 9.314.036 18.76.578 28.046-.204 93.298-7.854 132.742-125.786 67.13-191.416-20.126-20.132-51.168-33.858-79.948-31.83m-469.848 1.498c-87.03 11.896-131.012 113.32-74.596 180.306 4.173 4.956 8.93 9.376 13.35 14.102-.108-43.976 1.846-70.164 50.638-79.414-24.092-9.872-32.052-40.316-22.33-63.014 12.54-29.276 47.922-36.712 73.118-19.732 28.4 21.532 27.406 65.044-4.998 82.746 20.38 7.368 32.976 8.86 43.794 32.116 6.77 14.55 5.202 31.636 5.166 47.298 39.224-32.98 49.478-93.764 21.666-137.16-19.324-30.154-14.56-21.56 2.392-48.038-29.576 15.44-23.848 14.506-51.586 1.212-17-8.148-37.76-12.324-56.614-10.422m10.846 51.814a20.445 20.445 0 1 0 2.034 40.838c11.19-.672 19.752-10.228 19.194-21.424s-10.026-19.856-21.228-19.414m-21.454 91.44c-23.564 6.27-22.732 24.258-22.75 44.826-.01 8.958-.222 17.982.034 26.936h66.97c4.76-.002 16.26 1.25 19.802-2.196 1.85-5.984 1.356-41.582.218-48.108-5.38-30.856-45.212-18.338-64.274-21.458"/><path d="M746.266 284.884c-23.034 2.96-44.084-13.372-46.936-36.42-2.854-23.046 13.576-44.02 36.636-46.766 22.91-2.728 43.716 13.572 46.55 36.468s-13.368 43.778-36.25 46.718m-8.24-54.958c-7.13 1.564-11.702 8.538-10.292 15.7 1.408 7.162 8.284 11.884 15.474 10.628a13.42 13.42 0 1 0-5.182-26.328"/><path d="M703.042 312.658c-5.502 6.356-16.118 18.428-22.958 22.624-11.034 6.768-22.676-5.022-19-16.682 1.914-6.072 30.73-35.82 39.006-40.008 15.008-1.266 30.142 24.13 43.458 34.066 4.66-5.364 9.956-10.256 14.91-15.356 8.182-8.422 19.784-26.242 32.594-14.96 7.494 6.598 30.842 28.988 36.016 36.606 5.786 8.526-3.72 20.428-13.09 20.206-8.952-.214-21.204-15.908-27.204-22.23l-4.174-4.266c-6.82 7.21-30.74 35.884-41.264 34.888-6.798-.644-33.028-28.674-38.294-34.888M521.72 644.456c-74.022 4.99-138.048-51.032-142.93-125.06-4.882-74.03 51.232-137.974 125.27-142.746 73.882-4.764 137.664 51.21 142.536 125.086s-51.008 137.74-124.876 142.72m-15.232-238.924c-57.974 3.46-102.19 53.22-98.81 111.198s53.08 102.264 111.062 98.962c58.096-3.306 102.486-53.124 99.098-111.214-3.386-58.092-53.264-102.412-111.35-98.946"/><path d="M494.852 474.526c9.022-7.594 22.322-11.91 27.854-22.892 6.118-12.146 2.84-20.77 19.262-24.542 25.132-2.258 25.606 30.726 24.37 47.434 16.022 4.722 45.046 9.558 26.474 34.48 5.256 9.386 3.148 16.338-4.404 23.748 3.57 8.228-.494 15.29-5.8 21.604-3.674 25.498-14.008 21.99-35.358 21.126-22.766-.924-29.256.648-50.11-9.746l-.848-.164c-12.712 8.482-39.342 9.742-49.992.946-12.65-10.448-9.772-27.22-9.8-41.726-.04-20.528-5.192-52.512 23.894-55.428 11.756-1.178 24.888-2.636 34.458 5.16m45.378-2.662c-9.748 12.62-24.848 22.9-39.504 28.974v35.18c11.38 5.876 19.8 13.108 33.024 13.068 8.334.022 16.754.302 25.076 0-2.338-10.548-.77-16.908 7.512-23.566-5.3-8.54-3.478-15.12 2.998-22.17-9.618-2.154-20.978-4.3-26.614-13.366-5.274-8.486-.844-12.438-2.492-18.12m-75.182 26.466c-.036 14.556-.878 29.644.258 44.12 1.588 1.08 4.216.66 6.088.56v-44.68zm292.876 234.16c-10.276-9.44-50.792-40.162-21.214-51.91 15.59-1.036 29.05 20.076 39.58 30.792 10.084 10.26 39.256 30.328 26.736 45.546-9.308 11.312-43.466 46.684-55.584 55.766-10.536 7.898-35.62-3.178-10.732-29.182l21.214-21.888c-16.196-.39-32.482 0-48.686.026-12.22.018-35.218 3.844-35.412-14.76-.194-18.544 24.35-14.426 36.352-14.42z"/></svg><svg viewBox="0 0 502.664 502.664" xml:space="preserve" id="icon" xmlns="http://www.w3.org/2000/svg"><path d="M153.821 358.226 0 274.337v-46.463l153.821-83.414v54.574L46.636 250.523l107.185 53.431v54.272zm26.273 29.358L282.103 115.08h32.227L212.084 387.584h-31.99zm168.749-29.358v-54.272l107.164-52.999-107.164-52.59v-53.927l153.821 83.522v46.183l-153.821 84.083z"/></svg></svg>