<svg width="19" height="19" viewBox="0 0 19 19" fill="none" xmlns="http://www.w3.org/2000/svg">
<g clip-path="url(#clip0_200_77)">
<path d="M4.125 8.295C5.565 11.125 7.88 13.44 10.715 14.88L12.915 12.675C13.19 12.4 13.585 12.32 13.93 12.43C15.05 12.8 16.255 13 17.5 13C18.055 13 18.5 13.445 18.5 14V17.5C18.5 18.055 18.055 18.5 17.5 18.5C8.11 18.5 0.5 10.89 0.5 1.5C0.5 0.945 0.95 0.5 1.5 0.5H5C5.555 0.5 6 0.945 6 1.5C6 2.745 6.2 3.95 6.57 5.07C6.68 5.415 6.6 5.81 6.325 6.085L4.125 8.295Z" fill="white"/>
</g>
<defs>
<clipPath id="clip0_200_77">
<rect width="19" height="19" fill="white"/>
</clipPath>
</defs>
</svg>
