<svg width="56" height="56" viewBox="0 0 56 56" fill="none" xmlns="http://www.w3.org/2000/svg">
<g clip-path="url(#clip0_191_8)">
<path d="M3.5 52.5C3.5 54.4359 5.06516 56 7 56H24.5V31.5H3.5V52.5ZM52.5 14H47.8909C49.1991 11.4931 49.5327 8.4711 47.8866 5.09688C46.3094 1.85828 42.9406 -0.00170508 39.3203 1.17289e-06C34.7484 0.00170742 31.7953 2.33188 28 7.47031C24.2047 2.33188 21.2516 0.00170742 16.6797 1.17289e-06C13.0594 -0.00170508 9.69281 1.85828 8.11344 5.09688C6.46734 8.4711 6.80094 11.4953 8.11016 14H3.5C1.56734 14 0 15.5673 0 17.5V24.5C0 26.425 1.575 27.9967 3.40156 27.9967H52.4016C54.3266 27.9967 55.9016 26.425 55.9016 24.5V17.5C56 15.5641 54.4359 14 52.5 14ZM16.8328 14C14.4167 14 12.4578 12.0411 12.4578 9.625C12.4578 7.20891 14.4167 5.25 16.8328 5.25C19.0094 5.25 20.6172 5.61094 26.25 14H16.8328ZM39.1672 14H29.75C35.3828 5.61094 36.9895 5.25 39.1661 5.25C41.5822 5.25 43.5411 7.20891 43.5411 9.625C43.5411 12.0411 41.5844 14 39.1672 14ZM31.5 56H49C50.9348 56 52.5 54.4359 52.5 52.5L52.5 31.5H31.5984L31.5 56Z" fill="#785B44"/>
</g>
<defs>
<clipPath id="clip0_191_8">
<rect width="56" height="56" fill="white"/>
</clipPath>
</defs>
</svg>
